<svg xmlns="http://www.w3.org/2000/svg" style="isolation:isolate" width="308.5" height="392.2"><defs><clipPath id="_clipPath_ibroot9jSM7FaYuDhvKiwiNQMEbpVz3v"><path d="M0 0h308.5v392.2H0z"/></clipPath></defs><g clip-path="url(#_clipPath_ibroot9jSM7FaYuDhvKiwiNQMEbpVz3v)"><path d="M33.6 375.6c8.6-62 32.2-117 61.2-172.7 4.8-10.2 8.1-21.1 11.6-31.5.1-.2-1.5-.4-1.7-.5l-.2-.1c-.2-.1-.5-.1-.7.1-6.2 8.2-114.3 153.4-66 245.7 0 0-.6-2.4-1.1-5.8v-.1c-3.6-11.4-4.9-23.4-3.1-35.1zm227.2-16.9c-47.5-43.4-37.2-116.9-37.2-116.9l-.6-.3c-32.7 57 11 111.6 46.9 156 10.1 12.3 18 26.5 21.4 41.6 2.2 4.8 3.3 9.3 3 13.2.1 0 14-50.1-33.5-93.6z" fill="#A21616"/><path d="M223.1 241.5l-118-70.5c-3.6 10.5-5.4 21.4-10.2 31.8-29.1 55.8-52.6 110.7-61.2 172.7-1.8 11.7-.5 23.7 3 35.1-1.3-7.9-2.4-21.5 3.8-24.6 9-4.5 44.3-27.8 77 4.9s91.7 25.6 112.8 10.8c17.4-12.2 50.8 15.1 61.1 37.4-3.5-15.1-11.4-29.3-21.4-41.6-35.9-44.4-79.6-99-46.9-156z" fill="#581111"/><path d="M152.5 294.8l11-22.2 7.1 28.2-18.1-6z" fill="#D6D0BD"/><path d="M134.3 295.7s-10.1 39-9.8 47.7c0 0 15.3 42.7 28.1 60.2l2-1.8s-2.3-34.5-4.7-40.8c-2.4-6.3-8.4-7.3-8.1-11.3.3-3.9 17.3-35.8 17.3-35.8l3.1 1.3s-.5 34 4.8 49.5c0 0 2.8 4.2-2 10.2-4.8 6-8.7 58.6-8.7 58.6l1.6 2.1s18.9-53.7 21.4-61.8c2.5-8.1 7.5-66.4 7.5-66.4l-39.9-13.5-12.6 1.8z" fill="#303030"/><path d="M159 313.8c-.1-1.2-.3-2.3-.4-3.5-.1-1.2-.2-2.3-.3-3.5l-.3-3.5-.3-3.5v-.4h.4l6.9.3h.4l-.1.4-.7 3.4c-.2 1.1-.4 2.3-.7 3.4-.5 2.3-.9 4.6-1.5 6.8v.1h-.1c-1.1.1-2.2.1-3.3 0zm0 0c1.1-.1 2.2-.1 3.3-.1l-.1.1c.3-2.3.7-4.6 1.1-6.9.2-1.1.4-2.3.6-3.4l.6-3.4.4.4c-2.3-.1-4.6-.3-6.9-.4l.4-.4.2 3.5.2 3.5c.1 1.2.1 2.4.1 3.5 0 1.3.1 2.4.1 3.6z" fill="#22221E"/><path d="M155.1 294.9s15.5 3.6 17.7 1.6l-1.6 5.2s-19.7-2.7-20.7-5.3c-1.1-2.7 4.6-1.5 4.6-1.5z" fill="#232122"/><path d="M159.1 295.2l-1.5 5 6.3 1 1-5.4-5.8-.6z" fill="#CFD1D2"/><path d="M159.4 295.8l-1.3 3.9 5.4.9.7-4.1-4.8-.7z" fill="#232122"/><path d="M158.8 297.4l.8.1-.2.5-.9-.3.3-.3z" fill="#CFD1D2"/><path d="M116.5 18.7S132.1 1.2 144.2 0c0 0 5.1 8.6 5.6 16.4 0 0-5.9 4.9-10.4 5.1l-1.8-2.8s-6 6.1-10.3 4.7l-2.7 7.5-8.1-12.2z" fill="#ECB584"/><path d="M144.5 14.5l-.3-.6-2.2-4s-5.3 1.2-6.3 3.1c0 0 .2 3.3 3.7 8.4 0 0 4.5-.2 7.6-3 0 0-6.4 2.9-7.6 1.1-1.2-1.7-3.9-7.2 1.4-8.6 0 .1 2.7 1.2 3.7 3.6z" fill="#DB9769"/><path d="M114 20.5l2.5-1.8 12.3 12.2-1.3 2.9L114 20.5z" fill="#F6EDD9"/><path d="M114 20.5s13.2 9.3 14.9 12.2c0 0-35.9 80.7 10.3 114.5l39.7-2.5s37.4 29.2 42 35.2c0 0 27.6 82.5-12.3 99.8 0 0-10.8-1.2-17.1-33.4 0 0-6.7 41.7-5 61 0 0-15.3-2.4-19-6.3l-5.5-24.5-9.1 20.9s-16.3 1-18.7-1.7c0 0-5.5-74.3-11.3-88-5.8-13.7-46.1-59.9-44.2-88.6 2-28.5 15.2-78 35.3-98.6z" fill="#3A3A39"/><path d="M153.8 150.4c8.6 3.4 19.2-1 24.4-8.8l-.7-4.2h-36.2l-.3 1.6c2.2 4.9 7.7 9.5 12.8 11.4z" fill="#C68960"/><path d="M140.4 144.7c-.2-.3-.3-.6-.5-.8l-.8 4.1 17.8 55.5 15.5-23.2 4.4-21c-7.8 9.3-15.6 18.4-16.8 31.8-3.9-17.3-8.6-32.2-19.6-46.4z" fill="#C68960"/><path d="M178.2 141.7c-5.9 7.1-15.8 11.2-24.4 7.8-5.1-1.9-9.6-5.4-12.9-10.3l-.9 4.8c.2.3.3.5.5.8 11 14.1 15.7 29.1 19.6 46.3 1.2-13.4 9-22.5 16.8-31.8l.2-1.1c-.3.4-.6.8-.6 1.5 0-.6.2-1.1.6-1.5l2.1-10.2-1-6.3z" fill="#DB9769"/><path d="M177.8 103.7s2.8-3.9 5.4-2.3c2.6 1.6 4.1 11.2-1.8 8.6-5.8-2.5-3.6-6.3-3.6-6.3z" fill="#ECB584"/><path d="M179 104.5s2.4-2.6 3.8-1.1 2 6.2-1.2 5.5c-3.1-.8-2.6-4.4-2.6-4.4zm-38.3-.5s-3-4.2-5.9-.9c-2.9 3.3-1.6 6.1 1.1 6.9 2.7.8 4.8-6 4.8-6z" fill="#DB9769"/><path d="M138.9 105s-2-3-3.7.1c-1.7 3.1 1.7 3.2 1.7 3.2l2-3.3z" fill="#B5673B"/><path d="M137.5 109.6c.2-.2 6.7-16.1 7.6-23.6 0 0 .9-3.3 2.9-4.4 2-1.1 11.9-6 16.7-4 4.8 2 9.8 4.5 9.8 4.5l1.1 2.9s-1 12.6 6.3 23.1c7.3 10.5-44.3 1.8-44.3 1.8v-.3h-.1z" fill="#DB9769"/><path d="M181.8 108.1c-7.3-10.5-6.3-23.1-6.3-23.1l-1.1-2.9s-5-2.6-9.8-4.5c-1-.4-2.2-.5-3.4-.4l.6 5.2s-5.2-2-5.7.6c-.5 2.7.8 4.1.8 4.1s1.5 3.7.6 9.9c0 0 4.1-2.6 7.8 3.4 3.6 6 1.8 5.9 1.8 5.9l-12.1 5.9c14.2 1.5 31.2 2.2 26.8-4.1z" fill="#ECB584"/><path d="M164.9 140.5c13-3.1 19.8-14.6 20.2-26.6-1.3-3.1-3.2-6.4-5.9-10.1 0 0 1.2 5.2-2.8 5.3-4 .1-16.8-5.9-16.8-5.9l-12.4 6.6s-8-2.4-7.4-6c0 0-6.8 5.3-7.5 14.6.3 15.6 17.4 25.6 32.6 22.1z" fill="#5B3617"/><path d="M185.1 113.9c-1.1 11.9-7.2 22.5-20.2 25.6-15.3 3.5-31.7-5.9-32.7-21.1-.3 4.2.6 9.3 4 15 10.9 18.3 39.2 9.8 41.9 6.9 2.4-2.6 13.7-10.3 7-26.4z" fill="#4C2F14"/><path d="M156 92.5l-.4-1.7-1-.8-1.4-.5-1.2-.1c0 .1-1.2-.3-2 .1 2 1.4 3.7 3.3 5.9 4.4l.1-1.4z" fill="#E5F3FF" opacity=".69"/><path d="M155.8 94.1v-.2c-2.2-1.1-3.9-3-5.9-4.4-.1.1-.3.1-.4.2 2.4 1.3 4.2 3 6.1 4.7l.2-.3zm-1.3 1.7c-2.4-1.6-4.7-3.5-7.1-5l-.8.5s-.1.1-.2.3c2.2 1.7 4.8 3.5 7.2 5.3l.9-1.1z" fill="#FFF" opacity=".69"/><path d="M146.4 91.7c-.4.7-1.1 2.1-1.2 2.1-.1 0-.5 2.4-.5 2.4l.9 2.1 1.6.9s2.1.1 2.2 0c.1 0 3.3-1.2 3.3-1.2l.9-1c-2.4-1.8-5-3.6-7.2-5.3zm8.2 4l.9-1.3c-1.8-1.7-3.6-3.4-6.1-4.7l-.6.2-1.6.9c2.4 1.5 4.8 3.3 7.1 5l.3-.1zm8.6-3l.4-1.7 1-.8 1.4-.5 1.2-.1c0 .1 1.2-.3 2 .1-2 1.4-3.7 3.3-5.9 4.4l-.1-1.4z" fill="#E5F3FF" opacity=".69"/><path d="M163.5 94.3v-.2c2.2-1.1 3.9-3 5.9-4.4.1.1.3.1.4.2-2.4 1.3-4.2 3-6.1 4.7l-.2-.3zm1.3 1.7c2.4-1.6 4.7-3.5 7.1-5l.8.5s.1.1.2.3c-2.2 1.7-4.8 3.5-7.2 5.3l-.9-1.1z" fill="#FFF" opacity=".69"/><path d="M172.9 91.9c.4.7 1.1 2.1 1.2 2.1.1 0 .5 2.4.5 2.4l-.9 2.1-1.6.9s-2.1.1-2.2 0c-.1 0-3.3-1.2-3.3-1.2l-.9-1c2.4-1.8 5-3.6 7.2-5.3zm-8.3 3.9l-.9-1.3c1.8-1.7 3.6-3.4 6.1-4.7l.6.2 1.6.9c-2.4 1.5-4.8 3.3-7.1 5l-.3-.1z" fill="#E5F3FF" opacity=".69"/><path d="M134.8 112.3s14 6.3 25.3-5.9c0 0 4.4 11.5 22.5 3.5l-22.7-7.6-25.1 10z" fill="#462A13"/><path d="M163.6 85.9s5.9-2.7 8.6-1.4l4.2 7.4s-5.1-4.3-12.8-1.2v-4.8z" fill="#5B3617"/><linearGradient id="_lgradient_0" x1="-.003" y1=".498" x2="1.005" y2=".498" gradientTransform="matrix(11.8 0 0 14.7 153.7 86)" gradientUnits="userSpaceOnUse"><stop offset="0%" stop-color="#b5673b"/><stop offset="100%" stop-color="#4f1306"/></linearGradient><path d="M159.8 95.8c-.7 0-1.3.3-1.9.6 0 0 .9-5.2-1-10.4 0 0 1.5 9.1 0 11.1-1.9 1.4-3.2 3.6-3.2 3.6s3.7-4 5.9-3.8c2.2.2 5.9 3.8 5.9 3.8s-2.5-5-5.7-4.9z" fill="url(#_lgradient_0)"/><path d="M174.7 93.6c-.7-1.3-1.9-2.5-3.4-3.4-3.2-1.8-6.7-1.4-8 .9-.3.6-.5 1.3-.4 2.1-1-.8-2.1-1.2-3.2-1.1-1.3.1-2.4.7-3.2 1.3.1-.8 0-1.6-.4-2.2-.6-1.1-1.8-1.8-3.3-1.9-1.5-.1-3.1.2-4.6 1.1-1.5.8-2.7 2-3.4 3.4-.7 1.4-.7 2.8-.1 3.9s1.8 1.8 3.3 1.9h.6c1.3 0 2.7-.4 4-1.1 1.5-.8 2.7-2 3.4-3.4 0 0 0-.1.1-.1.1-.1 1.6-1.9 3.6-2 1.2-.1 2.4.5 3.5 1.7.1.1.1.3.2.4.7 1.3 1.9 2.5 3.4 3.4 1.3.7 2.7 1.1 4 1.1 1.7 0 3.2-.7 4-2 .6-1.3.5-2.7-.1-4zm-22.4 4c-1.4.8-2.9 1.1-4.2 1-1.3-.1-2.2-.7-2.7-1.5-.5-.9-.4-2 .1-3.1.6-1.2 1.7-2.3 3-3 1.2-.7 2.5-1 3.6-1h.5c1.3.1 2.2.7 2.7 1.5.5.9.4 2-.1 3.1s-1.6 2.2-2.9 3zm21.8-.6c-1 1.9-4.1 2.1-6.9.6-1.4-.8-2.5-1.8-3-3-.6-1.1-.6-2.3-.1-3.1.6-1 1.8-1.6 3.2-1.6 1.1 0 2.4.3 3.7 1 1.4.8 2.5 1.8 3 3s.6 2.3.1 3.1z" fill="#482B13"/><path d="M143.2 93.3l2.7-.7-1.5 2.9-1.2-2.2zm30.5-1.2l2.4.9-1.2 2.5-1.2-3.4z" fill="#482B13"/><path d="M145 85.9s11.5-10.1 16.7-3.6c0 0 8.8-3.1 13.7 2.7 0 0 1.4-1 1.2-2.8-.3-1.8-12.5-4.9-13-6.5 0 0-1.7-.9-5.6-.4-3.9.5-14.7 4.4-13 10.6z" fill="#78461B"/><path d="M149.6 95s2.1.3 2.8-2c.7-2.2-1.7-.8-2.4.5-.7 1.4-.4 1.5-.4 1.5zm20.1-.4s-1.9.3-2.5-2c-.7-2.2 1.5-.8 2.2.5.6 1.4.3 1.5.3 1.5z" fill="#5B3617"/><path d="M141.2 111.2s-.7 1.4-1.5 3.7l-.6 1.8c-.2.7-.4 1.3-.5 2.1-.1.4-.2.7-.2 1.1-.1.4-.1.8-.2 1.1-.2.8-.2 1.5-.3 2.3-.1.8-.1 1.6-.2 2.3 0 .8-.1 1.5-.1 2.3v2.1c0 .7.1 1.3.1 1.9.1.6 0 1.1.1 1.6s.1.9.1 1.3c.1.7.1 1.1.1 1.1s-.1-.4-.3-1.1c-.1-.3-.2-.8-.4-1.2-.2-.5-.2-1-.3-1.6-.1-.6-.3-1.2-.3-1.9-.1-.7-.2-1.4-.2-2.2v-2.3c.1-.8.1-1.6.2-2.4.1-.8.2-1.6.4-2.4.1-.8.3-1.6.6-2.3.2-.7.5-1.4.7-2.1.3-.6.5-1.3.8-1.8.3-.6.5-1 .8-1.5.2-.4.5-.8.7-1.1.2-.5.5-.8.5-.8zm14.7-2.2s-.1.6-.3 1.5c-.1.5-.2 1.1-.3 1.7-.1.7-.2 1.4-.4 2.3-.3 1.7-.6 3.6-.9 5.7-.1 1-.3 2.1-.4 3.2l-.3 3.3c-.1 1.1-.2 2.2-.2 3.3-.1 1.1-.1 2.2-.1 3.2s.1 2 .1 3c.1 1 .2 1.9.2 2.7.1.8.2 1.6.3 2.3.1.7.3 1.2.4 1.7.3.9.4 1.5.4 1.5s-.2-.5-.6-1.4c-.2-.5-.4-1-.6-1.7-.2-.7-.4-1.4-.6-2.3-.1-.8-.3-1.7-.4-2.7-.1-1-.2-2-.2-3.1s-.1-2.2 0-3.3c.1-1.1.1-2.3.2-3.4s.2-2.3.4-3.4c.1-1.1.3-2.2.5-3.2l.6-3 .6-2.7c.4-1.6.8-3 1.1-3.9.3-.8.5-1.3.5-1.3zm13.1 1.5s.1.5.4 1.4c.2.9.5 2.2.8 3.8.3 1.6.6 3.4.8 5.4.2 2 .4 4.1.5 6.2v3.2c0 1-.1 2.1-.2 3.1-.2 2-.5 3.9-.9 5.4-.2.8-.4 1.5-.7 2.1-.2.6-.5 1.1-.7 1.5-.2.4-.4.7-.5.9-.1.2-.2.3-.2.3s.1-.1.1-.4c.1-.2.2-.6.4-1s.3-1 .5-1.6c.1-.6.3-1.3.4-2.1.1-.8.2-1.6.3-2.5.1-.9.1-1.8.2-2.8 0-1 0-2 .1-3 0-1 0-2.1-.1-3.1-.1-2.1-.2-4.2-.3-6.2-.1-2-.3-3.8-.4-5.4-.1-1.6-.3-2.9-.3-3.8-.1-.9-.2-1.4-.2-1.4zm10.2.7s.2.3.5.9c.3.6.7 1.5 1.1 2.6.4 1.1.8 2.4 1.2 3.8.2.7.4 1.4.6 2.2.2.7.3 1.5.5 2.3.1.8.3 1.5.3 2.3.1.8.1 1.5.2 2.2.1.7 0 1.4 0 2.1 0 .7-.1 1.3-.1 1.9 0 .6-.2 1.1-.3 1.6-.1.2-.1.5-.1.6-.1.2-.1.4-.2.5-.2.6-.4 1-.4 1s.1-.4.1-1.1c0-.2.1-.3.1-.5v-.7c0-.5.1-1 0-1.6 0-.6 0-1.2-.1-1.8-.1-.7-.1-1.3-.2-2s-.2-1.4-.3-2.2c-.1-.7-.2-1.5-.4-2.2-.2-1.5-.6-3-.9-4.4-.3-1.4-.6-2.7-.9-3.8-.3-1.1-.5-2.1-.7-2.7-.1-.3-.2-.6-.2-.8.3-.1.2-.2.2-.2z" fill="#462A13"/><path d="M139.3 147.2l1.4-7.2s2.7 13.6 10.4 25.5c1.9 7.5 3.5 21.8 7.6 29.3l7.9-19.4 11.7-33.2 2.3 3.7s5.5 11-3.2 38.5-16.6 44.9-16.6 44.9-9.1-10.8-11.6-19-13.5-56.8-13.5-56.8l3.6-6.3z" fill="#F6EDD9"/><path d="M136.9 145.4s-6.1 16.1-3.1 42.3l7.4 4.9-5.5 5.8 25.1 33.3 22.9-34.4-4-6 8.3-2.8s.2-23.1-2.5-38.8l-1.8-1.4s-1.3 31.4-7.8 47.5c-6.5 16-14.3 33.6-14.3 33.6s-14.3-16.4-17.2-29.3c-2.8-12.8-7.5-54.7-7.5-54.7z" fill="#2D2C2B"/><path d="M139.3 147.2s2.4 49.4 21.5 82.3c0 0 20.7-57.2 19.8-83.5l4 3.2s3.6 33 2.5 38.5l-8.2 2.7 4.3 5.9-22.4 35.5-24-33.6 5.4-6-7.5-5s-1.9-28.1 2.2-41.8l2.4 1.8z" fill="#504F4E"/><path d="M208.3 199c0-1.9-2.8-3.9-2.8-3.9l-1.6-5.2c-4.7-1.9-20.2 3.8-20.2 3.8v.4c6.8-.7 15.2-5 19.6.1 2.4 3.1 4.7 11.8-.8 16.5-1.1 1.1-1.2 2.9-.8 5.1l3.4-.8-.9-4.2c3.1-1.2 4.1-9.9 4.1-11.8z" fill="#DB9769"/><path d="M202.4 210.7c5.5-4.7 3.1-13.3.8-16.5-4.4-5.1-12.7-.8-19.6-.1.3 20.9 6.6 19.2 6.6 19.2l1.1 4.8 10.3-2.3c-.3-2.2-.2-4 .8-5.1z" fill="#ECB584"/><path d="M207.2 216v-2.7l-18.4 3.6.3 2.9 18.1-3.8z" fill="#F6EDD9"/><path d="M191.5 246.4s-4-24.6-3.6-27.6l19.7-3.8s9.4 31.7 9.4 36l-10.3-34-17.7 2.9 2.5 26.5z" fill="#504F4E"/><path d="M160.8 231.8l1.2 44.7"/><path d="M137.8 281.6c.4.1 14.8-5.1 14.8-5.1v2.5l-14.8 4.4v-1.8zm36.6-.6l9.2 9.2v2l-9.2-8V281zm-6.8-44.5c0 1.1-.9 2-2 2s-2-.9-2-2 .9-2 2-2 2 .9 2 2zm1.2 36.1c0 1.1-.9 2-2 2s-2-.9-2-2 .9-2 2-2 2 .9 2 2z" fill="#2D2C2B"/><path d="M152.5 403.6c-.2.4.3 5.7-5.7 13.9 0 0 .4 3.4 4.9-1.7s3.3-9.4 3.3-9.4l.5.2.6-1.2s0-2.7-1.6-3.8l-2 2zm3.5 29.8s-1.8 1-1.4 3.5l1.4 2.4.7-.3s2.7 10.7 6.3 13c3.6 2.2-1.7-7.7-3-10.6-1.3-2.9-2.3-6.7-2.3-6.7l-1.7-1.3z"/><path d="M134.8 112.3s9.1-11.6 25.2-11.2c16 .4 22.6 8.7 22.6 8.7s-17.8 6.5-22.3-5.4c-.1.1-6.2 11.4-25.5 7.9z" fill="#683D19"/><path d="M143 176.6s2.2-9 4.2-9.5 3.3-1.3 3.4-.5c.1.8 2.6 13.1 3.3 15.2 0 0-3.1-8.4-5.3-8.5-2.1-.2-5.6 3.3-5.6 3.3zm20.6 6.4c.3-.8 6.1-15.3 7.2-15.6 1.1-.3 5.1-.1 3.9 12.2 0 0-2.3-7.1-3.6-7-1.4.1-7.5 10.4-7.5 10.4z" fill="#D9D3BF"/><path d="M158.7 194.9l2.1 34.6"/><path d="M162.7 195.1c0 .5-.4.9-.9.9s-.9-.4-.9-.9.4-.9.9-.9.9.4.9.9zm.9 19.9c0 .5-.4.9-.9.9s-.9-.4-.9-.9.4-.9.9-.9.9.4.9.9z" fill="#D9D3BF"/><path d="M128.8 146.2c-.1.2-3.3 8.8.7 9.8 4 .9 9.8-8.7 9.8-8.7l-10.5-1.1z" fill="#2D2C2B"/><path d="M131.3 140.1s-6.5 12.9-1.8 14.8c4.7 1.9 9.8-7.7 9.8-7.7l-8-7.1z" fill="#A21616"/><path d="M183.7 148.4s-.8 17.4 7.4 17.2c0 0 4.6-.6 3.6-8.4l-11-8.8z" fill="#2D2C2B"/><path d="M183.7 148.4s.3 14.1 6.1 15.5c5.8 1.4 4.9-6.7 4.9-6.7l-11-8.8z" fill="#A21616"/><path d="M132.2 151.7c0 .6-.5 1-1 1-.6 0-1-.5-1-1 0-.6.5-1 1-1 .6 0 1 .4 1 1zm59.1 9.5c0 .6-.5 1-1 1s-1-.5-1-1c0-.6.5-1 1-1s1 .4 1 1z" fill="#2D2C2B"/><path d="M143.2 92c.3 0 9.4-4.9 13.7-5v-7.1s-9 3.2-13.7 10.1v2z" fill="#5B3617"/><path d="M149.1 83s.2-.8.7-1.9c.1-.3.3-.6.5-.9l.6-.9c.3-.3.5-.6.8-.9l.9-.9c.3-.3.7-.5 1-.7.3-.2.7-.4 1-.6.3-.2.7-.3 1-.4.2-.1.3-.1.5-.2.2 0 .3-.1.5-.1.3-.1.6-.1.8-.2.2 0 .5 0 .6-.1h.6s-.2.1-.5.2c-.2.1-.4.1-.6.2-.2.1-.5.2-.8.3-.3.1-.6.2-.9.4-.3.2-.6.3-.9.5l-.9.6c-.3.2-.6.5-.9.7-.6.5-1.2 1.1-1.7 1.6-.2.3-.5.5-.7.8-.2.3-.4.5-.6.8-.4.5-.6.9-.8 1.2-.1.3-.2.5-.2.5zm12.3-7.8s.3.4.6 1 .6 1.5.7 2.5v1.4c0 .2-.1.4-.1.6 0 .2-.1.4-.2.6-.1.2-.2.3-.2.4-.1.1-.2.2-.2.3-.1.2-.2.2-.2.2s0-.1.1-.3c0-.1.1-.2.1-.3 0-.1.1-.3.1-.4v-1.1c0-.4 0-.9-.1-1.3 0-.4-.1-.9-.2-1.3s-.1-.8-.2-1.2c-.2-.7-.2-1.1-.2-1.1zm7.6 3.2s.3.1.6.3c.3.2.6.6.8 1.1.1.2.2.5.2.7 0 .3 0 .5-.1.7-.1.2-.2.3-.3.4l-.1.1v-.2c0-.1 0-.3-.1-.4 0-.2-.1-.3-.2-.5s-.1-.4-.2-.6l-.3-.6c-.1-.2-.2-.4-.2-.6 0-.1-.1-.4-.1-.4z" fill="#573416"/></g></svg>