<svg version="1.1" id="Layer_1" xmlns="http://www.w3.org/2000/svg" x="0" y="0" viewBox="0 0 699 801.6" xml:space="preserve"><style>.st3{fill:#232122}.st4{fill:#cfd1d2}.st6{fill:#3a3a39}.st7{fill:#2d2c2b}.st8{fill:#504f4e}.st9{fill:#cd8c60}.st11{fill:#ecb584}.st12{fill:#db9769}.st15{fill:#5b3617}.st16{fill:#4c2e14}.st17{fill:#462a13}.st19{fill:#683d19}.st20,.st21{opacity:.69;fill:#e5f3ff;enable-background:new}.st21{fill:#fff}.st23{fill:#f2d2a9}.st25{fill:#e09c6f}</style><path fill="#d6d0bd" d="M329.8 649.3l38.9-35 23.8 66.2-13.5 1.9z"/><linearGradient id="SVGID_1_" gradientUnits="userSpaceOnUse" x1="389.833" y1="1460.954" x2="408.666" y2="1415.596" gradientTransform="translate(0 -734)"><stop offset="0" stop-color="#3a3a39"/><stop offset=".365" stop-color="#373737"/><stop offset=".584" stop-color="#2f2f2e"/><stop offset=".765" stop-color="#212120"/><stop offset=".924" stop-color="#0d0d0c"/><stop offset="1"/></linearGradient><path d="M354.7 801.6h63.5c3.3-51.8 4.4-95 4.4-95l-60.7-34.1-15.2 15.2s3.5 35.5 3.5 39.9c.1 14 1.9 42.3 4.5 74z" fill="url(#SVGID_1_)"/><path d="M340.5 723.7c.7-5.8 1.6-11.4 2.3-17.3l2.6-17.3 1.4-8.6.7-4.2.2-2.1.2-.9v-1c.2-.2.5-.5.9-.7h.5c.7 0 .9.2 1.4.2s.7.2 1.2.5c.7.2 1.4.5 2.1.9 1.4.5 2.8 1.2 4 1.9 2.6 1.2 5.4 2.6 7.9 4l.9.5-.2.9-7.7 24c-2.8 7.9-5.4 16.1-8.2 24l-.2.5-.5-.2c-3.2-2.1-6.3-3.7-9.5-5.1zm0 0c3.3 1.2 6.5 2.6 9.6 4l-.5.2c2.3-8.2 4.7-16.1 7-24.3l7.5-24.3.5 1.4-7.9-4c-1.4-.7-2.6-1.2-4-1.9-.7-.2-1.4-.5-1.9-.7-.7-.2-1.4-.5-1.6-.5.2 0 .5-.2.5-.5 0 0 .2-.7 0-.5v.9l-.2 1.2-.2 2.1-.7 4.2c-.5 2.8-.9 5.6-1.4 8.6l-3.3 17c-1.1 5.6-2 11.2-3.4 17.1z" fill="#1b1b1a"/><path class="st3" d="M342.6 655.6s46.2 27.1 54.1 24.3l-7.9 11.9s-59.7-29.4-61.6-37.6c-1.6-8.2 15.4 1.4 15.4 1.4z"/><path class="st4" d="M352.6 666.5l2.3 1.2-.7.9-2.5-1.6z"/><path class="st4" d="M354.7 661.2l-7.5 11.4 18.9 9.8 6.6-13.1z"/><path class="st3" d="M355.4 663l-6.5 8.9 16.3 8.6 4.9-10.2z"/><linearGradient id="SVGID_2_" gradientUnits="userSpaceOnUse" x1="360.046" y1="1337.211" x2="388.139" y2="1122.124" gradientTransform="translate(0 -734)"><stop offset="0" stop-color="#3a3a39"/><stop offset="1"/></linearGradient><path d="M249.7 629.9s36.9-43.2 30.8-97.3c-6.1-54.4 136.5-73.3 136.5-73.3l58.8 75.6-14.2 9.8s-18.9 95-42.2 119.2l3.5 44.3s-35.2-13.5-38-20.3c-2.8-7-16.3-58.6-16.3-58.6s-36.2 40.4-46.9 39.7c-11.1-1.1-72-39.1-72-39.1z" fill="url(#SVGID_2_)"/><path class="st6" d="M164.3 322.4s185.9-82.1 363.9-76.3c0 0 40.1 255.9-63.5 301.2 0 0-47.8-40.1-66.3-67.9 0 0-66.7 61.1-132 73.3-.1 0-99.7-41.8-102.1-230.3z"/><path class="st7" d="M270.7 284.9l-2.5.7 20 89.8 24.3 5.6-11.7 14.9 53.7 35-18.9-29.2z"/><path class="st8" d="M269.8 285.1l11-3.3s48.8 117.6 96.6 152.6l-7.2 5.4-68.2-45.5 11.9-15.4-25-5.4-19.1-88.4z"/><path class="st9" d="M289.9 242.6l-5.6 38.3 70.4 127.6 26.4-159.8z"/><path d="M285.2 263.6l-4.4 18.2s38.7 115 80 143.2c41.3 28.2 16.1-56.9 16.1-56.9s-85.4-83.8-89.8-105.9l-1.9 1.4zm107.3-16.8l7.2 8.4 12.6 71.9-15.8 42.9-13.1 3.7-20.3-82.5-10.7-27.6 19.8-24.7z" fill="#f6edd9"/><path class="st9" d="M375 262.2s-5.1 25.9-5.4 25.9l-24.7-19.8 30.1-6.1z"/><path class="st11" d="M410.7 154s14.9-11.7 18-10.5c3 .9 11.7 13.5 6.3 25s-26.6 7.2-26.6 7.2l2.3-21.7z"/><path class="st12" d="M301.5 130.6s-6.1-18-9.3-18.7c-3-.7-17.3 4.9-18.9 17.3-1.6 12.4 18.2 20.8 18.2 20.8l10-19.4z"/><path class="st12" d="M314.1 74.2s-5.6 49.2-24.7 73.5l-5.6 39.7 63.7 62.3 60.7-41.8 5.1-33.4S412.4 119 431 94l7.2-17.3-22.9-20.3-76.1-22.6-25.9 18.4.8 22z"/><path class="st11" d="M412.8 174.3s-.9-55.5 17.7-80.5l7.2-17.3-22.9-20.3-32.8-9.8-5.8 27.6s-9.6 4.2-11.9 12.1-12.4 46.9-15 49.9c-2.6 3-3 14.9-24.7 14.2 0 0 17.3 21 32 19.6h.7-.7c-1.6.2-6.3 1.4-6.8 6.5-.9 6.5-15.4 24.3-15.4 24.3l-49-25.2-1.6 11.7 63.7 62.3 60.7-41.8 4.6-33.3z"/><path class="st12" d="M350.5 134.1c.2.2 14.9-.9 17.3 3.5 0 0-3 32 32 23.8l-7.2-.9-8.6-.9-7.5-5.1-6.3-12.6.9-7.9-8.4-4.7-11.7-.3-.5 5.1z"/><linearGradient id="SVGID_3_" gradientUnits="userSpaceOnUse" x1="163.881" y1="585.443" x2="217.72" y2="585.443" gradientTransform="matrix(.8748 .404 -.4118 .8917 435.583 -466.681)"><stop offset="0" stop-color="#b5673b"/><stop offset="1" stop-color="#4f1306"/></linearGradient><path d="M362.9 88.2s-9.1 48.5-16.3 55.8c-7.2 7.5-15.9 7.7-15.9 7.7s14.2 24 43.9 14.2c0 0-29.6 20.3-49.9-15.6 0 0 16.8 1.4 22.2-11.2 5.2-12.2 4.3-9.6 16-50.9z" fill="url(#SVGID_3_)"/><path class="st12" d="M375.9 103.6s-1.6.9-3 6.3c-1.4 5.4-3 13.8-3 13.8l47.4.7-41.4-20.8z"/><path d="M387.6 56.5c-.9 2.1-4.7 5.1-.5 7 13.3 7.9 30.8 6.1 40.1-4.4 1.2-1.2 2.1-2.1 2.8-3.5-16.3-14.3-33.3-44.4-23-55.6 0 0-48.1.7-80.3 22.4-.7 3-.7 6.1.2 8.4 7.3 22.2 36.2 27.3 60.7 25.7z" fill="#78461b"/><path class="st15" d="M431.5 56.9c-.5-.5-.9-.9-1.4-1.2-.9 1.2-1.9 2.3-2.8 3.5-9.1 10.5-26.8 12.4-40.1 4.4-4-1.6-.2-4.9.5-7-24.5 1.4-53.4-3.7-60.7-25.9-.9-2.3-.9-5.4-.2-8.4-6.8 4.7-13.1 10.3-17.7 17 0 0-7.5 21.9 4.7 38 0 0 2.3-21.2 8.9-22.4 6.5-1.2 38.3 5.6 53.7 18.9 0 0 43.4.9 46.9 3.3 3.5 2.3 6.8 16.1 5.6 19.1l14-11c-.2.2 5.1-14.5-11.4-28.3z"/><path class="st16" d="M407 0s-1.6.5-4.4 1.4c-2.8.7-7 2.1-11.9 3.5s-10.5 3.5-16.6 5.6c-6.1 2.1-12.4 4.7-18.4 7.5-3 1.4-6.1 2.8-9.1 4.4-3 1.6-5.8 3.3-8.4 5.1-1.4.9-2.6 1.9-3.7 2.8-1.2.9-2.3 1.9-3.5 2.8-.9.9-2.1 1.9-3 3l-1.4 1.4c-.5.5-.7 1.2-1.2 1.6-.7.9-1.2 2.1-1.9 3s-.7 2.1-1.2 3c-.5 1.9-.7 3.7-.7 5.1 0 1.4.2 2.6.5 3.5.2.7.2 1.2.2 1.2s-.2-.5-.5-1.2c-.2-.7-.7-1.9-.7-3.5-.2-1.4-.2-3.3.2-5.4.5-2.1 1.2-4.4 2.8-6.5.5-.5.7-1.2 1.2-1.6s.9-1.2 1.4-1.6c.9-1.2 1.9-2.1 3-3.3s2.3-2.1 3.5-3c1.2-.9 2.6-1.9 3.7-2.8 2.6-1.9 5.6-3.7 8.4-5.4 3-1.6 6.1-3.3 9.1-4.7 6.3-2.8 12.6-5.4 18.9-7.2 6.1-2.1 11.9-3.7 16.8-4.9 4.9-1.4 9.1-2.1 12.1-2.8 3.1-.8 4.8-1 4.8-1zm-3.1 9.8s-1.2.5-3 1.4c-2.1.9-4.7 2.3-8.2 4-3.5 1.4-7.2 3.5-11.2 5.8s-8.2 4.9-12.1 7.7c-2.1 1.4-4 2.8-5.8 4.4s-3.5 3.3-5.1 4.9c-.7.9-1.4 1.6-2.1 2.6s-1.4 1.6-1.9 2.6c-1.2 1.6-2.1 3.5-2.8 5.1-.2.9-.7 1.6-.9 2.6-.2.7-.5 1.6-.5 2.3s-.2 1.4-.2 2.1v1.9c0 1.2.2 1.9.2 2.6v.9s0-.2-.2-.9c0-.5-.5-1.4-.5-2.6 0-.5 0-1.2-.2-1.9v-2.1c0-1.6.5-3.3 1.2-5.1.7-1.9 1.4-3.7 2.6-5.6.5-.9 1.2-1.9 1.9-2.8.7-.9 1.4-1.9 2.1-2.8 1.6-1.9 3.3-3.5 5.1-5.1 1.9-1.6 4-3.3 5.8-4.7 4.2-3 8.4-5.6 12.6-7.7s8.2-4 11.7-5.4 6.5-2.3 8.4-3c2-1 3.1-1.2 3.1-1.2zm5.9 19.1s-.5.7-1.4 1.9c-.9 1.2-2.1 3-3.7 5.1-1.6 2.1-3.5 4.4-5.6 7.2-2.1 2.6-4.2 5.4-6.5 8.2-2.1 2.8-4.4 5.6-6.5 8.2-2.1 2.6-4 4.9-5.6 7-.7 1.2-1.4 2.1-2.1 3-.7.9-1.2 1.6-1.4 2.3-.2.7-.5 1.2-.7 1.6 0-.5.2-.9.5-1.9.5-1.4 1.4-3.5 2.8-5.8s3-4.9 4.9-7.7c1.9-2.8 4.2-5.6 6.3-8.2 2.3-2.8 4.4-5.4 6.8-7.9 2.1-2.6 4.2-4.7 6.1-6.8 1.9-1.9 3.5-3.5 4.4-4.7 1-.8 1.7-1.5 1.7-1.5zM423.5 49s-.9 1.9-2.6 4.4c-1.6 2.6-4 5.8-6.5 9.1-2.6 3.3-5.1 6.3-7.2 8.6s-3.7 3.7-3.7 3.7.9-1.9 2.6-4.4c1.6-2.6 4-5.8 6.5-9.1 2.6-3.3 5.1-6.3 7.2-8.6 2.1-2.3 3.7-3.7 3.7-3.7zm13.6 13.5s-.2 1.4-.9 3.3c-.2.9-.7 2.1-1.4 3.3s-1.4 2.3-2.1 3.3c-.9 1.2-1.9 2.1-2.8 2.8-.5.5-1.2.7-1.6 1.2-.5.2-1.2.5-1.6.7-.5.2-.9.2-1.4.2h-1.2c-.7 0-.9-.2-.9-.2s.2 0 .9-.2c.2 0 .7-.2.9-.5.2-.2.7-.2 1.2-.7.5-.2.7-.5 1.2-.9s.9-.7 1.2-1.2c.5-.5.7-.9 1.2-1.4s.7-.9 1.2-1.4c.7-.9 1.6-2.1 2.3-3 .7-.9 1.4-1.9 1.9-2.8.9-1.3 1.9-2.5 1.9-2.5z"/><path class="st15" d="M372.2 121.8s2.8-17.3 3.7-18.2c.9-.9 8.4-7 8.4-7l29.9 11.7 3 15.9-45-2.4zm-82.8 25.9s-58.8 52.3 2.1 100.5c60.7 48.3 108.5 2.6 116.6-15.2 8.2-17.7 9.3-49.7 4.9-63.9l-28.7 21.5-29.4-12.6-5.6-1.6-18.4 2.6-34.5-16.1s-8.4-8.9-6.1-16.3l-.9 1.1z"/><path class="st17" d="M284.3 157s8.2 34.5 38.7 39.7c0 0 16.8 2.6 26.1-13.8 0 0 8.4 20.8 26.4 19.4 18-1.2 39-26.8 39-26.8l-60.9 2.3-9.1-1.9-60.2-18.9z"/><path d="M295.5 130.9s-2.6-10-5.8-11c-3.3-.7-14 4.7-10.5 13.5 3.5 8.9 12.6 11.9 11.2 6.1-1.4-6.1.9-7 3-6.1 2.1 1 2.5-1.6 2.1-2.5z" fill="#b5673b"/><path class="st19" d="M349.1 176.6l-64.9-19.4s12.8 30.8 36.2 35.9c23.3 5.2 28.7-16.5 28.7-16.5z"/><path class="st16" d="M291.5 170.3s-.5.7-1.4 2.1c-.9 1.4-2.1 3.3-3.3 5.6-1.4 2.3-2.8 5.1-4.4 8.2-1.4 3-3 6.3-4.4 9.6-.7 1.6-1.4 3.3-1.9 4.9-.7 1.6-1.2 3.3-1.6 4.9-.5 1.6-.9 3.3-1.4 4.7s-.9 2.8-1.2 4.2c-.2 1.4-.7 2.6-.9 3.5-.2 1.2-.5 2.1-.5 2.8-.2 1.6-.5 2.3-.5 2.3v-2.6c0-.7 0-1.9.2-2.8 0-1.2.2-2.3.5-3.7.2-1.4.5-2.8.7-4.4.2-1.6.7-3.3 1.2-4.9s.9-3.3 1.6-5.1c.7-1.6 1.2-3.5 1.9-5.1s1.4-3.3 2.3-4.9c.7-1.6 1.6-3.3 2.6-4.7 1.6-3 3.5-5.6 5.1-7.9 1.6-2.3 3-4 4.2-5.1.5-.9 1.2-1.6 1.2-1.6zm17.7 21.2s-1.4 3.5-3.5 8.9c-1.2 2.6-2.1 5.8-3.5 9.1-1.2 3.3-2.3 7-3.5 10.5-.7 1.9-1.2 3.7-1.6 5.4-.5 1.9-.9 3.5-1.4 5.4-.5 1.6-.7 3.5-1.2 4.9-.2 1.6-.5 3-.7 4.4-.2 1.4-.2 2.8-.5 4-.2 1.2-.2 2.1-.2 3v2.6s-.2-.9-.5-2.6c0-.9-.2-1.9-.2-3v-4c0-1.4.2-3 .2-4.7.2-1.6.5-3.3.7-5.1.5-1.9.7-3.5 1.2-5.4.5-1.9.9-3.7 1.6-5.6 1.2-3.7 2.3-7.2 3.7-10.5 1.4-3.3 2.8-6.3 4.2-8.9 1.2-2.6 2.6-4.7 3.3-6.1 1.5-1.6 1.9-2.3 1.9-2.3zm37.1 28.3s.2.7.5 1.9c.2 1.2.7 3 1.2 5.1.9 4.2 1.9 10 2.6 15.6.7 5.8 1.4 11.4 1.6 15.9.2 2.1.2 4 .2 5.4v2.1s-.2-.7-.5-1.9c-.2-1.2-.7-3-1.2-5.1-.9-4.2-1.9-10-2.6-15.6-.7-5.8-1.4-11.4-1.6-15.9-.2-2.1-.2-4-.2-5.4v-2.1zm27.3-18.9s.2.9.7 2.6c.5 1.6.9 4.2 1.4 7.2.5 3 .9 6.5 1.2 10.3.2 3.7.2 7.7.2 11.9 0 2.1-.2 4-.5 6.1-.2 1.9-.5 4-.7 5.8-.2 1.9-.7 3.7-1.2 5.4-.5 1.6-.9 3.3-1.4 4.7s-.9 2.8-1.4 3.7c-.5 1.2-.9 2.1-1.4 2.8-.9 1.6-1.4 2.3-1.4 2.3s.2-.9.9-2.6c.2-.9.7-1.9.9-3 .2-1.2.7-2.6.9-4 .2-1.4.7-3 .9-4.7.2-1.6.5-3.5.7-5.4s.2-3.7.5-5.6c0-1.9.2-4 .2-5.8s.2-4 0-5.8V221c0-3.7-.2-7.2-.5-10.3-.2-3-.2-5.4-.5-7.2.5-1.7.5-2.6.5-2.6zm26.4-12.6s1.2 3.5 2.3 8.6c.5 2.6 1.2 5.8 1.4 9.1.5 3.3.7 7 .7 10.7s-.2 7.2-.5 10.7c-.2 1.6-.5 3.3-.7 4.9-.2 1.6-.5 3-.9 4.2-.2 1.4-.7 2.6-.9 3.5-.5.9-.7 1.9-.9 2.8-.5 1.4-.9 2.3-.9 2.3s.2-.9.5-2.3c.2-.7.2-1.6.5-2.8.2-1.2.2-2.3.5-3.7s.2-2.8.5-4.2c.2-1.6.2-3 .5-4.9.2-1.6.2-3.5.2-5.1v-10.8c0-1.9-.2-3.5-.2-5.1-.2-3.3-.5-6.5-.7-9.1s-.5-4.9-.7-6.5c-.7-1.4-.7-2.3-.7-2.3z"/><path class="st19" d="M349.6 176.6l67.4-6.1s-18.7 27.5-42.7 28c-23.8.5-24.7-21.9-24.7-21.9z"/><path class="st17" d="M286.4 229.6l18.2 27.8s12.1 6.1 13.8 6.5c1.6.2 4.2-6.8 4.2-6.8l-32-29.6-4.2 2.1z"/><path class="st12" d="M417.9 156.1s7.7-7 11-5.8 9.1 11.7 1.4 17c-7.9 5.4-17.3 3-12.6-1.2 4.4-4.2 3.3-6.3.7-6.8-2.6-.7-1.2-2.8-.5-3.2zm-129 68.1c-1.2 1.6-2.1 3.3-2.8 5.4l2.8 2.6c-1.1-1.9-.4-5 0-8z"/><path class="st11" d="M383.4 315.4s5.1.9 6.5-30.3.9-46.2.9-46.2-14.7 3.7-17.3 7.9c-2.6 4.2-6.5 25.9-6.5 25.9s-61.8-55.1-67.4-56.9c0 0-6.5 2.6-10.7 8.4-.5 3.3-1.2 6.1 0 7.9l3.5 3.3c8.4 7 19.1 11.9 23.8 22.6l.5.5s-.2 0-.2.2c.2.5.5 1.2.7 1.6-.2-.7-.5-1.2-.7-1.6-1.9 1.2-12.1 7.5-13.1 11.4l7.2 13.3s-9.1 11-9.8 29.9c0 0 34.1 39.2 43.9 32.7l6.3 33.8s42.5-8.2 45.3-18.2l-12.9-46.2z"/><path class="st12" d="M292.4 235.4l23.8 22.6c-4.6-10.7-15.1-15.6-23.8-22.6z"/><path class="st15" d="M315.1 99.9l4.2-15.2 3.3-2.6s32 7.5 33.8 7.5 8.4-2.1 8.4-2.1-7.9 23.6-8.6 24.5l-4.2 4.7-36.9-16.8z"/><path class="st20" d="M345.1 110.1l-6.3-5.1-7.2-3h-7.5l-5.4.7c0 .2-3 3.5-5.4 6.1 11.4 1.9 23.3 5.8 34.8 6.3l-3-5z"/><path class="st21" d="M348.6 115.9l-.5-.7c-11.4-.5-23.3-4.7-34.8-6.3-.5.5-.7.9-1.2 1.2 13.1.7 24.7 4 36.4 7.2v-1.4zm0 8c-13.5-2.1-27.8-4.9-41.1-6.5l-1.6 2.8s0 .5.2 1.4c13.5 2.8 28.2 4.9 42 7.7l.5-5.4z"/><path class="st20" d="M306.2 121.5c.5 2.8 1.6 8.9 1.2 8.9-.5 0 4.7 8.9 4.7 8.9l9.6 5.8 8.6.7s8.2-3 8.4-3c.2-.2 9.1-8.9 9.1-8.9l.5-4.9c-13.9-2.3-28.8-4.7-42.1-7.5zm42.4 1.7v-5.8c-11.7-3.3-23.6-6.5-36.2-7.2-.9.9-1.4 1.6-1.4 1.6l-3.5 5.6c13.3 1.6 27.5 4.4 41.1 6.5v-.7zm60 3.5l-6.1-5.1-7.2-3h-7.5l-5.4.7c0 .2-3 3.5-5.4 6.1 11.4 1.9 23.3 5.8 34.8 6.3l-3.2-5z"/><path class="st21" d="M412.3 132.5l-.5-.7c-11.4-.5-23.3-4.7-34.8-6.3-.5.5-.7.9-1.2 1.2 12.8.7 24.5 4 36.2 7.2l.3-1.4zm0 7.9c-13.5-2.1-27.8-4.9-41.1-6.5l-1.6 2.8s0 .5.2 1.4c13.5 2.8 28.2 4.9 42 7.7l.5-5.4z"/><path class="st20" d="M369.6 138.1c.5 2.8 1.6 8.9 1.2 8.9s4.7 8.9 4.7 8.9l9.6 5.8 8.6.7s8.2-3 8.4-3c.2-.2 9.1-8.9 9.1-8.9l.5-4.9c-13.8-2.6-28.5-4.7-42.1-7.5zm42.7 1.4v-5.8c-11.7-3.3-23.6-6.5-36.2-7.2-.9.9-1.4 1.6-1.4 1.6l-3.5 5.6c13.3 1.6 27.5 4.4 41.1 6.5v-.7z"/><path d="M423.3 134.6s-6.5-2.6-10-3.5c-2.3-5.6-6.5-10.3-12.6-12.6-11.7-4.9-25.2.7-30.1 12.4-.2.2-.2.7-.5.9-7.5-5.4-15.4-4.7-19.6-3.7 1.6-10.3-3.7-21-13.8-25.2-8.2-3.3-17-1.9-23.6 3.5l-10.5-.7 3.7 9.6c-4.9 11.7.7 25.2 12.4 30.1s25.2-.7 30.1-12.4c.2-.5.2-.9.5-1.4 2.6-.7 11.7-2.6 19.6 3.7-2.1 10.5 3.5 21.5 13.8 25.7 11.7 4.9 25.2-.7 30.1-12.4.9-2.3 1.4-4.4 1.6-6.8l8.9-7.2zm-102.9 7.9c-10-4.2-14.9-15.9-10.7-25.9 4.2-10 15.9-14.9 25.9-10.7 10 4.2 14.9 15.9 10.7 25.9s-15.8 14.9-25.9 10.7zm63.9 15.4c-10-4.2-14.9-15.9-10.7-25.9s15.9-14.9 25.9-10.7c10 4.2 14.9 15.9 10.7 25.9-4.2 10.3-15.8 14.9-25.9 10.7z" fill="#3d2611"/><path class="st15" d="M394.1 142.3s-4.2 3.3-15.2-2.1c0 0 1.4-8.9 4-9.3 2.8-.5 4.2 4 2.3 8.6.1 0 8 3 8.9 2.8z"/><path class="st15" d="M394.1 141.8s-.2-1.2-.7-2.6c-.2-.7-.7-1.6-1.2-2.6-.5-.9-.9-1.9-1.6-2.8-.2-.5-.7-.9-1.2-1.4-.5-.5-.9-.7-1.2-1.2-.5-.2-.9-.5-1.4-.7-.5 0-.9-.2-1.4-.2h-1.2c-.3 0-.7.2-.9.2-.5.2-.7.2-.7.2h1.6c.2 0 .7.2.9.2.5.2.7.2 1.2.5.5.2.7.5 1.2.7.5.2.7.5 1.2.9.5.2.7.7 1.2 1.2 1.4 1.6 2.3 3.5 3 4.9 1 1.8 1.2 2.7 1.2 2.7zM319 124.3h1.2s.9-9.1 4.9-7.5c4 1.4 1.9 6.8 1.2 8.9l4.9 1.6s-3.3 2.3-7 1.4c-3.3-1.1-5.2-4.4-5.2-4.4z"/><path class="st15" d="M332.8 127.1s.5-1.2.5-3.3c0-.9.2-2.1 0-3.3-.2-1.2-.7-2.6-1.4-3.5-.5-.5-.9-.9-1.4-1.2s-.9-.5-1.6-.7c-.5 0-1.2-.2-1.6-.2s-.9 0-1.4.2c-.5 0-.9.2-1.2.5-.5.2-.7.5-.9.7l-.7.7s1.2-.7 2.8-.9h1.4c.5 0 .9 0 1.4.2.5 0 .9.2 1.6.5.5.2.9.5 1.4.7.7.7 1.2 1.9 1.4 3 .2 1.2.2 2.3.2 3.3-.3 2.2-.7 3.3-.5 3.3z"/><path class="st23" d="M348.6 153.3c-.2 0-.5.2-.5.5-.2.2-.2.7 0 1.2.5.9 1.4 1.6 2.6 2.1 2.3.9 4.7 1.6 7.2 1.9 1.4 0 4-.2 3.5-2.1-.2-1.2-2.3-2.3-3.3-2.8-2.7-1.8-6.7-2.5-9.5-.8z"/><linearGradient id="SVGID_4_" gradientUnits="userSpaceOnUse" x1="259.326" y1="746.798" x2="255.167" y2="730.537" gradientTransform="rotate(16.645 2131.676 770.838)"><stop offset="0" stop-color="#462a13"/><stop offset="1"/></linearGradient><path d="M344.7 203c-6.5 0-18.9-1.4-18.2-1.2 3.3 1.4 5.4 4.9 6.3 6.8.2.5.5.9.7 1.4 2.6 5.1 7 11.4 7 11.4 5.4-11.9 15.6-9.3 17.3-12.1 1.6-2.8 5.8-5.8 5.8-5.8-4.2-.5-12.2-.8-18.9-.5z" fill="url(#SVGID_4_)"/><path class="st17" d="M338.6 194.8s16.1-2.1 18.4 0c0 0-1.6-3.5-20.1-1.6-18.1 2.1 1.7 1.6 1.7 1.6zm25.4 72.3c.2 0 9.6-20.8 10.5-21.5 1.2-.7-3 18.9-3 18.9l-7.5 2.6z"/><path class="st23" d="M289.9 228.6s3.7-7.2 10.3-9.8c0 0 4.9 6.3 4.4 7.7-.5 1.6-5.4 6.1-6.8 5.8-1.4-.2-7.9-3.7-7.9-3.7z"/><path class="st11" d="M310.9 283.5s-8.9 11.7-8.9 12.6c0 .7 1.6 9.3 1.6 9.3l7.3-21.9z"/><path class="st25" d="M305 317.7s3.5-31.3 22.2-46.7l-10.3-12.6s-12.8 8.2-13.3 11.7l7.2 13.3s-9.1 11-8.9 12.6l.7 4.7s-2.8 10.5-1.9 12.6l4.3 4.4zm85.9-75.1s-15.9-3.5-21.9 30.6l-1.9-.7s4.7-24 6.5-25.9c1.9-1.9 4.4-4.7 17.3-7.9v3.9zm-.5 34.6s.2 32.2-6.8 38.3l8.9 31.5-11.2-29.6c-.2-.4 7.2-15.8 9.1-40.2zm-74.2-28.5s8.6-7.9 9.1-8.2c.7-.4-3.5 7-9.1 8.2z"/><path class="st25" d="M303.6 312.8s32.9 27.8 45.7 27.1l6.8 32-6.1 1.4-5.1-27.5s-6.8 8.6-40.4-28.9l-.9-4.1z"/><path class="st7" d="M407.7 253.8l25 95.2-15.4 5.1 1.2 6.5s-13.8-23.1-14-24c-.1-.9 3.2-82.8 3.2-82.8z"/><path class="st6" d="M298.5 451.2c.2-1.4 66.7-27.3 66.7-27.3l12.1 19.4-73.5 17.5-5.3-9.6z"/><path d="M339.5 366l-4.2-9.6s58.3-19.1 60.9-28.2l5.4 14.9-62.1 22.9z" fill="#fbf7ec"/><path class="st8" d="M399.5 332.9l56 92.2 6.1-62.8-8.7 43.9z"/><path class="st8" d="M399.7 255.2s.2 101.9-6.1 138.3c-6.3 36.6 48.1 23.8 48.1 23.8L411.6 353l18.9-4.4-22.9-94.7-7.9 1.3z"/><path class="st7" d="M397.4 479.4s-15.4 118-25.9 153c0 .3 14-20.9 25.9-153zm-115 139.3l47.4-4.4v6.5l-47.4 1.6zm114.1 28.9l15.9 21c1.4-3-15.9-24.7-15.9-24.7v3.7zm11.2-126.9c0 3-2.6 5.6-5.6 5.6s-5.6-2.6-5.6-5.6 2.6-5.6 5.6-5.6 5.6 2.6 5.6 5.6z"/><path class="st6" d="M335.6 363s52.3-15.6 63.9-30.1l53.4 87.3-54.4 59.3c.1-.1-52.2-74.3-62.9-116.5z"/><path class="st7" d="M398.1 597c0 3-2.6 5.6-5.6 5.6s-5.6-2.6-5.6-5.6 2.6-5.6 5.6-5.6c3.3 0 5.6 2.6 5.6 5.6z"/><path class="st8" d="M256.7 468.5l105.2-46.9 3.3 5.6z"/><path class="st7" d="M365.2 427.2s25.9 42.2 33.4 52.3c0-.1-26.6-34.6-33.4-52.3zM354 375.4c0 2.6-2.1 4.4-4.4 4.4s-4.4-2.1-4.4-4.4c0-2.6 2.1-4.4 4.4-4.4s4.4 1.8 4.4 4.4z"/><linearGradient id="SVGID_5_" gradientUnits="userSpaceOnUse" x1="305.744" y1="1431.713" x2="329.797" y2="1373.782" gradientTransform="translate(0 -734)"><stop offset="0" stop-color="#3a3a39"/><stop offset=".365" stop-color="#373737"/><stop offset=".584" stop-color="#2f2f2e"/><stop offset=".765" stop-color="#212120"/><stop offset=".924" stop-color="#0d0d0c"/><stop offset="1"/></linearGradient><path d="M346.8 801.6l-6.1-77.9 11 5.6 5.4-51.6-33.1-30.8-74.2-17s14.5 90.3 32.9 171.7h64.1z" fill="url(#SVGID_5_)"/></svg>