<?xml version="1.0" encoding="utf-8"?>
<svg version="1.1" id="Layer_1" xmlns="http://www.w3.org/2000/svg" xmlns:xlink="http://www.w3.org/1999/xlink" x="0px" y="0px"
	 viewBox="0 0 699 801.6" style="enable-background:new 0 0 699 801.6;" xml:space="preserve">
<style type="text/css">
	.st0{fill:#D6D0BD;}
	.st1{fill:url(#SVGID_1_);}
	.st2{fill:#1B1B1A;}
	.st3{fill:#232122;}
	.st4{fill:#CFD1D2;}
	.st5{fill:url(#SVGID_2_);}
	.st6{fill:#3A3A39;}
	.st7{fill:#2D2C2B;}
	.st8{fill:#504F4E;}
	.st9{fill:#CD8C60;}
	.st10{fill:#F6EDD9;}
	.st11{fill:#ECB584;}
	.st12{fill:#DB9769;}
	.st13{fill:url(#SVGID_3_);}
	.st14{fill:#78461B;}
	.st15{fill:#5B3617;}
	.st16{fill:#4C2E14;}
	.st17{fill:#462A13;}
	.st18{fill:#B5673B;}
	.st19{fill:#683D19;}
	.st20{opacity:0.69;fill:#E5F3FF;enable-background:new    ;}
	.st21{opacity:0.69;fill:#FFFFFF;enable-background:new    ;}
	.st22{fill:#3D2611;}
	.st23{fill:#F2D2A9;}
	.st24{fill:url(#SVGID_4_);}
	.st25{fill:#E09C6F;}
	.st26{fill:#FBF7EC;}
	.st27{fill:url(#SVGID_5_);}
</style>
<g>
	<polygon class="st0" points="329.8,649.3 368.7,614.3 392.5,680.5 379,682.4 	"/>

		<linearGradient id="SVGID_1_" gradientUnits="userSpaceOnUse" x1="389.8333" y1="1460.9543" x2="408.6665" y2="1415.5957" gradientTransform="matrix(1 0 0 1 0 -734)">
		<stop  offset="0" style="stop-color:#3A3A39"/>
		<stop  offset="0.3647" style="stop-color:#373737"/>
		<stop  offset="0.5839" style="stop-color:#2F2F2E"/>
		<stop  offset="0.7648" style="stop-color:#212120"/>
		<stop  offset="0.9237" style="stop-color:#0D0D0C"/>
		<stop  offset="1" style="stop-color:#000000"/>
	</linearGradient>
	<path class="st1" d="M354.7,801.6h63.5c3.3-51.8,4.4-95,4.4-95l-60.7-34.1l-15.2,15.2c0,0,3.5,35.5,3.5,39.9
		C350.3,741.6,352.1,769.9,354.7,801.6z"/>
	<path class="st2" d="M340.5,723.7c0.7-5.8,1.6-11.4,2.3-17.3l2.6-17.3l1.4-8.6l0.7-4.2l0.2-2.1l0.2-0.9v-0.5l0,0v-0.5l0,0l0,0l0,0
		c0.2-0.2,0.5-0.5,0.9-0.7c0.2,0,0.2,0,0.5,0c0.7,0,0.9,0.2,1.4,0.2s0.7,0.2,1.2,0.5c0.7,0.2,1.4,0.5,2.1,0.9c1.4,0.5,2.8,1.2,4,1.9
		c2.6,1.2,5.4,2.6,7.9,4l0.9,0.5l-0.2,0.9l-7.7,24c-2.8,7.9-5.4,16.1-8.2,24l-0.2,0.5l-0.5-0.2C346.8,726.7,343.7,725.1,340.5,723.7
		z M340.5,723.7c3.3,1.2,6.5,2.6,9.6,4l-0.5,0.2c2.3-8.2,4.7-16.1,7-24.3l7.5-24.3l0.5,1.4l-7.9-4c-1.4-0.7-2.6-1.2-4-1.9
		c-0.7-0.2-1.4-0.5-1.9-0.7c-0.7-0.2-1.4-0.5-1.6-0.5l0,0c0.2,0,0.5-0.2,0.5-0.5l0,0l0,0l0,0c0,0,0.2-0.7,0-0.5v0.2v0.7l-0.2,1.2
		l-0.2,2.1l-0.7,4.2c-0.5,2.8-0.9,5.6-1.4,8.6l-3.3,17C342.8,712.2,341.9,717.8,340.5,723.7z"/>
	<g>
		<path class="st3" d="M342.6,655.6c0,0,46.2,27.1,54.1,24.3l-7.9,11.9c0,0-59.7-29.4-61.6-37.6C325.6,646,342.6,655.6,342.6,655.6z
			"/>
		<polygon class="st4" points="352.6,666.5 354.9,667.7 354.2,668.6 351.7,667 		"/>
		<polygon class="st4" points="354.7,661.2 347.2,672.6 366.1,682.4 372.7,669.3 		"/>
		<polygon class="st3" points="355.4,663 348.9,671.9 365.2,680.5 370.1,670.3 		"/>
	</g>

		<linearGradient id="SVGID_2_" gradientUnits="userSpaceOnUse" x1="360.0462" y1="1337.2108" x2="388.1393" y2="1122.1237" gradientTransform="matrix(1 0 0 1 0 -734)">
		<stop  offset="0" style="stop-color:#3A3A39"/>
		<stop  offset="1" style="stop-color:#000000"/>
	</linearGradient>
	<path class="st5" d="M249.7,629.9c0,0,36.9-43.2,30.8-97.3c-6.1-54.4,136.5-73.3,136.5-73.3l58.8,75.6l-14.2,9.8
		c0,0-18.9,95-42.2,119.2l3.5,44.3c0,0-35.2-13.5-38-20.3c-2.8-7-16.3-58.6-16.3-58.6s-36.2,40.4-46.9,39.7
		C310.6,667.9,249.7,629.9,249.7,629.9z"/>
	<path class="st6" d="M164.3,322.4c0,0,185.9-82.1,363.9-76.3c0,0,40.1,255.9-63.5,301.2c0,0-47.8-40.1-66.3-67.9
		c0,0-66.7,61.1-132,73.3C266.3,552.7,166.7,510.9,164.3,322.4z"/>
	<polygon class="st7" points="270.7,284.9 268.2,285.6 288.2,375.4 312.5,381 300.8,395.9 354.5,430.9 335.6,401.7 	"/>
	<path class="st8" d="M269.8,285.1l11-3.3c0,0,48.8,117.6,96.6,152.6l-7.2,5.4L302,394.3l11.9-15.4l-25-5.4L269.8,285.1z"/>
	<polygon class="st9" points="289.9,242.6 284.3,280.9 354.7,408.5 381.1,248.7 	"/>
	<path class="st10" d="M285.2,263.6l-4.4,18.2c0,0,38.7,115,80,143.2c41.3,28.2,16.1-56.9,16.1-56.9s-85.4-83.8-89.8-105.9
		L285.2,263.6z"/>
	<polygon class="st10" points="392.5,246.8 399.7,255.2 412.3,327.1 396.5,370 383.4,373.7 363.1,291.2 352.4,263.6 372.2,238.9
		"/>
	<path class="st9" d="M375,262.2c0,0-5.1,25.9-5.4,25.9l-24.7-19.8L375,262.2z"/>
	<g>
		<path class="st11" d="M410.7,154c0,0,14.9-11.7,18-10.5c3,0.9,11.7,13.5,6.3,25s-26.6,7.2-26.6,7.2L410.7,154z"/>
		<path class="st12" d="M301.5,130.6c0,0-6.1-18-9.3-18.7c-3-0.7-17.3,4.9-18.9,17.3c-1.6,12.4,18.2,20.8,18.2,20.8L301.5,130.6z"/>
		<path class="st12" d="M314.1,74.2c0,0-5.6,49.2-24.7,73.5l-5.6,39.7l63.7,62.3l60.7-41.8l5.1-33.4c0,0-0.9-55.5,17.7-80.5
			l7.2-17.3l-22.9-20.3l-76.1-22.6l-25.9,18.4L314.1,74.2z"/>
		<path class="st11" d="M412.8,174.3c0,0-0.9-55.5,17.7-80.5l7.2-17.3l-22.9-20.3L382,46.4L376.2,74c0,0-9.6,4.2-11.9,12.1
			S351.9,133,349.3,136c-2.6,3-3,14.9-24.7,14.2c0,0,17.3,21,32,19.6c0.5,0,0.7,0,0.7,0c-0.2,0-0.5,0-0.7,0
			c-1.6,0.2-6.3,1.4-6.8,6.5c-0.9,6.5-15.4,24.3-15.4,24.3l-49-25.2l-1.6,11.7l63.7,62.3l60.7-41.8L412.8,174.3z"/>
		<path class="st12" d="M350.5,134.1c0.2,0.2,14.9-0.9,17.3,3.5c0,0-3,32,32,23.8l-7.2-0.9l-8.6-0.9l-7.5-5.1l-6.3-12.6l0.9-7.9
			l-8.4-4.7L351,129L350.5,134.1z"/>

			<linearGradient id="SVGID_3_" gradientUnits="userSpaceOnUse" x1="163.8808" y1="585.4427" x2="217.7201" y2="585.4427" gradientTransform="matrix(0.8748 0.404 -0.4118 0.8917 435.5834 -466.6812)">
			<stop  offset="0" style="stop-color:#B5673B"/>
			<stop  offset="1" style="stop-color:#4F1306"/>
		</linearGradient>
		<path class="st13" d="M362.9,88.2c0,0-9.1,48.5-16.3,55.8c-7.2,7.5-15.9,7.7-15.9,7.7s14.2,24,43.9,14.2c0,0-29.6,20.3-49.9-15.6
			c0,0,16.8,1.4,22.2-11.2C352.1,126.9,351.2,129.5,362.9,88.2z"/>
		<path class="st12" d="M375.9,103.6c0,0-1.6,0.9-3,6.3c-1.4,5.4-3,13.8-3,13.8l47.4,0.7L375.9,103.6z"/>
		<g>
			<path class="st14" d="M387.6,56.5c-0.9,2.1-4.7,5.1-0.5,7c13.3,7.9,30.8,6.1,40.1-4.4c1.2-1.2,2.1-2.1,2.8-3.5
				C413.7,41.3,396.7,11.2,407,0c0,0-48.1,0.7-80.3,22.4c-0.7,3-0.7,6.1,0.2,8.4C334.2,53,363.1,58.1,387.6,56.5z"/>
			<path class="st15" d="M431.5,56.9c-0.5-0.5-0.9-0.9-1.4-1.2c-0.9,1.2-1.9,2.3-2.8,3.5c-9.1,10.5-26.8,12.4-40.1,4.4
				c-4-1.6-0.2-4.9,0.5-7c-24.5,1.4-53.4-3.7-60.7-25.9c-0.9-2.3-0.9-5.4-0.2-8.4c-6.8,4.7-13.1,10.3-17.7,17c0,0-7.5,21.9,4.7,38
				c0,0,2.3-21.2,8.9-22.4c6.5-1.2,38.3,5.6,53.7,18.9c0,0,43.4,0.9,46.9,3.3c3.5,2.3,6.8,16.1,5.6,19.1l14-11
				C442.7,85.4,448,70.7,431.5,56.9z"/>
			<path class="st16" d="M407,0c0,0-1.6,0.5-4.4,1.4c-2.8,0.7-7,2.1-11.9,3.5c-4.9,1.4-10.5,3.5-16.6,5.6
				c-6.1,2.1-12.4,4.7-18.4,7.5c-3,1.4-6.1,2.8-9.1,4.4c-3,1.6-5.8,3.3-8.4,5.1c-1.4,0.9-2.6,1.9-3.7,2.8c-1.2,0.9-2.3,1.9-3.5,2.8
				c-0.9,0.9-2.1,1.9-3,3c-0.5,0.5-0.9,0.9-1.4,1.4s-0.7,1.2-1.2,1.6c-0.7,0.9-1.2,2.1-1.9,3s-0.7,2.1-1.2,3
				c-0.5,1.9-0.7,3.7-0.7,5.1c0,1.4,0.2,2.6,0.5,3.5c0.2,0.7,0.2,1.2,0.2,1.2s-0.2-0.5-0.5-1.2c-0.2-0.7-0.7-1.9-0.7-3.5
				c-0.2-1.4-0.2-3.3,0.2-5.4c0.5-2.1,1.2-4.4,2.8-6.5c0.5-0.5,0.7-1.2,1.2-1.6s0.9-1.2,1.4-1.6c0.9-1.2,1.9-2.1,3-3.3
				s2.3-2.1,3.5-3c1.2-0.9,2.6-1.9,3.7-2.8c2.6-1.9,5.6-3.7,8.4-5.4c3-1.6,6.1-3.3,9.1-4.7c6.3-2.8,12.6-5.4,18.9-7.2
				c6.1-2.1,11.9-3.7,16.8-4.9c4.9-1.4,9.1-2.1,12.1-2.8C405.3,0.2,407,0,407,0z"/>
			<path class="st16" d="M403.9,9.8c0,0-1.2,0.5-3,1.4c-2.1,0.9-4.7,2.3-8.2,4c-3.5,1.4-7.2,3.5-11.2,5.8s-8.2,4.9-12.1,7.7
				c-2.1,1.4-4,2.8-5.8,4.4s-3.5,3.3-5.1,4.9c-0.7,0.9-1.4,1.6-2.1,2.6s-1.4,1.6-1.9,2.6c-1.2,1.6-2.1,3.5-2.8,5.1
				c-0.2,0.9-0.7,1.6-0.9,2.6c-0.2,0.7-0.5,1.6-0.5,2.3s-0.2,1.4-0.2,2.1s0,1.2,0,1.9c0,1.2,0.2,1.9,0.2,2.6c0,0.5,0,0.9,0,0.9
				s0-0.2-0.2-0.9c0-0.5-0.5-1.4-0.5-2.6c0-0.5,0-1.2-0.2-1.9c0-0.7,0-1.4,0-2.1c0-1.6,0.5-3.3,1.2-5.1c0.7-1.9,1.4-3.7,2.6-5.6
				c0.5-0.9,1.2-1.9,1.9-2.8c0.7-0.9,1.4-1.9,2.1-2.8c1.6-1.9,3.3-3.5,5.1-5.1c1.9-1.6,4-3.3,5.8-4.7c4.2-3,8.4-5.6,12.6-7.7
				s8.2-4,11.7-5.4s6.5-2.3,8.4-3C402.8,10,403.9,9.8,403.9,9.8z"/>
			<path class="st16" d="M409.8,28.9c0,0-0.5,0.7-1.4,1.9c-0.9,1.2-2.1,3-3.7,5.1c-1.6,2.1-3.5,4.4-5.6,7.2
				c-2.1,2.6-4.2,5.4-6.5,8.2c-2.1,2.8-4.4,5.6-6.5,8.2c-2.1,2.6-4,4.9-5.6,7c-0.7,1.2-1.4,2.1-2.1,3c-0.7,0.9-1.2,1.6-1.4,2.3
				c-0.2,0.7-0.5,1.2-0.7,1.6c0,0.5,0,0.7,0,0.7s0-0.2,0-0.7s0.2-0.9,0.5-1.9c0.5-1.4,1.4-3.5,2.8-5.8c1.4-2.3,3-4.9,4.9-7.7
				c1.9-2.8,4.2-5.6,6.3-8.2c2.3-2.8,4.4-5.4,6.8-7.9c2.1-2.6,4.2-4.7,6.1-6.8c1.9-1.9,3.5-3.5,4.4-4.7
				C409.1,29.6,409.8,28.9,409.8,28.9z"/>
			<path class="st16" d="M423.5,49c0,0-0.9,1.9-2.6,4.4c-1.6,2.6-4,5.8-6.5,9.1c-2.6,3.3-5.1,6.3-7.2,8.6s-3.7,3.7-3.7,3.7
				s0.9-1.9,2.6-4.4c1.6-2.6,4-5.8,6.5-9.1c2.6-3.3,5.1-6.3,7.2-8.6C421.9,50.4,423.5,49,423.5,49z"/>
			<path class="st16" d="M437.1,62.5c0,0-0.2,1.4-0.9,3.3c-0.2,0.9-0.7,2.1-1.4,3.3s-1.4,2.3-2.1,3.3c-0.9,1.2-1.9,2.1-2.8,2.8
				c-0.5,0.5-1.2,0.7-1.6,1.2c-0.5,0.2-1.2,0.5-1.6,0.7c-0.5,0.2-0.9,0.2-1.4,0.2s-0.7,0-1.2,0c-0.7,0-0.9-0.2-0.9-0.2
				s0.2,0,0.9-0.2c0.2,0,0.7-0.2,0.9-0.5c0.2-0.2,0.7-0.2,1.2-0.7c0.5-0.2,0.7-0.5,1.2-0.9s0.9-0.7,1.2-1.2c0.5-0.5,0.7-0.9,1.2-1.4
				s0.7-0.9,1.2-1.4c0.7-0.9,1.6-2.1,2.3-3c0.7-0.9,1.4-1.9,1.9-2.8C436.1,63.7,437.1,62.5,437.1,62.5z"/>
		</g>
		<path class="st15" d="M372.2,121.8c0,0,2.8-17.3,3.7-18.2c0.9-0.9,8.4-7,8.4-7l29.9,11.7l3,15.9L372.2,121.8z"/>
		<path class="st15" d="M289.4,147.7c0,0-58.8,52.3,2.1,100.5c60.7,48.3,108.5,2.6,116.6-15.2c8.2-17.7,9.3-49.7,4.9-63.9
			l-28.7,21.5L354.9,178l-5.6-1.6l-18.4,2.6l-34.5-16.1c0,0-8.4-8.9-6.1-16.3L289.4,147.7z"/>
		<path class="st17" d="M284.3,157c0,0,8.2,34.5,38.7,39.7c0,0,16.8,2.6,26.1-13.8c0,0,8.4,20.8,26.4,19.4c18-1.2,39-26.8,39-26.8
			l-60.9,2.3l-9.1-1.9L284.3,157z"/>
		<path class="st18" d="M295.5,130.9c0,0-2.6-10-5.8-11c-3.3-0.7-14,4.7-10.5,13.5c3.5,8.9,12.6,11.9,11.2,6.1c-1.4-6.1,0.9-7,3-6.1
			C295.5,134.4,295.9,131.8,295.5,130.9z"/>
		<path class="st19" d="M349.1,176.6l-64.9-19.4c0,0,12.8,30.8,36.2,35.9C343.7,198.3,349.1,176.6,349.1,176.6z"/>
		<path class="st16" d="M291.5,170.3c0,0-0.5,0.7-1.4,2.1c-0.9,1.4-2.1,3.3-3.3,5.6c-1.4,2.3-2.8,5.1-4.4,8.2c-1.4,3-3,6.3-4.4,9.6
			c-0.7,1.6-1.4,3.3-1.9,4.9c-0.7,1.6-1.2,3.3-1.6,4.9c-0.5,1.6-0.9,3.3-1.4,4.7s-0.9,2.8-1.2,4.2c-0.2,1.4-0.7,2.6-0.9,3.5
			c-0.2,1.2-0.5,2.1-0.5,2.8c-0.2,1.6-0.5,2.3-0.5,2.3s0-0.9,0-2.6c0-0.7,0-1.9,0.2-2.8c0-1.2,0.2-2.3,0.5-3.7
			c0.2-1.4,0.5-2.8,0.7-4.4c0.2-1.6,0.7-3.3,1.2-4.9s0.9-3.3,1.6-5.1c0.7-1.6,1.2-3.5,1.9-5.1s1.4-3.3,2.3-4.9
			c0.7-1.6,1.6-3.3,2.6-4.7c1.6-3,3.5-5.6,5.1-7.9c1.6-2.3,3-4,4.2-5.1C290.8,171,291.5,170.3,291.5,170.3z"/>
		<path class="st16" d="M309.2,191.5c0,0-1.4,3.5-3.5,8.9c-1.2,2.6-2.1,5.8-3.5,9.1c-1.2,3.3-2.3,7-3.5,10.5
			c-0.7,1.9-1.2,3.7-1.6,5.4c-0.5,1.9-0.9,3.5-1.4,5.4c-0.5,1.6-0.7,3.5-1.2,4.9c-0.2,1.6-0.5,3-0.7,4.4c-0.2,1.4-0.2,2.8-0.5,4
			c-0.2,1.2-0.2,2.1-0.2,3c0,1.6,0,2.6,0,2.6s-0.2-0.9-0.5-2.6c0-0.9-0.2-1.9-0.2-3s0-2.6,0-4s0.2-3,0.2-4.7
			c0.2-1.6,0.5-3.3,0.7-5.1c0.5-1.9,0.7-3.5,1.2-5.4c0.5-1.9,0.9-3.7,1.6-5.6c1.2-3.7,2.3-7.2,3.7-10.5c1.4-3.3,2.8-6.3,4.2-8.9
			c1.2-2.6,2.6-4.7,3.3-6.1C308.8,192.2,309.2,191.5,309.2,191.5z"/>
		<path class="st16" d="M346.3,219.8c0,0,0.2,0.7,0.5,1.9c0.2,1.2,0.7,3,1.2,5.1c0.9,4.2,1.9,10,2.6,15.6c0.7,5.8,1.4,11.4,1.6,15.9
			c0.2,2.1,0.2,4,0.2,5.4c0,1.2,0,2.1,0,2.1s-0.2-0.7-0.5-1.9c-0.2-1.2-0.7-3-1.2-5.1c-0.9-4.2-1.9-10-2.6-15.6
			c-0.7-5.8-1.4-11.4-1.6-15.9c-0.2-2.1-0.2-4-0.2-5.4S346.3,219.8,346.3,219.8z"/>
		<path class="st16" d="M373.6,200.9c0,0,0.2,0.9,0.7,2.6c0.5,1.6,0.9,4.2,1.4,7.2c0.5,3,0.9,6.5,1.2,10.3c0.2,3.7,0.2,7.7,0.2,11.9
			c0,2.1-0.2,4-0.5,6.1c-0.2,1.9-0.5,4-0.7,5.8c-0.2,1.9-0.7,3.7-1.2,5.4c-0.5,1.6-0.9,3.3-1.4,4.7s-0.9,2.8-1.4,3.7
			c-0.5,1.2-0.9,2.1-1.4,2.8c-0.9,1.6-1.4,2.3-1.4,2.3s0.2-0.9,0.9-2.6c0.2-0.9,0.7-1.9,0.9-3c0.2-1.2,0.7-2.6,0.9-4
			c0.2-1.4,0.7-3,0.9-4.7c0.2-1.6,0.5-3.5,0.7-5.4s0.2-3.7,0.5-5.6c0-1.9,0.2-4,0.2-5.8s0.2-4,0-5.8c0-1.9,0-4,0-5.8
			c0-3.7-0.2-7.2-0.5-10.3c-0.2-3-0.2-5.4-0.5-7.2C373.6,201.8,373.6,200.9,373.6,200.9z"/>
		<path class="st16" d="M400,188.3c0,0,1.2,3.5,2.3,8.6c0.5,2.6,1.2,5.8,1.4,9.1c0.5,3.3,0.7,7,0.7,10.7s-0.2,7.2-0.5,10.7
			c-0.2,1.6-0.5,3.3-0.7,4.9c-0.2,1.6-0.5,3-0.9,4.2c-0.2,1.4-0.7,2.6-0.9,3.5c-0.5,0.9-0.7,1.9-0.9,2.8c-0.5,1.4-0.9,2.3-0.9,2.3
			s0.2-0.9,0.5-2.3c0.2-0.7,0.2-1.6,0.5-2.8c0.2-1.2,0.2-2.3,0.5-3.7s0.2-2.8,0.5-4.2c0.2-1.6,0.2-3,0.5-4.9
			c0.2-1.6,0.2-3.5,0.2-5.1s0-3.5,0-5.4s0-3.5,0-5.4s-0.2-3.5-0.2-5.1c-0.2-3.3-0.5-6.5-0.7-9.1s-0.5-4.9-0.7-6.5
			C400,189.2,400,188.3,400,188.3z"/>
		<path class="st19" d="M349.6,176.6l67.4-6.1c0,0-18.7,27.5-42.7,28C350.5,199,349.6,176.6,349.6,176.6z"/>
		<path class="st17" d="M286.4,229.6l18.2,27.8c0,0,12.1,6.1,13.8,6.5c1.6,0.2,4.2-6.8,4.2-6.8l-32-29.6L286.4,229.6z"/>
		<path class="st12" d="M417.9,156.1c0,0,7.7-7,11-5.8s9.1,11.7,1.4,17c-7.9,5.4-17.3,3-12.6-1.2c4.4-4.2,3.3-6.3,0.7-6.8
			C415.8,158.6,417.2,156.5,417.9,156.1z"/>
		<path class="st12" d="M288.9,224.2c-1.2,1.6-2.1,3.3-2.8,5.4l2.8,2.6C287.8,230.3,288.5,227.2,288.9,224.2z"/>
		<path class="st11" d="M383.4,315.4c0,0,5.1,0.9,6.5-30.3s0.9-46.2,0.9-46.2s-14.7,3.7-17.3,7.9c-2.6,4.2-6.5,25.9-6.5,25.9
			s-61.8-55.1-67.4-56.9c0,0-6.5,2.6-10.7,8.4c-0.5,3.3-1.2,6.1,0,7.9l3.5,3.3c8.4,7,19.1,11.9,23.8,22.6l0.5,0.5c0,0-0.2,0-0.2,0.2
			c0.2,0.5,0.5,1.2,0.7,1.6c-0.2-0.7-0.5-1.2-0.7-1.6c-1.9,1.2-12.1,7.5-13.1,11.4l7.2,13.3c0,0-9.1,11-9.8,29.9
			c0,0,34.1,39.2,43.9,32.7l6.3,33.8c0,0,42.5-8.2,45.3-18.2L383.4,315.4z"/>
		<path class="st12" d="M292.4,235.4l23.8,22.6C311.6,247.3,301.1,242.4,292.4,235.4z"/>
		<path class="st15" d="M315.1,99.9l4.2-15.2l3.3-2.6c0,0,32,7.5,33.8,7.5s8.4-2.1,8.4-2.1s-7.9,23.6-8.6,24.5l-4.2,4.7L315.1,99.9z
			"/>
		<g>
			<g>
				<path class="st20" d="M345.1,110.1l-6.3-5.1l-7.2-3h-7.5l-5.4,0.7c0,0.2-3,3.5-5.4,6.1c11.4,1.9,23.3,5.8,34.8,6.3L345.1,110.1z
					"/>
				<path class="st21" d="M348.6,115.9l-0.5-0.7c-11.4-0.5-23.3-4.7-34.8-6.3c-0.5,0.5-0.7,0.9-1.2,1.2c13.1,0.7,24.7,4,36.4,7.2
					V115.9z"/>
				<path class="st21" d="M348.6,123.9c-13.5-2.1-27.8-4.9-41.1-6.5l-1.6,2.8c0,0,0,0.5,0.2,1.4c13.5,2.8,28.2,4.9,42,7.7
					L348.6,123.9z"/>
				<path class="st20" d="M306.2,121.5c0.5,2.8,1.6,8.9,1.2,8.9c-0.5,0,4.7,8.9,4.7,8.9l9.6,5.8l8.6,0.7c0,0,8.2-3,8.4-3
					c0.2-0.2,9.1-8.9,9.1-8.9l0.5-4.9C334.4,126.7,319.5,124.3,306.2,121.5z"/>
				<path class="st20" d="M348.6,123.2v-5.8c-11.7-3.3-23.6-6.5-36.2-7.2c-0.9,0.9-1.4,1.6-1.4,1.6l-3.5,5.6
					c13.3,1.6,27.5,4.4,41.1,6.5V123.2z"/>
			</g>
			<g>
				<path class="st20" d="M408.6,126.7l-6.1-5.1l-7.2-3h-7.5l-5.4,0.7c0,0.2-3,3.5-5.4,6.1c11.4,1.9,23.3,5.8,34.8,6.3L408.6,126.7z
					"/>
				<path class="st21" d="M412.3,132.5l-0.5-0.7c-11.4-0.5-23.3-4.7-34.8-6.3c-0.5,0.5-0.7,0.9-1.2,1.2c12.8,0.7,24.5,4,36.2,7.2
					L412.3,132.5z"/>
				<path class="st21" d="M412.3,140.4c-13.5-2.1-27.8-4.9-41.1-6.5l-1.6,2.8c0,0,0,0.5,0.2,1.4c13.5,2.8,28.2,4.9,42,7.7
					L412.3,140.4z"/>
				<path class="st20" d="M369.6,138.1c0.5,2.8,1.6,8.9,1.2,8.9s4.7,8.9,4.7,8.9l9.6,5.8l8.6,0.7c0,0,8.2-3,8.4-3
					c0.2-0.2,9.1-8.9,9.1-8.9l0.5-4.9C397.9,143,383.2,140.9,369.6,138.1z"/>
				<path class="st20" d="M412.3,139.5v-5.8c-11.7-3.3-23.6-6.5-36.2-7.2c-0.9,0.9-1.4,1.6-1.4,1.6l-3.5,5.6
					c13.3,1.6,27.5,4.4,41.1,6.5V139.5z"/>
			</g>
			<path class="st22" d="M423.3,134.6c0,0-6.5-2.6-10-3.5c-2.3-5.6-6.5-10.3-12.6-12.6c-11.7-4.9-25.2,0.7-30.1,12.4
				c-0.2,0.2-0.2,0.7-0.5,0.9c-7.5-5.4-15.4-4.7-19.6-3.7c1.6-10.3-3.7-21-13.8-25.2c-8.2-3.3-17-1.9-23.6,3.5l-10.5-0.7l3.7,9.6
				l0,0c-4.9,11.7,0.7,25.2,12.4,30.1s25.2-0.7,30.1-12.4c0.2-0.5,0.2-0.9,0.5-1.4c2.6-0.7,11.7-2.6,19.6,3.7
				c-2.1,10.5,3.5,21.5,13.8,25.7c11.7,4.9,25.2-0.7,30.1-12.4c0.9-2.3,1.4-4.4,1.6-6.8L423.3,134.6z M320.4,142.5
				c-10-4.2-14.9-15.9-10.7-25.9c4.2-10,15.9-14.9,25.9-10.7c10,4.2,14.9,15.9,10.7,25.9S330.5,146.7,320.4,142.5z M384.3,157.9
				c-10-4.2-14.9-15.9-10.7-25.9s15.9-14.9,25.9-10.7c10,4.2,14.9,15.9,10.7,25.9C406,157.5,394.4,162.1,384.3,157.9z"/>
		</g>
		<g>
			<path class="st15" d="M394.1,142.3c0,0-4.2,3.3-15.2-2.1c0,0,1.4-8.9,4-9.3c2.8-0.5,4.2,4,2.3,8.6
				C385.3,139.5,393.2,142.5,394.1,142.3z"/>
			<path class="st15" d="M394.1,141.8c0,0-0.2-1.2-0.7-2.6c-0.2-0.7-0.7-1.6-1.2-2.6c-0.5-0.9-0.9-1.9-1.6-2.8
				c-0.2-0.5-0.7-0.9-1.2-1.4c-0.5-0.5-0.9-0.7-1.2-1.2c-0.5-0.2-0.9-0.5-1.4-0.7c-0.5,0-0.9-0.2-1.4-0.2s-0.9,0-1.2,0
				s-0.7,0.2-0.9,0.2c-0.5,0.2-0.7,0.2-0.7,0.2l0,0c0,0,0.2,0,0.7,0c0.2,0,0.5,0,0.9,0c0.2,0,0.7,0.2,0.9,0.2
				c0.5,0.2,0.7,0.2,1.2,0.5c0.5,0.2,0.7,0.5,1.2,0.7c0.5,0.2,0.7,0.5,1.2,0.9c0.5,0.2,0.7,0.7,1.2,1.2c1.4,1.6,2.3,3.5,3,4.9
				C393.9,140.9,394.1,141.8,394.1,141.8L394.1,141.8z"/>
		</g>
		<g>
			<path class="st15" d="M319,124.3h1.2c0,0,0.9-9.1,4.9-7.5c4,1.4,1.9,6.8,1.2,8.9l4.9,1.6c0,0-3.3,2.3-7,1.4
				C320.9,127.6,319,124.3,319,124.3z"/>
			<path class="st15" d="M332.8,127.1c0,0,0.5-1.2,0.5-3.3c0-0.9,0.2-2.1,0-3.3c-0.2-1.2-0.7-2.6-1.4-3.5c-0.5-0.5-0.9-0.9-1.4-1.2
				s-0.9-0.5-1.6-0.7c-0.5,0-1.2-0.2-1.6-0.2s-0.9,0-1.4,0.2c-0.5,0-0.9,0.2-1.2,0.5c-0.5,0.2-0.7,0.5-0.9,0.7
				c-0.5,0.5-0.7,0.7-0.7,0.7l0,0c0,0,1.2-0.7,2.8-0.9c0.5,0,0.9,0,1.4,0s0.9,0,1.4,0.2c0.5,0,0.9,0.2,1.6,0.5
				c0.5,0.2,0.9,0.5,1.4,0.7c0.7,0.7,1.2,1.9,1.4,3c0.2,1.2,0.2,2.3,0.2,3.3C333,126,332.6,127.1,332.8,127.1L332.8,127.1z"/>
		</g>
		<path class="st23" d="M348.6,153.3c-0.2,0-0.5,0.2-0.5,0.5c-0.2,0.2-0.2,0.7,0,1.2c0.5,0.9,1.4,1.6,2.6,2.1
			c2.3,0.9,4.7,1.6,7.2,1.9c1.4,0,4-0.2,3.5-2.1c-0.2-1.2-2.3-2.3-3.3-2.8C355.4,152.3,351.4,151.6,348.6,153.3z"/>

			<linearGradient id="SVGID_4_" gradientUnits="userSpaceOnUse" x1="259.3264" y1="746.7985" x2="255.1665" y2="730.5372" gradientTransform="matrix(0.9581 0.2865 -0.2865 0.9581 310.1623 -578.4271)">
			<stop  offset="0" style="stop-color:#462A13"/>
			<stop  offset="1" style="stop-color:#000000"/>
		</linearGradient>
		<path class="st24" d="M344.7,203c-6.5,0-18.9-1.4-18.2-1.2c3.3,1.4,5.4,4.9,6.3,6.8c0.2,0.5,0.5,0.9,0.7,1.4l0,0l0,0
			c2.6,5.1,7,11.4,7,11.4c5.4-11.9,15.6-9.3,17.3-12.1c1.6-2.8,5.8-5.8,5.8-5.8C359.4,203,351.4,202.7,344.7,203z"/>
		<path class="st17" d="M338.6,194.8c0,0,16.1-2.1,18.4,0c0,0-1.6-3.5-20.1-1.6C318.8,195.3,338.6,194.8,338.6,194.8z"/>
		<path class="st17" d="M364,267.1c0.2,0,9.6-20.8,10.5-21.5c1.2-0.7-3,18.9-3,18.9L364,267.1z"/>
		<path class="st23" d="M289.9,228.6c0,0,3.7-7.2,10.3-9.8c0,0,4.9,6.3,4.4,7.7c-0.5,1.6-5.4,6.1-6.8,5.8
			C296.4,232.1,289.9,228.6,289.9,228.6z"/>
		<path class="st11" d="M310.9,283.5c0,0-8.9,11.7-8.9,12.6c0,0.7,1.6,9.3,1.6,9.3L310.9,283.5z"/>
		<path class="st25" d="M305,317.7c0,0,3.5-31.3,22.2-46.7l-10.3-12.6c0,0-12.8,8.2-13.3,11.7l7.2,13.3c0,0-9.1,11-8.9,12.6l0.7,4.7
			c0,0-2.8,10.5-1.9,12.6L305,317.7z"/>
		<path class="st25" d="M390.9,242.6c0,0-15.9-3.5-21.9,30.6l-1.9-0.7c0,0,4.7-24,6.5-25.9c1.9-1.9,4.4-4.7,17.3-7.9V242.6z"/>
		<path class="st25" d="M390.4,277.2c0,0,0.2,32.2-6.8,38.3l8.9,31.5l-11.2-29.6C381.1,317,388.5,301.6,390.4,277.2z"/>
		<path class="st25" d="M316.2,248.7c0,0,8.6-7.9,9.1-8.2C326,240.1,321.8,247.5,316.2,248.7z"/>
		<path class="st25" d="M303.6,312.8c0,0,32.9,27.8,45.7,27.1l6.8,32l-6.1,1.4l-5.1-27.5c0,0-6.8,8.6-40.4-28.9L303.6,312.8z"/>
	</g>
	<path class="st7" d="M407.7,253.8l25,95.2l-15.4,5.1l1.2,6.5c0,0-13.8-23.1-14-24C404.4,335.7,407.7,253.8,407.7,253.8z"/>
	<path class="st6" d="M298.5,451.2c0.2-1.4,66.7-27.3,66.7-27.3l12.1,19.4l-73.5,17.5L298.5,451.2z"/>
	<path class="st26" d="M339.5,366l-4.2-9.6c0,0,58.3-19.1,60.9-28.2l5.4,14.9L339.5,366z"/>
	<polygon class="st8" points="399.5,332.9 455.5,425.1 461.6,362.3 452.9,406.2 	"/>
	<path class="st8" d="M399.7,255.2c0,0,0.2,101.9-6.1,138.3c-6.3,36.6,48.1,23.8,48.1,23.8L411.6,353l18.9-4.4l-22.9-94.7
		L399.7,255.2z"/>
	<path class="st7" d="M397.4,479.4c0,0-15.4,118-25.9,153C371.5,632.7,385.5,611.5,397.4,479.4z"/>
	<polygon class="st7" points="282.4,618.7 329.8,614.3 329.8,620.8 282.4,622.4 	"/>
	<path class="st7" d="M396.5,647.6l15.9,21c1.4-3-15.9-24.7-15.9-24.7V647.6z"/>
	<path class="st7" d="M407.7,520.7c0,3-2.6,5.6-5.6,5.6s-5.6-2.6-5.6-5.6s2.6-5.6,5.6-5.6S407.7,517.7,407.7,520.7z"/>
	<path class="st6" d="M335.6,363c0,0,52.3-15.6,63.9-30.1l53.4,87.3l-54.4,59.3C398.6,479.4,346.3,405.2,335.6,363z"/>
	<path class="st7" d="M398.1,597c0,3-2.6,5.6-5.6,5.6s-5.6-2.6-5.6-5.6s2.6-5.6,5.6-5.6C395.8,591.4,398.1,594,398.1,597z"/>
	<polygon class="st8" points="256.7,468.5 361.9,421.6 365.2,427.2 	"/>
	<path class="st7" d="M365.2,427.2c0,0,25.9,42.2,33.4,52.3C398.6,479.4,372,444.9,365.2,427.2z"/>
	<path class="st7" d="M354,375.4c0,2.6-2.1,4.4-4.4,4.4s-4.4-2.1-4.4-4.4c0-2.6,2.1-4.4,4.4-4.4S354,372.8,354,375.4z"/>

		<linearGradient id="SVGID_5_" gradientUnits="userSpaceOnUse" x1="305.7438" y1="1431.7133" x2="329.7969" y2="1373.7823" gradientTransform="matrix(1 0 0 1 0 -734)">
		<stop  offset="0" style="stop-color:#3A3A39"/>
		<stop  offset="0.3647" style="stop-color:#373737"/>
		<stop  offset="0.5839" style="stop-color:#2F2F2E"/>
		<stop  offset="0.7648" style="stop-color:#212120"/>
		<stop  offset="0.9237" style="stop-color:#0D0D0C"/>
		<stop  offset="1" style="stop-color:#000000"/>
	</linearGradient>
	<path class="st27" d="M346.8,801.6l-6.1-77.9l11,5.6l5.4-51.6l-33.1-30.8l-74.2-17c0,0,14.5,90.3,32.9,171.7H346.8z"/>
</g>
</svg>
