<svg xmlns="http://www.w3.org/2000/svg" style="isolation:isolate" width="198.5" height="257.8"><defs><clipPath id="_clipPath_69kQscnt8so2GwTSkxXNUvVg8D3pmOjd"><path d="M0 0h198.5v257.8H0z"/></clipPath></defs><g clip-path="url(#_clipPath_69kQscnt8so2GwTSkxXNUvVg8D3pmOjd)"><clipPath id="_clipPath_r4JkavOS0o4U24Bsj8yV8i5oRjCoHJ01"><path fill="#FFF" d="M0 0h198.5v257.8H0z"/></clipPath><g clip-path="url(#_clipPath_r4JkavOS0o4U24Bsj8yV8i5oRjCoHJ01)"><path d="M29.039 228.711c-38.714-38.714-38.714-101.575 0-140.289 38.714-38.713 101.575-38.713 140.289 0 38.714 38.714 38.714 101.575 0 140.289-38.714 38.714-101.575 38.714-140.289 0z" fill="#FF5722"/><path d="M180.8 118.9c-2.4-2.5-6.2-2.2-9.6-2.7-.1.1-.2.1-.3.2 0 0 1.5 10.1-.3 13.5-1.3 2.5 8.1 1.1 13.2.2 1.7-3.7 1.7-7.5-3-11.2z" fill="#ECB584"/><path d="M184.5 117.8c.1-.9-10.9-2.8-13.4-1.5 3.4.5 7.3.2 9.6 2.7 4.7 3.7 4.7 7.5 2.9 11.2 1.8-.3 3.1-.6 3.1-.6s-2.3-10.9-2.2-11.8z" fill="#DB9769"/><path d="M178 69.3c-.1-.2-.6-.2-1.2 0 1.5 2.3 2.5 4.8 3 7.4-.6-3.7-1.5-6.9-1.8-7.4z" fill="#ECB584"/><path d="M180.2 80.3c-.1-1.2-.2-2.4-.4-3.6-.5-2.6-1.5-5.1-3-7.4-2.2.6-6.5 3.1-6.5 3.1 4.8 15.6 1.6 25.9 1.6 25.9l-3.4 2.2s-.2.5-.4 1.3c.1 0 .1 0 .2-.1 7.6-4.2 12.1-12.9 11.9-21.4z" fill="#ECB584"/><path d="M183.4 94.3s-4.5-.2-5.2-.7c-.7-.5 1.5-2.6 2-8.8.1-1.4.1-3 0-4.5.2 8.5-4.3 17.2-11.8 21.5-.1 0-.1 0-.2.1-.6 2.4-1.7 7.5-1.3 11 .6 4.8 11.7 4.9 11.7 4.9 9.7 4.1 13.2-4.3 13.2-4.3l3-6.6-11.4-12.6z" fill="#DB9769"/><path d="M171.9 98.3s7.1-2.9 7.5-2.8c.4.1 3 3.7.2 10.9l-2.6.7-1.6-3.8 1.3 4.8s3.6 2.1 2.9 5.1c-.7 3-3.7 4.4-3.7 4.4s-8.6-.7-9.2-4.7c-.6-4 1.7-12.4 1.7-12.4l3.5-2.2zm10.8-4.3s.6 10.1-1.3 13.4c0 0-.1 2.5 4.3 3.3 0 0 7-5.8 5.6-15.8-.1 0-4-1.9-8.6-.9z" fill="#ECB584"/><path d="M196.2 100s-.2 9.7-7 12.9c0 0-3.1-1.4-3-2.6.1-1.2 5.2-13.4 5.2-13.4s2.6.3 4.8 3.1z" fill="#ECB584"/><path d="M195.4 101.5l1.6 1.2s1.5 6.2-5.2 11.9c0 0-2.1-.6-2.5-1.8-.4-1.2 6.1-11.3 6.1-11.3z" fill="#ECB584"/><path d="M191.4 96.8s0 7-5.2 13.4c0 0 3.9-2.8 4.7-7.1.9-4.3.5-6.3.5-6.3zm4.6 5.6s-1.1 7.5-6.7 10.4c0 .1 5-.7 6.7-10.4z" fill="#DB9769"/><path d="M104.4 85.7c0-.5 3.7-8.9 7.7-6.1 4.1 2.8 4.4 14.1-4.1 15.4-8.5 1.3-3.6-9.3-3.6-9.3z" fill="#ECB584"/><path d="M107.2 84c.1-.2 2.8-3.1 4.1-2.9 1.3.2 4.8 5.2 1 8.9s-3.8-.2-2.3-2.6c1.4-2.4-3.8-1-2.8-3.4zm-40.7 5.2s-5.5-6-8.8-1.7c-3.3 4.3-2.6 9.3 7.8 12.5 10.4 3.2 1-10.8 1-10.8z" fill="#DB9769"/><path d="M64.2 89.5s-4.5-3.3-5.5-.9-1.7 5.5 2.2 7.9c4 2.4 3.2-.1 1.4-2.3-1.8-2.2-1.7-4.8.3-3.1 2 1.7 2.3-1.1 1.6-1.6z" fill="#B5673B"/><path d="M61.9 70.6s4.7 16.5 2.3 26.7c-2.4 10.2 34.6 14.2 35.1 14.2s10.6-13.3 10.6-13.3l-.4-6.8s-6.4-12-5.4-29.9-17.9-10.8-17.9-10.8l-23.5 9.9-3.3 2.9 2.5 7.1z" fill="#DB9769"/><path d="M109.4 91.4s-6.4-12-5.4-29.9-17.9-10.8-17.9-10.8l-6 2.5c1.4 3.9 2.6 7.8 2.6 7.8s-6.9-1.5-5.6 1.1c1.3 2.6 2.1 5.6 2.1 5.6L81.8 82l.2 7.3.1 2.1-1.7 2.8-3.4 1.9 4.8 3.3 6.3-.5-.9 3.7-14.7 3c10.3 4.1 26.5 5.8 26.8 5.8.5 0 10.6-13.3 10.6-13.3l-.5-6.7z" fill="#ECB584"/><path d="M81.2 83.4s4.7-1.3 5.3-.5c0 0 5 12.4 15.6 2.4L98 87.6l-2.6.4-2.4-.5-3-1.6-2.6-4.3-2.4-1.1-3.8 1.4v1.5z" fill="#DB9769"/><path d="M101.9 132.5c3.6-2.3 5.9-5.8 7.3-9.7l-.4-3.2-38.6 6.1.3 3.8c7.9 8.1 21.1 9.4 31.4 3z" fill="#C68960"/><path d="M101.9 132.5c-10.3 6.4-23.5 5.1-31.4-3l.8 11.6 1 1.5c8.5 7.1 16.8 14.6 24.1 23.4 3.7-10.8 9-20.8 14.4-30.6l.1-.6-1.7-12.1c-1.4 4.1-3.7 7.5-7.3 9.8z" fill="#DB9769"/><path d="M96.4 166.1c-7.3-8.9-15.6-16.3-24.1-23.4 4.7 7 23.8 35.6 24.3 35.2.6-.4 11.7-6.4 11.7-6.4l1.4-29.4 1.1-6.6c-5.4 9.8-10.7 19.8-14.4 30.6z" fill="#C68960"/><path d="M63.9 96.6s-6.8 12.8-.5 24.7c6.3 11.9 20.6 13.8 28.9 12.5 8.3-1.3 19.4-7.2 22.3-19.5 2.9-12.2-5.2-23-5.2-23l-5.3 11-22.2 1-18-6.7zm15-32.4s1 7.4.3 8.4-14.4 1.7-14.4 1.7v-5.2s12.4-3 12.8-3.8c.4-.8 1.3-1.1 1.3-1.1z" fill="#5B3617"/><linearGradient id="_lgradient_0" x1=".013" y1=".497" x2="1.01" y2=".532" gradientTransform="matrix(19.7 0 0 33.207 75.4 67.2)" gradientUnits="userSpaceOnUse"><stop offset="0%" stop-color="#b5673b"/><stop offset="100%" stop-color="#4f1306"/></linearGradient><path d="M79.3 67.2s4.2 20.5 2.8 24.1c-1.4 3.6-4.4 5-4.4 5s8.6 6.1 17.4-1.6c0 0-7.2 11.3-19.7 2.1 0 0 6.1-2 6-7.1 0-5 0-6.7-2.1-22.5z" fill="url(#_lgradient_0)"/><path d="M84.3 53.6c0 .8-.9 2.4.8 2.4 5.6.9 11.3-2.2 13-7 .2-.5.4-1 .5-1.5-7.4-2.7-17.3-10.5-15.4-15.7 0 0-16.2 6.7-24.1 18.5.2 1.1.6 2.1 1.2 2.8 5.4 6.5 15.9 4.3 24 .5z" fill="#78461B"/><path d="M99.2 47.7c-.2-.1-.4-.1-.7-.2-.1.5-.3 1-.5 1.5-1.7 4.8-7.4 7.9-13 7-1.6 0-.8-1.6-.8-2.4-8.1 3.8-18.6 6-24.1-.5-.7-.7-1-1.7-1.2-2.8-1.7 2.5-3 5.2-3.7 8.2 0 0 .2 8.3 6.6 12.2 0 0-1.9-7.4.2-8.7 2-1.3 13.7-3.3 20.7-.9 0 0 14.8-5.6 16.3-5.3 1.5.3 4.9 4.5 4.9 5.7l2.8-5.6c.1 0 0-5.8-7.5-8.2z" fill="#5B3617"/><path d="M75.5 76.5l-2.8-.9-2.8-.1-2.5 1-1.7 1c0 .1-.6 1.6-1 2.8 4.2-.9 8.7-1.1 12.7-2.5l-1.9-1.3z" fill="#E5F3FF" opacity=".69"/><path d="M77.5 78l-.2-.2c-3.9 1.3-8.5 1.5-12.7 2.5-.1.2-.1.4-.2.6 4.4-1.4 8.9-1.9 13.3-2.4l-.2-.5zm1 2.8c-4.9 1.1-10.1 2-14.8 3.3l-.2 1.2s.1.2.3.4c4.9-.9 10.3-2.1 15.3-3l-.6-1.9z" fill="#FFF" opacity=".69"/><path d="M63.8 85.6c.6.9 1.7 2.8 1.6 2.8-.1.1 2.8 2.4 2.8 2.4l4 .7 3-.9s2.4-2.1 2.5-2.2c.1-.1 1.9-4.2 1.9-4.2l-.5-1.7c-5.1 1.1-10.4 2.3-15.3 3.1zm14.7-5.1l-.8-2c-4.4.5-8.8.9-13.3 2.4-.2.4-.3.7-.3.7l-.4 2.4c4.8-1.2 9.9-2.1 14.8-3.3v-.2zm20.8-6.8l-2.8-.9-2.8-.1-2.5 1-1.7 1c0 .1-.6 1.6-1 2.8 4.2-.9 8.7-1.1 12.7-2.5l-1.9-1.3z" fill="#E5F3FF" opacity=".69"/><path d="M101.3 75.1l-.2-.2c-3.9 1.3-8.5 1.5-12.7 2.5-.1.2-.1.4-.2.6 4.4-1.4 8.9-1.9 13.3-2.4l-.2-.5zm1.1 2.8c-4.9 1.1-10.1 2-14.8 3.3l-.2 1.2s.1.2.3.4c4.9-.9 10.3-2.1 15.3-3l-.6-1.9z" fill="#FFF" opacity=".69"/><path d="M87.6 82.8c.6.9 1.7 2.8 1.6 2.8-.1.1 2.8 2.4 2.8 2.4l4 .7 3-.9s2.4-2.1 2.5-2.2c.1-.1 1.9-4.2 1.9-4.2l-.5-1.7c-5 1-10.4 2.2-15.3 3.1zm14.7-5.2l-.8-2c-4.4.5-8.8.9-13.3 2.4-.2.4-.3.7-.3.7l-.4 2.4c4.8-1.2 9.9-2.1 14.8-3.3v-.2z" fill="#E5F3FF" opacity=".69"/><path d="M105.4 74.4s-2.6 0-3.9.1c-1.5-1.6-3.6-2.6-5.9-2.6-4.6-.1-8.5 3.6-8.6 8.2v.4c-3.2-.8-5.9.5-7.2 1.3-.8-3.7-4.1-6.6-8.1-6.7-3.2-.1-6 1.7-7.5 4.3l-3.7 1.2 2.6 2.7c-.1 4.6 3.6 8.5 8.2 8.6 4.6.1 8.5-3.6 8.6-8.2v-.6c.8-.6 3.6-2.5 7.1-1.4.7 3.9 4 6.8 8.1 6.9 4.6.1 8.5-3.6 8.6-8.2 0-.9-.1-1.7-.3-2.5l2-3.5zm-34 16.4c-4-.1-7.1-3.4-7.1-7.4.1-4 3.4-7.1 7.4-7.1 4 .1 7.1 3.4 7.1 7.4-.1 4-3.4 7.2-7.4 7.1zm23.8-3.2c-4-.1-7.1-3.4-7.1-7.4.1-4 3.4-7.1 7.4-7.1 4 .1 7.1 3.4 7.1 7.4s-3.4 7.2-7.4 7.1z" fill="#5B3617"/><path d="M69 81.7s2.1-2.2 3.1-1.1 1.8 6-.2 6.1c-2 .1-1.9-4.9-1.9-4.9l-1-.1zm24.3-3.1s2.1-2.2 3.1-1.1 1.8 6-.2 6.1c-2 .1-1.9-4.9-1.9-4.9l-1-.1z" fill="#5B3617"/><path d="M82.9 95.4c-.1.2-.1.5.1.6.1 0 .2.1.3.1.6.1 1.1.2 1.7.2.6 0 1.3 0 1.9-.1 1.9-.4 1.8-1.8 0-2.2-1.4-.3-3.6 0-4 1.4z" fill="#F2D2A9"/><path d="M83.1 31.8s-.5.4-1.4 1.1c-.9.7-2.1 1.7-3.5 2.8-1.5 1.2-3.1 2.6-4.9 4.2-1.7 1.5-3.6 3.3-5.2 5.1-.9.9-1.7 1.8-2.5 2.8-.8.9-1.5 1.9-2.2 2.8-.3.5-.6 1-.9 1.4-.3.5-.5 1-.8 1.4-.2.5-.5.9-.6 1.4-.1.2-.2.5-.2.7-.1.2-.1.5-.2.7-.1.4-.1.9-.2 1.3s0 .8 0 1.2c.1.7.3 1.4.5 1.9s.5.8.6 1.1c.2.2.2.4.2.4l-.3-.3c-.2-.2-.5-.5-.7-1-.3-.5-.5-1.1-.7-1.9-.1-.8-.2-1.7 0-2.6 0-.2.1-.5.1-.7.1-.2.1-.5.2-.7.1-.5.4-1 .6-1.5.2-.5.5-1 .7-1.5l.9-1.5c.7-1 1.4-2 2.2-2.9.8-1 1.6-1.9 2.5-2.8 1.7-1.8 3.6-3.5 5.4-5 1.8-1.5 3.5-2.9 5-4s2.8-2 3.7-2.6c1.2-1 1.7-1.3 1.7-1.3zm.3 3.7l-.9.9c-.6.6-1.3 1.4-2.2 2.4-.9 1-1.9 2.2-3 3.5-1 1.3-2.1 2.8-3.1 4.3-.5.8-.9 1.5-1.3 2.3-.4.8-.8 1.6-1.1 2.3-.2.4-.3.8-.4 1.2-.1.4-.2.8-.3 1.1-.2.7-.3 1.5-.2 2.1v1c0 .3 0 .6.1.9.1.3.1.5.2.7.1.2.2.4.2.6.1.4.3.6.4.8.2.3.2.4.2.4s-.1-.1-.2-.3c-.1-.2-.3-.4-.5-.8l-.3-.6c-.1-.2-.2-.5-.3-.7-.2-.5-.3-1.2-.3-1.9s0-1.5.1-2.2c.1-.4.2-.8.2-1.2.1-.4.2-.8.4-1.2.3-.8.6-1.6 1.1-2.5.4-.8.9-1.6 1.4-2.4 1-1.5 2.1-3 3.2-4.3 1.1-1.3 2.2-2.4 3.2-3.4s1.8-1.7 2.4-2.2c.7-.5 1-.8 1-.8zm4.6 5.7s-.1.3-.2.9c-.2.5-.3 1.3-.6 2.3-.3.9-.6 2-.9 3.2-.3 1.2-.7 2.4-1.1 3.6-.4 1.2-.7 2.5-1.1 3.6-.3 1.2-.7 2.2-.9 3.2-.1.5-.2.9-.3 1.3-.1.4-.1.7-.2 1v.6c0 .1.1.2.1.2s0-.1-.1-.2c0-.1-.1-.4-.1-.7 0-.6 0-1.4.2-2.4s.4-2.1.7-3.3c.3-1.2.6-2.4 1-3.7.4-1.2.8-2.5 1.2-3.6.4-1.1.8-2.2 1.1-3.1.3-.9.7-1.6.9-2.2.2-.4.3-.7.3-.7zm7.4 5s-.1.8-.3 1.9c-.2 1.1-.6 2.6-1 4s-.9 2.9-1.3 3.9c-.4 1.1-.7 1.7-.7 1.7s.1-.8.3-1.9c.2-1.1.6-2.6 1-4s.9-2.9 1.3-3.9c.4-1.1.7-1.7.7-1.7zm6.4 2.7s.1.5.2 1.2v1.3c0 .5-.1 1-.3 1.4-.1.5-.3 1-.6 1.4-.1.2-.3.4-.4.6-.1.2-.3.3-.4.5-.1.1-.3.2-.4.3-.1.1-.3.1-.4.2-.2.1-.3.1-.3.1s.1-.1.3-.2c.1-.1.2-.1.3-.3.1-.1.2-.2.3-.4.1-.2.2-.3.3-.5l.3-.6c.1-.2.2-.4.2-.6.1-.2.1-.4.2-.7.1-.4.2-.9.3-1.3l.3-1.2c0-.7.1-1.2.1-1.2z" fill="#4C2E14"/><path d="M87.6 60.3s.8 7.4 2.1 7.8c1.3.4 13-1 13-1v-.7l-3.6-2.3-11.5-3.8z" fill="#DB9769"/><path d="M87.1 60.4s1.1 6.8 2.3 7.1c1.2.3 12.9-1.1 12.9-1.1l-.5-5.8c-.2.1-13.9.3-14.7-.2z" fill="#5B3617"/><path d="M68.6 99.5s-.2.3-.5 1c-.3.6-.6 1.6-1 2.7s-.8 2.4-1.2 3.9c-.4 1.4-.7 3-1 4.5-.3 1.5-.5 3.1-.5 4.6-.1 1.5-.1 2.8 0 4 .1 1.2.2 2.2.3 2.8.3.6.3 1 .3 1s-.2-.4-.4-1c-.2-.7-.5-1.6-.6-2.8-.2-1.2-.3-2.6-.3-4.1 0-1.5.2-3.1.5-4.7s.7-3.1 1.1-4.6c.4-1.4 1-2.7 1.4-3.8.5-1.1.9-2 1.3-2.6.2-.3.3-.5.4-.7.2-.2.2-.3.2-.2zm8.6 3.8s-.1.4-.4 1.2c-.2.8-.5 1.9-.9 3.2-.4 1.3-.7 2.9-1.1 4.5-.4 1.7-.7 3.4-1 5.2-.3 1.8-.5 3.6-.5 5.3v2.4c0 .8.1 1.5.2 2.2 0 .3.1.7.2 1 .1.3.1.6.2.9.1.5.3 1 .4 1.4.1.4.3.7.3.9.1.2.1.3.1.3s-.1-.1-.2-.3c-.1-.2-.3-.4-.4-.8-.2-.4-.4-.8-.5-1.3-.2-.5-.4-1.1-.5-1.8-.1-.7-.2-1.4-.3-2.2-.1-.8-.1-1.6-.1-2.5 0-1.7.2-3.6.4-5.4.1-.9.3-1.8.5-2.7.2-.9.4-1.7.6-2.6.4-1.7.9-3.2 1.4-4.5.4-1.3.9-2.4 1.2-3.1.2-.9.4-1.3.4-1.3zm9.7 1.8s0 .5.1 1.2c0 .8.1 1.9.2 3.3 0 1.4.1 3 .2 4.7 0 1.7.1 3.5.1 5.3v5.3c0 1.7-.1 3.3-.1 4.7 0 1.4-.1 2.5-.1 3.3 0 .8-.1 1.2-.1 1.2s0-.5-.1-1.2c0-.8-.1-1.9-.2-3.3 0-1.4-.1-3-.2-4.7 0-1.7-.1-3.5-.1-5.3v-5.3c0-1.7.1-3.3.1-4.7 0-1.4.1-2.5.1-3.3 0-.8.1-1.2.1-1.2zm11.3-2.5l.3 1.2c.2.8.5 1.9.8 3.2.3 1.3.6 2.9.9 4.6.1.8.3 1.7.4 2.6l.3 2.7c.1.9.2 1.8.2 2.7.1.9.1 1.8.1 2.6 0 .9 0 1.7-.1 2.5 0 .8-.1 1.5-.2 2.2 0 .7-.2 1.3-.3 1.9-.1.3-.1.5-.1.8-.1.2-.1.4-.2.6-.2.8-.4 1.2-.4 1.2s.1-.4.2-1.2c0-.2.1-.4.1-.6 0-.2 0-.5.1-.8 0-.6.1-1.2.1-1.8 0-.7.1-1.4 0-2.2 0-.8 0-1.6-.1-2.4-.1-1.7-.2-3.5-.4-5.3-.2-1.8-.4-3.6-.6-5.3-.2-1.7-.4-3.3-.6-4.6-.2-2.8-.5-4.6-.5-4.6zm8.6-7.1s.6 1.5 1.4 3.9c.4 1.2.8 2.6 1.2 4.1.4 1.5.8 3.1 1.1 4.8.3 1.6.6 3.3.8 4.8.1.8.2 1.5.2 2.2 0 .7.1 1.4.1 2v1.7c0 .5 0 1-.1 1.3-.1.7-.1 1.1-.1 1.1s0-.4-.1-1.1c0-.4 0-.8-.1-1.3s-.1-1.1-.2-1.7c-.1-.6-.2-1.3-.3-2-.1-.7-.2-1.4-.3-2.2-.3-1.5-.6-3.2-.9-4.8-.2-.8-.3-1.6-.5-2.4-.2-.8-.3-1.6-.5-2.3-.3-1.5-.7-2.9-1-4.1-.3-2.4-.7-4-.7-4z" fill="#4C2E14"/><path d="M63.9 96.6s5.2 17.7 18.7 13.7c0 0 4.3-1.3 5-5.1 0 0 4.2 7.1 12.9 2.8s8.8-14.4 8.8-14.4l-22.1 9.2s-6 1-6.4 1.1c-.4.2-16.9-7.3-16.9-7.3z" fill="#462A13"/><path d="M63.9 96.6l23.3 6.2s.8 6.6-8.8 6.9c-9.6.4-14.5-13.1-14.5-13.1z" fill="#683D19"/><path d="M109.4 93.2l-22.2 9.4s.1 6.6 9.6 5.6c9.5-.9 12.6-15 12.6-15z" fill="#683D19"/><clipPath id="_clipPath_HuxpxKw3Ap2EXVKNOO9Av4Lm9l3nO8go"><circle vector-effect="non-scaling-stroke" cx="99.3" cy="158.6" r="99.2" fill="#FFF"/></clipPath><g clip-path="url(#_clipPath_HuxpxKw3Ap2EXVKNOO9Av4Lm9l3nO8go)"><path d="M101.5 265.2L98.7 287l20.5-1.7-9.1-21-8.6.9z" fill="#D6D0BD"/></g><clipPath id="_clipPath_H6crVmaxFbSON988o1P5aiMppdyNq26v"><circle vector-effect="non-scaling-stroke" cx="99.3" cy="158.6" r="99.2" fill="#FFF"/></clipPath><g clip-path="url(#_clipPath_H6crVmaxFbSON988o1P5aiMppdyNq26v)"><linearGradient id="_lgradient_1" x1=".533" y1=".543" x2=".587" y2="-.199" gradientTransform="matrix(69.217 0 0 140.6 61.083 284)" gradientUnits="userSpaceOnUse"><stop offset="0%" stop-color="#3a3a39"/><stop offset="100%"/></linearGradient><path d="M130.3 287.9s-2.1 65.7-3.6 68.7-60.6 66-60.6 66l-1.5 2s-3.8-5.7-3.5-6.2c.3-.5 1.7-.3 1.7-.3S94.6 368 99 365.4c4.4-2.6 14.8-5.8 15.3-9.2.6-3.4-7.8-51.8-7.8-51.8l-2.4-17.7 9.8-2.7 16.4 3.9z" fill="url(#_lgradient_1)"/></g><clipPath id="_clipPath_GAQTpGTJwiK5ZgOkRu7ygdrk5gLs0UKb"><circle vector-effect="non-scaling-stroke" cx="99.3" cy="158.6" r="99.2" fill="#FFF"/></clipPath><g clip-path="url(#_clipPath_GAQTpGTJwiK5ZgOkRu7ygdrk5gLs0UKb)"><linearGradient id="_lgradient_2" x1=".458" y1=".49" x2=".483" y2="-.33" gradientTransform="matrix(30.4 0 0 152.3 76.8 284.7)" gradientUnits="userSpaceOnUse"><stop offset="0%" stop-color="#3a3a39"/><stop offset="100%"/></linearGradient><path d="M78 316.6s7.9 34 11.1 38.7c3.2 4.7 3 4.8 2.9 6 0 1.2-5.3 21.2-4.3 25.9 1 4.6 11.5 48.1 11.5 48.1v1.6l3.5.1 2.1-132.5 2.4.1-1.5-18.2-1.9 1.1-5.9-2.8-21.1 9.2 1.2 22.7z" fill="url(#_lgradient_2)"/></g><clipPath id="_clipPath_H5MyqLBLlZBa1BFHY5u1QDUQd8ofuAAW"><circle vector-effect="non-scaling-stroke" cx="99.3" cy="158.6" r="99.2" fill="#FFF"/></clipPath><g clip-path="url(#_clipPath_H5MyqLBLlZBa1BFHY5u1QDUQd8ofuAAW)"><path d="M104.9 288.2c.1 1.4.1 2.7.2 4.1.1 1.4.1 2.7.1 4.1 0 1.4.1 2.7.1 4.1v4.1l-.4-.4h1.7l-.3.1c.6-.8 1.3-1.6 1.9-2.4l-.1.2.2-7.3.2-3.7c.1-1.2.1-2.4.2-3.7l.2.2c-1.4.2-2.7.4-4 .6zm0 0c1.3-.3 2.6-.6 4-.9h.2v7.6l-.1 7.3v.1l-.1.1c-.6.8-1.3 1.6-1.9 2.4l-.1.1h-2.3v-4.5c0-1.4 0-2.7.1-4.1 0-1.4 0-2.7.1-4.1 0-1.3 0-2.7.1-4z" fill="#232122"/></g><clipPath id="_clipPath_nccVjr34JwcDdg21PpjBnp1rbDIo5YEp"><circle vector-effect="non-scaling-stroke" cx="99.3" cy="158.6" r="99.2" fill="#FFF"/></clipPath><g clip-path="url(#_clipPath_nccVjr34JwcDdg21PpjBnp1rbDIo5YEp)"><path d="M99.8 284.9s16.1-.5 17.7-2.3l-.1 3.9s-20 1.9-21.7.3c-1.8-1.6 4.1-1.9 4.1-1.9z" fill="#232122"/><path d="M103.8 284.4l-.1 3.7 6.5-.4-.5-4-5.9.7z" fill="#CFD1D2"/><path d="M104.3 284.7l-.2 3 5.5-.4-.4-3-4.9.4z" fill="#232122"/><path d="M104.1 286l.8-.1v.3h-.9l.1-.2z" fill="#CFD1D2"/></g><clipPath id="_clipPath_AqWNi5x0BfuVWie9bOSy24QPFd6gtx5r"><circle vector-effect="non-scaling-stroke" cx="99.3" cy="158.6" r="99.2" fill="#FFF"/></clipPath><g clip-path="url(#_clipPath_AqWNi5x0BfuVWie9bOSy24QPFd6gtx5r)"><path d="M102.8 436.9l1.7 3.7v2l-7.7-.2s-.7-1.7 0-2c.7-.3 2.4-3.6 2.4-3.6l3.6.1z"/></g><clipPath id="_clipPath_h7Ob5MT891TnXHIu5GTdQIBjzYNu9WHt"><circle vector-effect="non-scaling-stroke" cx="99.3" cy="158.6" r="99.2" fill="#FFF"/></clipPath><g clip-path="url(#_clipPath_h7Ob5MT891TnXHIu5GTdQIBjzYNu9WHt)"><path d="M62.8 418.1s-.8 2.8 2.8 5.1c0 0 .5 11 .4 13.4 0 2.4 2.4 1.8 3.9 2.4 1.5.7.5 2.8.5 2.8l-6.3-.1-5.1-13.5 1.2-4.4-2.2.6-1-3.5c-.1.1 2.6-3.4 5.8-2.8z"/></g><clipPath id="_clipPath_D89OiBmeCPrVxYevZsDWanegtgolScji"><circle vector-effect="non-scaling-stroke" cx="99.3" cy="158.6" r="99.2" fill="#FFF"/></clipPath><g clip-path="url(#_clipPath_D89OiBmeCPrVxYevZsDWanegtgolScji)"><path d="M167.2 128.5l.1-3.6s18.8-1 22.4-2.4l-.1 4.7-22.4 1.3z" fill="#F6EDD9"/></g><clipPath id="_clipPath_leF6Rt0j76E5uY6LSJEcHueGJeUHHfgr"><circle vector-effect="non-scaling-stroke" cx="99.3" cy="158.6" r="99.2" fill="#FFF"/></clipPath><g clip-path="url(#_clipPath_leF6Rt0j76E5uY6LSJEcHueGJeUHHfgr)"><path d="M76.6 300.5l7.3 2.6-6.7 12.1-4.8-4 4.2-10.7z" fill="#DB9769"/></g><clipPath id="_clipPath_od4GemVzK1jA1QBZrhUMvBdeJAwnFegU"><circle vector-effect="non-scaling-stroke" cx="99.3" cy="158.6" r="99.2" fill="#FFF"/></clipPath><g clip-path="url(#_clipPath_od4GemVzK1jA1QBZrhUMvBdeJAwnFegU)"><path d="M69.3 311.8l1.4 1.7s7-9.2 6.7-13.7l-2.3-3.2-6.4 11.9.6 3.3z" fill="#F6EDD9"/></g><clipPath id="_clipPath_tFGz0EF7PGCQaKtjh292etHm36I0znGr"><circle vector-effect="non-scaling-stroke" cx="99.3" cy="158.6" r="99.2" fill="#FFF"/></clipPath><g clip-path="url(#_clipPath_tFGz0EF7PGCQaKtjh292etHm36I0znGr)"><path d="M119.5 138.2l33.4 26.3 11.3 28.7 1.8-66.5s17.7.2 24.4-2.4c0 0 7.9 105-17.5 118.4 0 0-15.6 4.5-37-35.4 0 0-6.1 11.2-6.4 12.4-.3 1.2.8 68.2.8 68.2s-12.7 2.2-17.1-1.1l-6.9-13.5-6.8 16.4s-18.3 8-22.6 4.1L71 229.9l-10.1-15.4S50.1 252 47.7 255.3c-2.4 3.3 27.6 41.2 27.6 41.2s-.5 9.7-6.8 16.2c0 0-39.9-35.7-45.3-52.9 0 0 7.3-77.3 8.1-78.4.8-1 30.5-35 33.9-36.2 34.5 97.9 59.2 10 54.3-7z" fill="#3A3A39"/></g><clipPath id="_clipPath_ifIg20bMTvm3CtRHCnYmaLDjWDC556vp"><circle vector-effect="non-scaling-stroke" cx="99.3" cy="158.6" r="99.2" fill="#FFF"/></clipPath><g clip-path="url(#_clipPath_ifIg20bMTvm3CtRHCnYmaLDjWDC556vp)"><path d="M81.7 148.4l-11.1-14.8-1.1 7.3 2.7 23.8s25.1 60.4 31 61.6c.1 0 9.1-34.5 12.8-60.4.1-.8-1.2-37.4-1.2-29.8l-5.2-9.9-6.3 21.3-7.1 23.1-14.5-22.2z" fill="#F6EDD9"/></g><clipPath id="_clipPath_NeSZlkVkVcHTJnOsHKB95bDjBfN9eGIb"><circle vector-effect="non-scaling-stroke" cx="99.3" cy="158.6" r="99.2" fill="#FFF"/></clipPath><g clip-path="url(#_clipPath_NeSZlkVkVcHTJnOsHKB95bDjBfN9eGIb)"><path d="M65.1 145.3S61.6 160.1 69 182l6-.7-4.8 5.3S90 216 102.4 226.3l-22.7-35.8-2.2-15.7-12.4-29.5z" fill="#2D2C2B"/></g><clipPath id="_clipPath_GZjKGOYKef3kErchB0nxW6OkOzenbcft"><circle vector-effect="non-scaling-stroke" cx="99.3" cy="158.6" r="99.2" fill="#FFF"/></clipPath><g clip-path="url(#_clipPath_GZjKGOYKef3kErchB0nxW6OkOzenbcft)"><path d="M119.9 138.5s.1.3.3 1c.8 3.1 5.7 14.2 5.4 32.8l-7.5 1.5 6.1 4.8s-11.2 37.9-20.7 47l6.9-19.2 5.7-38.8 3.8-29.1z" fill="#2D2C2B"/></g><clipPath id="_clipPath_uRgdn2hvBMYkCSB6xhmJg2TCXGAT7sVm"><circle vector-effect="non-scaling-stroke" cx="99.3" cy="158.6" r="99.2" fill="#FFF"/></clipPath><g clip-path="url(#_clipPath_uRgdn2hvBMYkCSB6xhmJg2TCXGAT7sVm)"><path d="M74.8 161.9s2.9-12.3 4.1-13c1.2-.7 2.1-1.1 2.8.1.7 1.2 14.7 22.3 14.7 22.3s-11.9-15.4-13.7-15.9c-1.9-.6-3.9-2.9-7.9 6.5z" fill="#D9D3BF"/></g><clipPath id="_clipPath_ZNXnHVTg8yd14WsTjgiqDAeg4V9ium3Z"><circle vector-effect="non-scaling-stroke" cx="99.3" cy="158.6" r="99.2" fill="#FFF"/></clipPath><g clip-path="url(#_clipPath_ZNXnHVTg8yd14WsTjgiqDAeg4V9ium3Z)"><path d="M97 170.7c-.2.4 6.7-22.7 7.2-23.1.5-.4 3.6-1.5 3.9-.7.3.8 6.5 11.4 6.5 11.4s-3.9-5.6-6.1-5.9c-2.1-.4-8.7 11.4-11.5 18.3z" fill="#D9D3BF"/></g><clipPath id="_clipPath_uAbGW1KoCDsBNWj7KxBg8SDBpPBaunyv"><circle vector-effect="non-scaling-stroke" cx="99.3" cy="158.6" r="99.2" fill="#FFF"/></clipPath><g clip-path="url(#_clipPath_uAbGW1KoCDsBNWj7KxBg8SDBpPBaunyv)"><path d="M69.5 140.9s10.8 52.5 33.4 86.1c0 0-24.3-26-31.8-40.8l6.6-6.3-8.6.6s-5.1-21.2-3.9-35.1l4.3-4.5z" fill="#504F4E"/></g><clipPath id="_clipPath_0y4kLajzcuGn8kpgywEs3Yb1tV8CFbVy"><circle vector-effect="non-scaling-stroke" cx="99.3" cy="158.6" r="99.2" fill="#FFF"/></clipPath><g clip-path="url(#_clipPath_0y4kLajzcuGn8kpgywEs3Yb1tV8CFbVy)"><path d="M113.8 134c-.1-.2-5 78.3-10.9 92.9 0 0 13.9-17.7 20.6-48.5l-7.5-5.3 8.4-1.4s-2.1-25.4-4.4-33.2l-6.2-4.5z" fill="#504F4E"/></g><clipPath id="_clipPath_wrdYCAu9xwEEpwhG3BvK1A5mbyKh0dhf"><circle vector-effect="non-scaling-stroke" cx="99.3" cy="158.6" r="99.2" fill="#FFF"/></clipPath><g clip-path="url(#_clipPath_wrdYCAu9xwEEpwhG3BvK1A5mbyKh0dhf)"><path d="M102.3 226.9c4.5 36.1 4.5 36.1 4.1 46.3 0 0 1.7-1.1.2-16.1-1.5-15-3.6-30.2-3.6-30.2h-.7z" fill="#2D2C2B"/></g><clipPath id="_clipPath_rcYHKu0N2IGtDndaFbVwJXwNR5ryVbzA"><circle vector-effect="non-scaling-stroke" cx="99.3" cy="158.6" r="99.2" fill="#FFF"/></clipPath><g clip-path="url(#_clipPath_rcYHKu0N2IGtDndaFbVwJXwNR5ryVbzA)"><path d="M79.7 269.8s14.6-4.9 15.1-5.8v2.2s-11.3 4.5-15.1 4.8v-1.2z" fill="#2D2C2B"/></g><clipPath id="_clipPath_1D3wWJo4G6AE79lkh6XSIYAbRzOAFVjH"><circle vector-effect="non-scaling-stroke" cx="99.3" cy="158.6" r="99.2" fill="#FFF"/></clipPath><g clip-path="url(#_clipPath_1D3wWJo4G6AE79lkh6XSIYAbRzOAFVjH)"><path d="M128.7 268.2s-12.8-5.5-13.2-6.4v2.2s9.9 5 13.2 5.4v-1.2z" fill="#2D2C2B"/></g><clipPath id="_clipPath_6pNvNg72Sw14ihCaSkdH5JZbBNM0BwVv"><circle vector-effect="non-scaling-stroke" cx="99.3" cy="158.6" r="99.2" fill="#FFF"/></clipPath><g clip-path="url(#_clipPath_6pNvNg72Sw14ihCaSkdH5JZbBNM0BwVv)"><path d="M111 233.3c0 1.1-1 2-2.1 2s-2-1-2-2.1 1-2 2.1-2 2 .9 2 2.1z" fill="#2D2C2B"/></g><clipPath id="_clipPath_O9XTr1OItSwhzosrpg60v7E1XfzC5lRC"><circle vector-effect="non-scaling-stroke" cx="99.3" cy="158.6" r="99.2" fill="#FFF"/></clipPath><g clip-path="url(#_clipPath_O9XTr1OItSwhzosrpg60v7E1XfzC5lRC)"><path d="M188.4 131.2c0 1.1-1 2-2.1 2s-2-1-2-2.1 1-2 2.1-2c1.2 0 2.1 1 2 2.1z" fill="#2D2C2B"/></g><clipPath id="_clipPath_0Ub7kmyhCZWdSYIRtHiQeTzuAxMVoq85"><circle vector-effect="non-scaling-stroke" cx="99.3" cy="158.6" r="99.2" fill="#FFF"/></clipPath><g clip-path="url(#_clipPath_0Ub7kmyhCZWdSYIRtHiQeTzuAxMVoq85)"><path d="M112.5 259c0 1.1-1 2-2.1 2s-2-1-2-2.1 1-2 2.1-2c1.2 0 2.1 1 2 2.1z" fill="#2D2C2B"/></g><clipPath id="_clipPath_MPdVQW5vPKZAVy10pzNKgc68bgAFktgL"><circle vector-effect="non-scaling-stroke" cx="99.3" cy="158.6" r="99.2" fill="#FFF"/></clipPath><g clip-path="url(#_clipPath_MPdVQW5vPKZAVy10pzNKgc68bgAFktgL)"><path d="M77.2 315.2c0-.1 7.2-11.4 7-16.8 0 0 2.1 2.4-6.2 18.1l-.8-1.3z" fill="#2D2C2B"/></g><clipPath id="_clipPath_txb5PyiUU7HS7m8ya96IpHmy2HdDYbOV"><circle vector-effect="non-scaling-stroke" cx="99.3" cy="158.6" r="99.2" fill="#FFF"/></clipPath><g clip-path="url(#_clipPath_txb5PyiUU7HS7m8ya96IpHmy2HdDYbOV)"><path d="M96.4 170.6l6.5 55.5"/></g><clipPath id="_clipPath_USzFHbg2U0sDJYLH46ajtnc5a4kscBcm"><circle vector-effect="non-scaling-stroke" cx="99.3" cy="158.6" r="99.2" fill="#FFF"/></clipPath><g clip-path="url(#_clipPath_USzFHbg2U0sDJYLH46ajtnc5a4kscBcm)"><path d="M100.6 171.8c0 .6-.4 1-.9 1s-.9-.5-.9-1.1c0-.6.4-1 .9-1s.9.5.9 1.1z" fill="#D9D3BF"/></g><clipPath id="_clipPath_albe2p2BxkWBNskPP8JrCV5KL2Q6mHjw"><circle vector-effect="non-scaling-stroke" cx="99.3" cy="158.6" r="99.2" fill="#FFF"/></clipPath><g clip-path="url(#_clipPath_albe2p2BxkWBNskPP8JrCV5KL2Q6mHjw)"><path d="M103.9 193.7c0 .6-.4 1-.9 1s-.9-.5-.9-1.1c0-.6.4-1 .9-1 .5.1.9.5.9 1.1z" fill="#D9D3BF"/></g><path d="M169.213 52.153l11.4.5s-1.2-3.2 0-4.9c1.2-1.7 2.2-2.5 3.1-3.4.9-.9 7.2-10.4 5.5-17-1.7-6.6-4-11.4-18-13.8 0 0-6.2 1-10.6 9.5-4.4 8.5-3.7 13.3 1.9 18.8 5.7 5.6 7.1 4.7 6.7 10.3z" fill="#F2D231"/><path d="M180.013 57.953c-1.3 0-3.5-.2-5.7-.4 3.7.1 7.6-.2 7.7-.8.1-.9.8-2.9-2.2-2.8-2.9.1-10.3-1.3-11.9-.3 0 0-2 2 .7 3.1.5.2 1.3.4 2.3.5-1.2 0-2.2 0-2.7.3 0 0-2 2 .7 3.1.3.1.7.2 1.2.3-.7 0-1.3.1-1.6.4 0 0-1.8 2 .6 3.1.6.3 1.7.5 3 .6 0 0 .4 2.3 3.7 1.9 3.2-.3 2.8-2 2.8-2 1.5-.2 2.7-.4 2.7-.7.1-.9.7-2.9-1.9-2.8-.7 0-1.6 0-2.7-.1 3 0 5.6-.3 5.7-.8-.2-.7.5-2.7-2.4-2.6zm-11.8-5.6l.4.2c.3.2.9.3 1.7.3 3.1.3 8.8.2 9.6.1h.7v-.7c-.1-1.2-.1-4.7.6-6 .2-.3.7-.8 1.3-1.3 2.3-1.9 6.6-5.5 7.8-14.3.6-3.9-.4-7.3-2.8-10.3-3.8-4.6-10.4-7-14.9-7.3-3.1-.2-6.6 1.4-9.7 4.4-3.9 3.8-6.1 9.1-5.9 14 .3 8.1 5.2 11.1 8.2 12.8.6.4 1.1.7 1.5 1 1.4 1.2 1.6 5 1.6 6.4l-.1.7zm5.9-.5c0-3.7-.3-9.5-1.7-10.4-.3-.2-.7-.2-1 0-.7.4-1.2 1.1-1.5 1.7-.5-2-.8-6.1-.9-8.3l.3.7c1.3 3.5 1.9 5.1 3 5 .8-.1 1.2-1 1.5-3.4.3-2.6.8-4.7 1.2-5.9 0 .5.1 1.2.1 2.3.1 7.6.7 8.3 1.5 8.4.8.1 1.4-.6 2.4-4.5.9-3.7 2.3-5.5 2.9-5.9 0 .3 0 1-.4 2.3-.5 1.6-1.2 2.8-1.9 4.2-1.7 3-3.4 6.2-3.1 13.8h-2.4zm-6.6-7.3c-.4-.4-1-.7-1.7-1.1-2.7-1.6-7.2-4.4-7.5-11.8-.2-4.6 1.8-9.5 5.5-13.1 2.7-2.7 6-4.2 8.7-4 4.3.3 10.5 2.5 14 6.8 2.2 2.7 3 5.8 2.5 9.3-1.2 8.3-5.1 11.5-7.4 13.5-.8.6-1.3 1.1-1.6 1.6-.8 1.5-.9 4.6-.8 6h-1.3c-.2-7.3 1.4-10.3 3-13.2.7-1.3 1.5-2.7 2-4.4.6-1.9.6-3.1.1-3.7-.3-.3-.7-.4-1.1-.3-1.4.4-3 3.2-4 6.9-.4 1.7-.8 2.6-1 3.1-.2-.8-.4-2.6-.4-6.6 0-3.8-.4-4.5-1.2-4.6-1.1-.1-2 2.6-2.7 8-.1 1.1-.3 1.7-.4 2-.4-.7-1.1-2.4-1.6-3.9l-.5-1.2c-.3-.7-.7-1.9-1.6-1.6-1.8.5.1 11.1.1 11.2.2 1.1.5 1.7 1.1 1.8.6.1.9-.5 1.1-1.1.2-.5.5-1.2.9-1.5.5 1 .9 5.2 1 9.1-1.4 0-2.6-.1-3.2-.3 0-1.4-.2-5.3-2-6.9z" fill="#9E6221"/></g></g></svg>