<?xml version="1.0" standalone="no"?><!-- Generator: Gravit.io --><svg xmlns="http://www.w3.org/2000/svg" xmlns:xlink="http://www.w3.org/1999/xlink" style="isolation:isolate" viewBox="0 0 198.5 257.8" width="198.5" height="257.8"><defs><clipPath id="_clipPath_69kQscnt8so2GwTSkxXNUvVg8D3pmOjd"><rect width="198.5" height="257.8"/></clipPath></defs><g clip-path="url(#_clipPath_69kQscnt8so2GwTSkxXNUvVg8D3pmOjd)"><clipPath id="_clipPath_r4JkavOS0o4U24Bsj8yV8i5oRjCoHJ01"><rect x="0" y="0" width="198.5" height="257.8" transform="matrix(1,0,0,1,0,0)" fill="rgb(255,255,255)"/></clipPath><g clip-path="url(#_clipPath_r4JkavOS0o4U24Bsj8yV8i5oRjCoHJ01)"><g><g><path d=" M 29.039 228.711 C -9.675 189.997 -9.675 127.136 29.039 88.422 C 67.753 49.709 130.614 49.709 169.328 88.422 C 208.042 127.136 208.042 189.997 169.328 228.711 C 130.614 267.425 67.753 267.425 29.039 228.711 Z " fill="rgb(255,87,34)"/><g><path d=" M 180.8 118.9 C 178.4 116.4 174.6 116.7 171.2 116.2 C 171.1 116.3 171 116.3 170.9 116.4 C 170.9 116.4 172.4 126.5 170.6 129.9 C 169.3 132.4 178.7 131 183.8 130.1 C 185.5 126.4 185.5 122.6 180.8 118.9 Z " fill="rgb(236,181,132)"/><path d=" M 184.5 117.8 C 184.6 116.9 173.6 115 171.1 116.3 C 174.5 116.8 178.4 116.5 180.7 119 C 185.4 122.7 185.4 126.5 183.6 130.2 C 185.4 129.9 186.7 129.6 186.7 129.6 C 186.7 129.6 184.4 118.7 184.5 117.8 Z " fill="rgb(219,151,105)"/><path d=" M 178 69.3 C 177.9 69.1 177.4 69.1 176.8 69.3 C 178.3 71.6 179.3 74.1 179.8 76.7 C 179.2 73 178.3 69.8 178 69.3 Z " fill="rgb(236,181,132)"/><path d=" M 180.2 80.3 C 180.1 79.1 180 77.9 179.8 76.7 C 179.3 74.1 178.3 71.6 176.8 69.3 C 174.6 69.9 170.3 72.4 170.3 72.4 C 175.1 88 171.9 98.3 171.9 98.3 L 168.5 100.5 C 168.5 100.5 168.3 101 168.1 101.8 C 168.2 101.8 168.2 101.8 168.3 101.7 C 175.9 97.5 180.4 88.8 180.2 80.3 Z " fill="rgb(236,181,132)"/><path d=" M 183.4 94.3 C 183.4 94.3 178.9 94.1 178.2 93.6 C 177.5 93.1 179.7 91 180.2 84.8 C 180.3 83.4 180.3 81.8 180.2 80.3 C 180.4 88.8 175.9 97.5 168.4 101.8 C 168.3 101.8 168.3 101.8 168.2 101.9 C 167.6 104.3 166.5 109.4 166.9 112.9 C 167.5 117.7 178.6 117.8 178.6 117.8 C 188.3 121.9 191.8 113.5 191.8 113.5 L 194.8 106.9 L 183.4 94.3 L 183.4 94.3 L 183.4 94.3 Z " fill="rgb(219,151,105)"/><path d=" M 171.9 98.3 C 171.9 98.3 179 95.4 179.4 95.5 C 179.8 95.6 182.4 99.2 179.6 106.4 L 177 107.1 L 175.4 103.3 L 176.7 108.1 C 176.7 108.1 180.3 110.2 179.6 113.2 C 178.9 116.2 175.9 117.6 175.9 117.6 C 175.9 117.6 167.3 116.9 166.7 112.9 C 166.1 108.9 168.4 100.5 168.4 100.5 L 171.9 98.3 L 171.9 98.3 L 171.9 98.3 Z " fill="rgb(236,181,132)"/><path d=" M 182.7 94 C 182.7 94 183.3 104.1 181.4 107.4 C 181.4 107.4 181.3 109.9 185.7 110.7 C 185.7 110.7 192.7 104.9 191.3 94.9 C 191.2 94.9 187.3 93 182.7 94 Z " fill="rgb(236,181,132)"/><path d=" M 196.2 100 C 196.2 100 196 109.7 189.2 112.9 C 189.2 112.9 186.1 111.5 186.2 110.3 C 186.3 109.1 191.4 96.9 191.4 96.9 C 191.4 96.9 194 97.2 196.2 100 Z " fill="rgb(236,181,132)"/><path d=" M 195.4 101.5 L 197 102.7 C 197 102.7 198.5 108.9 191.8 114.6 C 191.8 114.6 189.7 114 189.3 112.8 C 188.9 111.6 195.4 101.5 195.4 101.5 Z " fill="rgb(236,181,132)"/><path d=" M 191.4 96.8 C 191.4 96.8 191.4 103.8 186.2 110.2 C 186.2 110.2 190.1 107.4 190.9 103.1 C 191.8 98.8 191.4 96.8 191.4 96.8 Z " fill="rgb(219,151,105)"/><path d=" M 196 102.4 C 196 102.4 194.9 109.9 189.3 112.8 C 189.3 112.9 194.3 112.1 196 102.4 Z " fill="rgb(219,151,105)"/><path d=" M 104.4 85.7 C 104.4 85.2 108.1 76.8 112.1 79.6 C 116.2 82.4 116.5 93.7 108 95 C 99.5 96.3 104.4 85.7 104.4 85.7 Z " fill="rgb(236,181,132)"/><path d=" M 107.2 84 C 107.3 83.8 110 80.9 111.3 81.1 C 112.6 81.3 116.1 86.3 112.3 90 C 108.5 93.7 108.5 89.8 110 87.4 C 111.4 85 106.2 86.4 107.2 84 Z " fill="rgb(219,151,105)"/><path d=" M 66.5 89.2 C 66.5 89.2 61 83.2 57.7 87.5 C 54.4 91.8 55.1 96.8 65.5 100 C 75.9 103.2 66.5 89.2 66.5 89.2 Z " fill="rgb(219,151,105)"/><path d=" M 64.2 89.5 C 64.2 89.5 59.7 86.2 58.7 88.6 C 57.7 91 57 94.1 60.9 96.5 C 64.9 98.9 64.1 96.4 62.3 94.2 C 60.5 92 60.6 89.4 62.6 91.1 C 64.6 92.8 64.9 90 64.2 89.5 Z " fill="rgb(181,103,59)"/><path d=" M 61.9 70.6 C 61.9 70.6 66.6 87.1 64.2 97.3 C 61.8 107.5 98.8 111.5 99.3 111.5 C 99.8 111.5 109.9 98.2 109.9 98.2 L 109.5 91.4 C 109.5 91.4 103.1 79.4 104.1 61.5 C 105.1 43.6 86.2 50.7 86.2 50.7 L 62.7 60.6 L 59.4 63.5 L 61.9 70.6 L 61.9 70.6 L 61.9 70.6 Z " fill="rgb(219,151,105)"/><path d=" M 109.4 91.4 C 109.4 91.4 103 79.4 104 61.5 C 105 43.6 86.1 50.7 86.1 50.7 L 80.1 53.2 C 81.5 57.1 82.7 61 82.7 61 C 82.7 61 75.8 59.5 77.1 62.1 C 78.4 64.7 79.2 67.7 79.2 67.7 L 81.8 82 L 82 89.3 L 82.1 91.4 L 80.4 94.2 L 77 96.1 L 81.8 99.4 L 88.1 98.9 L 87.2 102.6 L 72.5 105.6 C 82.8 109.7 99 111.4 99.3 111.4 C 99.8 111.4 109.9 98.1 109.9 98.1 L 109.4 91.4 L 109.4 91.4 L 109.4 91.4 Z " fill="rgb(236,181,132)"/><path d=" M 81.2 83.4 C 81.2 83.4 85.9 82.1 86.5 82.9 C 86.5 82.9 91.5 95.3 102.1 85.3 L 98 87.6 L 95.4 88 L 93 87.5 L 90 85.9 L 87.4 81.6 L 85 80.5 L 81.2 81.9 L 81.2 83.4 L 81.2 83.4 L 81.2 83.4 Z " fill="rgb(219,151,105)"/><path d=" M 101.9 132.5 C 105.5 130.2 107.8 126.7 109.2 122.8 L 108.8 119.6 L 70.2 125.7 L 70.5 129.5 C 78.4 137.6 91.6 138.9 101.9 132.5 Z " fill="rgb(198,137,96)"/><path d=" M 101.9 132.5 C 91.6 138.9 78.4 137.6 70.5 129.5 L 71.3 141.1 C 71.3 141.1 71.7 141.7 72.3 142.6 C 80.8 149.7 89.1 157.2 96.4 166 C 100.1 155.2 105.4 145.2 110.8 135.4 L 110.9 134.8 L 109.2 122.7 C 107.8 126.8 105.5 130.2 101.9 132.5 Z " fill="rgb(219,151,105)"/><path d=" M 96.4 166.1 C 89.1 157.2 80.8 149.8 72.3 142.7 C 77 149.7 96.1 178.3 96.6 177.9 C 97.2 177.5 108.3 171.5 108.3 171.5 L 109.7 142.1 L 110.8 135.5 C 105.4 145.3 100.1 155.3 96.4 166.1 Z " fill="rgb(198,137,96)"/><path d=" M 63.9 96.6 C 63.9 96.6 57.1 109.4 63.4 121.3 C 69.7 133.2 84 135.1 92.3 133.8 C 100.6 132.5 111.7 126.6 114.6 114.3 C 117.5 102.1 109.4 91.3 109.4 91.3 L 104.1 102.3 L 81.9 103.3 L 63.9 96.6 L 63.9 96.6 L 63.9 96.6 Z " fill="rgb(91,54,23)"/><path d=" M 78.9 64.2 C 78.9 64.2 79.9 71.6 79.2 72.6 C 78.5 73.6 64.8 74.3 64.8 74.3 L 64.8 69.1 C 64.8 69.1 77.2 66.1 77.6 65.3 C 78 64.5 78.9 64.2 78.9 64.2 Z " fill="rgb(91,54,23)"/><linearGradient id="_lgradient_0" x1="0.013109246700508503" y1="0.4969370185777491" x2="1.0097336078883297" y2="0.531550796477311" gradientTransform="matrix(19.7,0,0,33.207,75.4,67.2)" gradientUnits="userSpaceOnUse"><stop offset="0%" stop-opacity="1" style="stop-color:rgb(181,103,59)"/><stop offset="100%" stop-opacity="1" style="stop-color:rgb(79,19,6)"/></linearGradient><path d=" M 79.3 67.2 C 79.3 67.2 83.5 87.7 82.1 91.3 C 80.7 94.9 77.7 96.3 77.7 96.3 C 77.7 96.3 86.3 102.4 95.1 94.7 C 95.1 94.7 87.9 106 75.4 96.8 C 75.4 96.8 81.5 94.8 81.4 89.7 C 81.4 84.7 81.4 83 79.3 67.2 Z " fill="url(#_lgradient_0)"/><path d=" M 84.3 53.6 C 84.3 54.4 83.4 56 85.1 56 C 90.7 56.9 96.4 53.8 98.1 49 C 98.3 48.5 98.5 48 98.6 47.5 C 91.2 44.8 81.3 37 83.2 31.8 C 83.2 31.8 67 38.5 59.1 50.3 C 59.3 51.4 59.7 52.4 60.3 53.1 C 65.7 59.6 76.2 57.4 84.3 53.6 Z " fill="rgb(120,70,27)"/><path d=" M 99.2 47.7 C 99 47.6 98.8 47.6 98.5 47.5 C 98.4 48 98.2 48.5 98 49 C 96.3 53.8 90.6 56.9 85 56 C 83.4 56 84.2 54.4 84.2 53.6 C 76.1 57.4 65.6 59.6 60.1 53.1 C 59.4 52.4 59.1 51.4 58.9 50.3 C 57.2 52.8 55.9 55.5 55.2 58.5 C 55.2 58.5 55.4 66.8 61.8 70.7 C 61.8 70.7 59.9 63.3 62 62 C 64 60.7 75.7 58.7 82.7 61.1 C 82.7 61.1 97.5 55.5 99 55.8 C 100.5 56.1 103.9 60.3 103.9 61.5 L 106.7 55.9 C 106.8 55.9 106.7 50.1 99.2 47.7 Z " fill="rgb(91,54,23)"/><g><g style="opacity:0.69;"><g opacity="0.69"><path d=" M 75.5 76.5 L 72.7 75.6 L 69.9 75.5 L 67.4 76.5 L 65.7 77.5 C 65.7 77.6 65.1 79.1 64.7 80.3 C 68.9 79.4 73.4 79.2 77.4 77.8 L 75.5 76.5 L 75.5 76.5 L 75.5 76.5 Z " fill="rgb(229,243,255)"/></g></g><g style="opacity:0.69;"><g opacity="0.69"><path d=" M 77.5 78 L 77.3 77.8 C 73.4 79.1 68.8 79.3 64.6 80.3 C 64.5 80.5 64.5 80.7 64.4 80.9 C 68.8 79.5 73.3 79 77.7 78.5 L 77.5 78 L 77.5 78 L 77.5 78 Z " fill="rgb(255,255,255)"/></g></g><g style="opacity:0.69;"><g opacity="0.69"><path d=" M 78.5 80.8 C 73.6 81.9 68.4 82.8 63.7 84.1 L 63.5 85.3 C 63.5 85.3 63.6 85.5 63.8 85.7 C 68.7 84.8 74.1 83.6 79.1 82.7 L 78.5 80.8 L 78.5 80.8 L 78.5 80.8 Z " fill="rgb(255,255,255)"/></g></g><g style="opacity:0.69;"><g opacity="0.69"><path d=" M 63.8 85.6 C 64.4 86.5 65.5 88.4 65.4 88.4 C 65.3 88.5 68.2 90.8 68.2 90.8 L 72.2 91.5 L 75.2 90.6 C 75.2 90.6 77.6 88.5 77.7 88.4 C 77.8 88.3 79.6 84.2 79.6 84.2 L 79.1 82.5 C 74 83.6 68.7 84.8 63.8 85.6 Z " fill="rgb(229,243,255)"/></g></g><g style="opacity:0.69;"><g opacity="0.69"><path d=" M 78.5 80.5 L 77.7 78.5 C 73.3 79 68.9 79.4 64.4 80.9 C 64.2 81.3 64.1 81.6 64.1 81.6 L 63.7 84 C 68.5 82.8 73.6 81.9 78.5 80.7 L 78.5 80.5 L 78.5 80.5 L 78.5 80.5 Z " fill="rgb(229,243,255)"/></g></g></g><g><g style="opacity:0.69;"><g opacity="0.69"><path d=" M 99.3 73.7 L 96.5 72.8 L 93.7 72.7 L 91.2 73.7 L 89.5 74.7 C 89.5 74.8 88.9 76.3 88.5 77.5 C 92.7 76.6 97.2 76.4 101.2 75 L 99.3 73.7 L 99.3 73.7 L 99.3 73.7 Z " fill="rgb(229,243,255)"/></g></g><g style="opacity:0.69;"><g opacity="0.69"><path d=" M 101.3 75.1 L 101.1 74.9 C 97.2 76.2 92.6 76.4 88.4 77.4 C 88.3 77.6 88.3 77.8 88.2 78 C 92.6 76.6 97.1 76.1 101.5 75.6 L 101.3 75.1 L 101.3 75.1 L 101.3 75.1 Z " fill="rgb(255,255,255)"/></g></g><g style="opacity:0.69;"><g opacity="0.69"><path d=" M 102.4 77.9 C 97.5 79 92.3 79.9 87.6 81.2 L 87.4 82.4 C 87.4 82.4 87.5 82.6 87.7 82.8 C 92.6 81.9 98 80.7 103 79.8 L 102.4 77.9 L 102.4 77.9 L 102.4 77.9 Z " fill="rgb(255,255,255)"/></g></g><g style="opacity:0.69;"><g opacity="0.69"><path d=" M 87.6 82.8 C 88.2 83.7 89.3 85.6 89.2 85.6 C 89.1 85.7 92 88 92 88 L 96 88.7 L 99 87.8 C 99 87.8 101.4 85.7 101.5 85.6 C 101.6 85.5 103.4 81.4 103.4 81.4 L 102.9 79.7 C 97.9 80.7 92.5 81.9 87.6 82.8 Z " fill="rgb(229,243,255)"/></g></g><g style="opacity:0.69;"><g opacity="0.69"><path d=" M 102.3 77.6 L 101.5 75.6 C 97.1 76.1 92.7 76.5 88.2 78 C 88 78.4 87.9 78.7 87.9 78.7 L 87.5 81.1 C 92.3 79.9 97.4 79 102.3 77.8 L 102.3 77.6 L 102.3 77.6 L 102.3 77.6 Z " fill="rgb(229,243,255)"/></g></g></g><path d=" M 105.4 74.4 C 105.4 74.4 102.8 74.4 101.5 74.5 C 100 72.9 97.9 71.9 95.6 71.9 C 91 71.8 87.1 75.5 87 80.1 C 87 80.2 87 80.4 87 80.5 C 83.8 79.7 81.1 81 79.8 81.8 C 79 78.1 75.7 75.2 71.7 75.1 C 68.5 75 65.7 76.8 64.2 79.4 L 60.5 80.6 L 63.1 83.3 C 63.1 83.3 63.1 83.3 63.1 83.3 C 63 87.9 66.7 91.8 71.3 91.9 C 75.9 92 79.8 88.3 79.9 83.7 C 79.9 83.5 79.9 83.3 79.9 83.1 C 80.7 82.5 83.5 80.6 87 81.7 C 87.7 85.6 91 88.5 95.1 88.6 C 99.7 88.7 103.6 85 103.7 80.4 C 103.7 79.5 103.6 78.7 103.4 77.9 L 105.4 74.4 L 105.4 74.4 L 105.4 74.4 Z  M 71.4 90.8 C 67.4 90.7 64.3 87.4 64.3 83.4 C 64.4 79.4 67.7 76.3 71.7 76.3 C 75.7 76.4 78.8 79.7 78.8 83.7 C 78.7 87.7 75.4 90.9 71.4 90.8 Z  M 95.2 87.6 C 91.2 87.5 88.1 84.2 88.1 80.2 C 88.2 76.2 91.5 73.1 95.5 73.1 C 99.5 73.2 102.6 76.5 102.6 80.5 C 102.6 84.5 99.2 87.7 95.2 87.6 Z " fill="rgb(91,54,23)"/><path d=" M 69 81.7 C 69 81.7 71.1 79.5 72.1 80.6 C 73.1 81.7 73.9 86.6 71.9 86.7 C 69.9 86.8 70 81.8 70 81.8 L 69 81.7 L 69 81.7 L 69 81.7 Z " fill="rgb(91,54,23)"/><path d=" M 93.3 78.6 C 93.3 78.6 95.4 76.4 96.4 77.5 C 97.4 78.6 98.2 83.5 96.2 83.6 C 94.2 83.7 94.3 78.7 94.3 78.7 L 93.3 78.6 L 93.3 78.6 L 93.3 78.6 Z " fill="rgb(91,54,23)"/><path d=" M 82.9 95.4 C 82.8 95.6 82.8 95.9 83 96 C 83.1 96 83.2 96.1 83.3 96.1 C 83.9 96.2 84.4 96.3 85 96.3 C 85.6 96.3 86.3 96.3 86.9 96.2 C 88.8 95.8 88.7 94.4 86.9 94 C 85.5 93.7 83.3 94 82.9 95.4 Z " fill="rgb(242,210,169)"/><path d=" M 83.1 31.8 C 83.1 31.8 82.6 32.2 81.7 32.9 C 80.8 33.6 79.6 34.6 78.2 35.7 C 76.7 36.9 75.1 38.3 73.3 39.9 C 71.6 41.4 69.7 43.2 68.1 45 C 67.2 45.9 66.4 46.8 65.6 47.8 C 64.8 48.7 64.1 49.7 63.4 50.6 C 63.1 51.1 62.8 51.6 62.5 52 C 62.2 52.5 62 53 61.7 53.4 C 61.5 53.9 61.2 54.3 61.1 54.8 C 61 55 60.9 55.3 60.9 55.5 C 60.8 55.7 60.8 56 60.7 56.2 C 60.6 56.6 60.6 57.1 60.5 57.5 C 60.4 57.9 60.5 58.3 60.5 58.7 C 60.6 59.4 60.8 60.1 61 60.6 C 61.2 61.1 61.5 61.4 61.6 61.7 C 61.8 61.9 61.8 62.1 61.8 62.1 C 61.8 62.1 61.7 62 61.5 61.8 C 61.3 61.6 61 61.3 60.8 60.8 C 60.5 60.3 60.3 59.7 60.1 58.9 C 60 58.1 59.9 57.2 60.1 56.3 C 60.1 56.1 60.2 55.8 60.2 55.6 C 60.3 55.4 60.3 55.1 60.4 54.9 C 60.5 54.4 60.8 53.9 61 53.4 C 61.2 52.9 61.5 52.4 61.7 51.9 C 62 51.4 62.3 50.9 62.6 50.4 C 63.3 49.4 64 48.4 64.8 47.5 C 65.6 46.5 66.4 45.6 67.3 44.7 C 69 42.9 70.9 41.2 72.7 39.7 C 74.5 38.2 76.2 36.8 77.7 35.7 C 79.2 34.6 80.5 33.7 81.4 33.1 C 82.6 32.1 83.1 31.8 83.1 31.8 Z " fill="rgb(76,46,20)"/><path d=" M 83.4 35.5 C 83.4 35.5 83.1 35.8 82.5 36.4 C 81.9 37 81.2 37.8 80.3 38.8 C 79.4 39.8 78.4 41 77.3 42.3 C 76.3 43.6 75.2 45.1 74.2 46.6 C 73.7 47.4 73.3 48.1 72.9 48.9 C 72.5 49.7 72.1 50.5 71.8 51.2 C 71.6 51.6 71.5 52 71.4 52.4 C 71.3 52.8 71.2 53.2 71.1 53.5 C 70.9 54.2 70.8 55 70.9 55.6 C 70.9 55.9 70.9 56.3 70.9 56.6 C 70.9 56.9 70.9 57.2 71 57.5 C 71.1 57.8 71.1 58 71.2 58.2 C 71.3 58.4 71.4 58.6 71.4 58.8 C 71.5 59.2 71.7 59.4 71.8 59.6 C 72 59.9 72 60 72 60 C 72 60 71.9 59.9 71.8 59.7 C 71.7 59.5 71.5 59.3 71.3 58.9 C 71.2 58.7 71.1 58.5 71 58.3 C 70.9 58.1 70.8 57.8 70.7 57.6 C 70.5 57.1 70.4 56.4 70.4 55.7 C 70.4 55 70.4 54.2 70.5 53.5 C 70.6 53.1 70.7 52.7 70.7 52.3 C 70.8 51.9 70.9 51.5 71.1 51.1 C 71.4 50.3 71.7 49.5 72.2 48.6 C 72.6 47.8 73.1 47 73.6 46.2 C 74.6 44.7 75.7 43.2 76.8 41.9 C 77.9 40.6 79 39.5 80 38.5 C 81 37.5 81.8 36.8 82.4 36.3 C 83.1 35.8 83.4 35.5 83.4 35.5 Z " fill="rgb(76,46,20)"/><path d=" M 88 41.2 C 88 41.2 87.9 41.5 87.8 42.1 C 87.6 42.6 87.5 43.4 87.2 44.4 C 86.9 45.3 86.6 46.4 86.3 47.6 C 86 48.8 85.6 50 85.2 51.2 C 84.8 52.4 84.5 53.7 84.1 54.8 C 83.8 56 83.4 57 83.2 58 C 83.1 58.5 83 58.9 82.9 59.3 C 82.8 59.7 82.8 60 82.7 60.3 C 82.7 60.6 82.7 60.8 82.7 60.9 C 82.7 61 82.8 61.1 82.8 61.1 C 82.8 61.1 82.8 61 82.7 60.9 C 82.7 60.8 82.6 60.5 82.6 60.2 C 82.6 59.6 82.6 58.8 82.8 57.8 C 83 56.8 83.2 55.7 83.5 54.5 C 83.8 53.3 84.1 52.1 84.5 50.8 C 84.9 49.6 85.3 48.3 85.7 47.2 C 86.1 46.1 86.5 45 86.8 44.1 C 87.1 43.2 87.5 42.5 87.7 41.9 C 87.9 41.5 88 41.2 88 41.2 Z " fill="rgb(76,46,20)"/><path d=" M 95.4 46.2 C 95.4 46.2 95.3 47 95.1 48.1 C 94.9 49.2 94.5 50.7 94.1 52.1 C 93.7 53.5 93.2 55 92.8 56 C 92.4 57.1 92.1 57.7 92.1 57.7 C 92.1 57.7 92.2 56.9 92.4 55.8 C 92.6 54.7 93 53.2 93.4 51.8 C 93.8 50.4 94.3 48.9 94.7 47.9 C 95.1 46.8 95.4 46.2 95.4 46.2 Z " fill="rgb(76,46,20)"/><path d=" M 101.8 48.9 C 101.8 48.9 101.9 49.4 102 50.1 C 102 50.5 102 50.9 102 51.4 C 102 51.9 101.9 52.4 101.7 52.8 C 101.6 53.3 101.4 53.8 101.1 54.2 C 101 54.4 100.8 54.6 100.7 54.8 C 100.6 55 100.4 55.1 100.3 55.3 C 100.2 55.4 100 55.5 99.9 55.6 C 99.8 55.7 99.6 55.7 99.5 55.8 C 99.3 55.9 99.2 55.9 99.2 55.9 C 99.2 55.9 99.3 55.8 99.5 55.7 C 99.6 55.6 99.7 55.6 99.8 55.4 C 99.9 55.3 100 55.2 100.1 55 C 100.2 54.8 100.3 54.7 100.4 54.5 C 100.5 54.3 100.6 54.1 100.7 53.9 C 100.8 53.7 100.9 53.5 100.9 53.3 C 101 53.1 101 52.9 101.1 52.6 C 101.2 52.2 101.3 51.7 101.4 51.3 C 101.5 50.9 101.6 50.5 101.7 50.1 C 101.7 49.4 101.8 48.9 101.8 48.9 Z " fill="rgb(76,46,20)"/><path d=" M 87.6 60.3 C 87.6 60.3 88.4 67.7 89.7 68.1 C 91 68.5 102.7 67.1 102.7 67.1 L 102.7 66.4 L 99.1 64.1 L 87.6 60.3 L 87.6 60.3 L 87.6 60.3 Z " fill="rgb(219,151,105)"/><path d=" M 87.1 60.4 C 87.1 60.4 88.2 67.2 89.4 67.5 C 90.6 67.8 102.3 66.4 102.3 66.4 L 101.8 60.6 C 101.6 60.7 87.9 60.9 87.1 60.4 Z " fill="rgb(91,54,23)"/><path d=" M 68.6 99.5 C 68.6 99.5 68.4 99.8 68.1 100.5 C 67.8 101.1 67.5 102.1 67.1 103.2 C 66.7 104.3 66.3 105.6 65.9 107.1 C 65.5 108.5 65.2 110.1 64.9 111.6 C 64.6 113.1 64.4 114.7 64.4 116.2 C 64.3 117.7 64.3 119 64.4 120.2 C 64.5 121.4 64.6 122.4 64.7 123 C 65 123.6 65 124 65 124 C 65 124 64.8 123.6 64.6 123 C 64.4 122.3 64.1 121.4 64 120.2 C 63.8 119 63.7 117.6 63.7 116.1 C 63.7 114.6 63.9 113 64.2 111.4 C 64.5 109.8 64.9 108.3 65.3 106.8 C 65.7 105.4 66.3 104.1 66.7 103 C 67.2 101.9 67.6 101 68 100.4 C 68.2 100.1 68.3 99.9 68.4 99.7 C 68.6 99.5 68.6 99.4 68.6 99.5 Z " fill="rgb(76,46,20)"/><path d=" M 77.2 103.3 C 77.2 103.3 77.1 103.7 76.8 104.5 C 76.6 105.3 76.3 106.4 75.9 107.7 C 75.5 109 75.2 110.6 74.8 112.2 C 74.4 113.9 74.1 115.6 73.8 117.4 C 73.5 119.2 73.3 121 73.3 122.7 C 73.3 123.5 73.3 124.4 73.3 125.1 C 73.3 125.9 73.4 126.6 73.5 127.3 C 73.5 127.6 73.6 128 73.7 128.3 C 73.8 128.6 73.8 128.9 73.9 129.2 C 74 129.7 74.2 130.2 74.3 130.6 C 74.4 131 74.6 131.3 74.6 131.5 C 74.7 131.7 74.7 131.8 74.7 131.8 C 74.7 131.8 74.6 131.7 74.5 131.5 C 74.4 131.3 74.2 131.1 74.1 130.7 C 73.9 130.3 73.7 129.9 73.6 129.4 C 73.4 128.9 73.2 128.3 73.1 127.6 C 73 126.9 72.9 126.2 72.8 125.4 C 72.7 124.6 72.7 123.8 72.7 122.9 C 72.7 121.2 72.9 119.3 73.1 117.5 C 73.2 116.6 73.4 115.7 73.6 114.8 C 73.8 113.9 74 113.1 74.2 112.2 C 74.6 110.5 75.1 109 75.6 107.7 C 76 106.4 76.5 105.3 76.8 104.6 C 77 103.7 77.2 103.3 77.2 103.3 Z " fill="rgb(76,46,20)"/><path d=" M 86.9 105.1 C 86.9 105.1 86.9 105.6 87 106.3 C 87 107.1 87.1 108.2 87.2 109.6 C 87.2 111 87.3 112.6 87.4 114.3 C 87.4 116 87.5 117.8 87.5 119.6 C 87.5 121.4 87.5 123.2 87.5 124.9 C 87.5 126.6 87.4 128.2 87.4 129.6 C 87.4 131 87.3 132.1 87.3 132.9 C 87.3 133.7 87.2 134.1 87.2 134.1 C 87.2 134.1 87.2 133.6 87.1 132.9 C 87.1 132.1 87 131 86.9 129.6 C 86.9 128.2 86.8 126.6 86.7 124.9 C 86.7 123.2 86.6 121.4 86.6 119.6 C 86.6 117.8 86.6 116 86.6 114.3 C 86.6 112.6 86.7 111 86.7 109.6 C 86.7 108.2 86.8 107.1 86.8 106.3 C 86.8 105.5 86.9 105.1 86.9 105.1 Z " fill="rgb(76,46,20)"/><path d=" M 98.2 102.6 C 98.2 102.6 98.3 103 98.5 103.8 C 98.7 104.6 99 105.7 99.3 107 C 99.6 108.3 99.9 109.9 100.2 111.6 C 100.3 112.4 100.5 113.3 100.6 114.2 C 100.7 115.1 100.8 116 100.9 116.9 C 101 117.8 101.1 118.7 101.1 119.6 C 101.2 120.5 101.2 121.4 101.2 122.2 C 101.2 123.1 101.2 123.9 101.1 124.7 C 101.1 125.5 101 126.2 100.9 126.9 C 100.9 127.6 100.7 128.2 100.6 128.8 C 100.5 129.1 100.5 129.3 100.5 129.6 C 100.4 129.8 100.4 130 100.3 130.2 C 100.1 131 99.9 131.4 99.9 131.4 C 99.9 131.4 100 131 100.1 130.2 C 100.1 130 100.2 129.8 100.2 129.6 C 100.2 129.4 100.2 129.1 100.3 128.8 C 100.3 128.2 100.4 127.6 100.4 127 C 100.4 126.3 100.5 125.6 100.4 124.8 C 100.4 124 100.4 123.2 100.3 122.4 C 100.2 120.7 100.1 118.9 99.9 117.1 C 99.7 115.3 99.5 113.5 99.3 111.8 C 99.1 110.1 98.9 108.5 98.7 107.2 C 98.5 104.4 98.2 102.6 98.2 102.6 Z " fill="rgb(76,46,20)"/><path d=" M 106.8 95.5 C 106.8 95.5 107.4 97 108.2 99.4 C 108.6 100.6 109 102 109.4 103.5 C 109.8 105 110.2 106.6 110.5 108.3 C 110.8 109.9 111.1 111.6 111.3 113.1 C 111.4 113.9 111.5 114.6 111.5 115.3 C 111.5 116 111.6 116.7 111.6 117.3 C 111.6 117.9 111.6 118.5 111.6 119 C 111.6 119.5 111.6 120 111.5 120.3 C 111.4 121 111.4 121.4 111.4 121.4 C 111.4 121.4 111.4 121 111.3 120.3 C 111.3 119.9 111.3 119.5 111.2 119 C 111.1 118.5 111.1 117.9 111 117.3 C 110.9 116.7 110.8 116 110.7 115.3 C 110.6 114.6 110.5 113.9 110.4 113.1 C 110.1 111.6 109.8 109.9 109.5 108.3 C 109.3 107.5 109.2 106.7 109 105.9 C 108.8 105.1 108.7 104.3 108.5 103.6 C 108.2 102.1 107.8 100.7 107.5 99.5 C 107.2 97.1 106.8 95.5 106.8 95.5 Z " fill="rgb(76,46,20)"/><path d=" M 63.9 96.6 C 63.9 96.6 69.1 114.3 82.6 110.3 C 82.6 110.3 86.9 109 87.6 105.2 C 87.6 105.2 91.8 112.3 100.5 108 C 109.2 103.7 109.3 93.6 109.3 93.6 L 87.2 102.8 C 87.2 102.8 81.2 103.8 80.8 103.9 C 80.4 104.1 63.9 96.6 63.9 96.6 Z " fill="rgb(70,42,19)"/><path d=" M 63.9 96.6 L 87.2 102.8 C 87.2 102.8 88 109.4 78.4 109.7 C 68.8 110.1 63.9 96.6 63.9 96.6 Z " fill="rgb(104,61,25)"/><path d=" M 109.4 93.2 L 87.2 102.6 C 87.2 102.6 87.3 109.2 96.8 108.2 C 106.3 107.3 109.4 93.2 109.4 93.2 Z " fill="rgb(104,61,25)"/></g><g><clipPath id="_clipPath_HuxpxKw3Ap2EXVKNOO9Av4Lm9l3nO8go"><circle vector-effect="non-scaling-stroke" cx="99.3" cy="158.60000000000002" r="99.2" fill="rgb(255,255,255)"/></clipPath><g clip-path="url(#_clipPath_HuxpxKw3Ap2EXVKNOO9Av4Lm9l3nO8go)"><g><path d=" M 101.5 265.2 L 98.7 287 L 119.2 285.3 L 110.1 264.3 L 101.5 265.2 L 101.5 265.2 Z " fill="rgb(214,208,189)"/></g></g><clipPath id="_clipPath_H6crVmaxFbSON988o1P5aiMppdyNq26v"><circle vector-effect="non-scaling-stroke" cx="99.3" cy="158.60000000000002" r="99.2" fill="rgb(255,255,255)"/></clipPath><g clip-path="url(#_clipPath_H6crVmaxFbSON988o1P5aiMppdyNq26v)"><g><linearGradient id="_lgradient_1" x1="0.5329136406174281" y1="0.5434617348506401" x2="0.5872631923412313" y2="-0.19919956277691575" gradientTransform="matrix(69.217,0,0,140.6,61.083,284)" gradientUnits="userSpaceOnUse"><stop offset="0%" stop-opacity="1" style="stop-color:rgb(58,58,57)"/><stop offset="100%" stop-opacity="1" style="stop-color:rgb(0,0,0)"/></linearGradient><path d=" M 130.3 287.9 C 130.3 287.9 128.2 353.6 126.7 356.6 C 125.2 359.6 66.1 422.6 66.1 422.6 L 64.6 424.6 C 64.6 424.6 60.8 418.9 61.1 418.4 C 61.4 417.9 62.8 418.1 62.8 418.1 C 62.8 418.1 94.6 368 99 365.4 C 103.4 362.8 113.8 359.6 114.3 356.2 C 114.9 352.8 106.5 304.4 106.5 304.4 L 104.1 286.7 L 113.9 284 L 130.3 287.9 L 130.3 287.9 L 130.3 287.9 Z " fill="url(#_lgradient_1)"/></g></g><clipPath id="_clipPath_GAQTpGTJwiK5ZgOkRu7ygdrk5gLs0UKb"><circle vector-effect="non-scaling-stroke" cx="99.3" cy="158.60000000000002" r="99.2" fill="rgb(255,255,255)"/></clipPath><g clip-path="url(#_clipPath_GAQTpGTJwiK5ZgOkRu7ygdrk5gLs0UKb)"><g><linearGradient id="_lgradient_2" x1="0.45846154736842104" y1="0.4900550970453046" x2="0.48279810285001373" y2="-0.33012130778729687" gradientTransform="matrix(30.4,0,0,152.3,76.8,284.7)" gradientUnits="userSpaceOnUse"><stop offset="0%" stop-opacity="1" style="stop-color:rgb(58,58,57)"/><stop offset="100%" stop-opacity="1" style="stop-color:rgb(0,0,0)"/></linearGradient><path d=" M 78 316.6 C 78 316.6 85.9 350.6 89.1 355.3 C 92.3 360 92.1 360.1 92 361.3 C 92 362.5 86.7 382.5 87.7 387.2 C 88.7 391.8 99.2 435.3 99.2 435.3 L 99.2 436.9 L 102.7 437 L 104.8 304.5 L 107.2 304.6 L 105.7 286.4 L 103.8 287.5 L 97.9 284.7 L 76.8 293.9 L 78 316.6 L 78 316.6 L 78 316.6 Z " fill="url(#_lgradient_2)"/></g></g><clipPath id="_clipPath_H5MyqLBLlZBa1BFHY5u1QDUQd8ofuAAW"><circle vector-effect="non-scaling-stroke" cx="99.3" cy="158.60000000000002" r="99.2" fill="rgb(255,255,255)"/></clipPath><g clip-path="url(#_clipPath_H5MyqLBLlZBa1BFHY5u1QDUQd8ofuAAW)"><g><path d=" M 104.9 288.2 C 105 289.6 105 290.9 105.1 292.3 C 105.2 293.7 105.2 295 105.2 296.4 C 105.2 297.8 105.3 299.1 105.3 300.5 L 105.3 304.6 L 104.9 304.2 L 106.6 304.2 L 106.3 304.3 C 106.9 303.5 107.6 302.7 108.2 301.9 L 108.1 302.1 L 108.3 294.8 L 108.5 291.1 C 108.6 289.9 108.6 288.7 108.7 287.4 L 108.9 287.6 C 107.5 287.8 106.2 288 104.9 288.2 Z  M 104.9 288.2 C 106.2 287.9 107.5 287.6 108.9 287.3 L 109.1 287.3 L 109.1 287.5 C 109.1 288.7 109.1 289.9 109.1 291.2 L 109.1 294.9 L 109 302.2 L 109 302.3 L 108.9 302.4 C 108.3 303.2 107.6 304 107 304.8 L 106.9 304.9 L 106.7 304.9 L 105 304.9 L 104.6 304.9 L 104.6 304.5 L 104.6 300.4 C 104.6 299 104.6 297.7 104.7 296.3 C 104.7 294.9 104.7 293.6 104.8 292.2 C 104.8 290.9 104.8 289.5 104.9 288.2 Z " fill="rgb(35,33,34)"/></g></g><clipPath id="_clipPath_nccVjr34JwcDdg21PpjBnp1rbDIo5YEp"><circle vector-effect="non-scaling-stroke" cx="99.3" cy="158.60000000000002" r="99.2" fill="rgb(255,255,255)"/></clipPath><g clip-path="url(#_clipPath_nccVjr34JwcDdg21PpjBnp1rbDIo5YEp)"><g><g><path d=" M 99.8 284.9 C 99.8 284.9 115.9 284.4 117.5 282.6 L 117.4 286.5 C 117.4 286.5 97.4 288.4 95.7 286.8 C 93.9 285.2 99.8 284.9 99.8 284.9 Z " fill="rgb(35,33,34)"/><path d=" M 103.8 284.4 L 103.7 288.1 L 110.2 287.7 L 109.7 283.7 L 103.8 284.4 L 103.8 284.4 Z " fill="rgb(207,209,210)"/><path d=" M 104.3 284.7 L 104.1 287.7 L 109.6 287.3 L 109.2 284.3 L 104.3 284.7 L 104.3 284.7 Z " fill="rgb(35,33,34)"/><path d=" M 104.1 286 L 104.9 285.9 L 104.9 286.2 L 104 286.2 L 104.1 286 L 104.1 286 Z " fill="rgb(207,209,210)"/></g></g></g><clipPath id="_clipPath_AqWNi5x0BfuVWie9bOSy24QPFd6gtx5r"><circle vector-effect="non-scaling-stroke" cx="99.3" cy="158.60000000000002" r="99.2" fill="rgb(255,255,255)"/></clipPath><g clip-path="url(#_clipPath_AqWNi5x0BfuVWie9bOSy24QPFd6gtx5r)"><g><path d=" M 102.8 436.9 L 104.5 440.6 L 104.5 442.6 L 96.8 442.4 C 96.8 442.4 96.1 440.7 96.8 440.4 C 97.5 440.1 99.2 436.8 99.2 436.8 L 102.8 436.9 L 102.8 436.9 L 102.8 436.9 Z " fill="rgb(0,0,0)"/></g></g><clipPath id="_clipPath_h7Ob5MT891TnXHIu5GTdQIBjzYNu9WHt"><circle vector-effect="non-scaling-stroke" cx="99.3" cy="158.60000000000002" r="99.2" fill="rgb(255,255,255)"/></clipPath><g clip-path="url(#_clipPath_h7Ob5MT891TnXHIu5GTdQIBjzYNu9WHt)"><g><path d=" M 62.8 418.1 C 62.8 418.1 62 420.9 65.6 423.2 C 65.6 423.2 66.1 434.2 66 436.6 C 66 439 68.4 438.4 69.9 439 C 71.4 439.7 70.4 441.8 70.4 441.8 L 64.1 441.7 L 59 428.2 L 60.2 423.8 L 58 424.4 L 57 420.9 C 56.9 421 59.6 417.5 62.8 418.1 Z " fill="rgb(0,0,0)"/></g></g><clipPath id="_clipPath_D89OiBmeCPrVxYevZsDWanegtgolScji"><circle vector-effect="non-scaling-stroke" cx="99.3" cy="158.60000000000002" r="99.2" fill="rgb(255,255,255)"/></clipPath><g clip-path="url(#_clipPath_D89OiBmeCPrVxYevZsDWanegtgolScji)"><g><path d=" M 167.2 128.5 L 167.3 124.9 C 167.3 124.9 186.1 123.9 189.7 122.5 L 189.6 127.2 L 167.2 128.5 L 167.2 128.5 L 167.2 128.5 Z " fill="rgb(246,237,217)"/></g></g><clipPath id="_clipPath_leF6Rt0j76E5uY6LSJEcHueGJeUHHfgr"><circle vector-effect="non-scaling-stroke" cx="99.3" cy="158.60000000000002" r="99.2" fill="rgb(255,255,255)"/></clipPath><g clip-path="url(#_clipPath_leF6Rt0j76E5uY6LSJEcHueGJeUHHfgr)"><g><path d=" M 76.6 300.5 L 83.9 303.1 L 77.2 315.2 L 72.4 311.2 L 76.6 300.5 L 76.6 300.5 Z " fill="rgb(219,151,105)"/></g></g><clipPath id="_clipPath_od4GemVzK1jA1QBZrhUMvBdeJAwnFegU"><circle vector-effect="non-scaling-stroke" cx="99.3" cy="158.60000000000002" r="99.2" fill="rgb(255,255,255)"/></clipPath><g clip-path="url(#_clipPath_od4GemVzK1jA1QBZrhUMvBdeJAwnFegU)"><g><path d=" M 69.3 311.8 L 70.7 313.5 C 70.7 313.5 77.7 304.3 77.4 299.8 L 75.1 296.6 L 68.7 308.5 L 69.3 311.8 L 69.3 311.8 L 69.3 311.8 Z " fill="rgb(246,237,217)"/></g></g><clipPath id="_clipPath_tFGz0EF7PGCQaKtjh292etHm36I0znGr"><circle vector-effect="non-scaling-stroke" cx="99.3" cy="158.60000000000002" r="99.2" fill="rgb(255,255,255)"/></clipPath><g clip-path="url(#_clipPath_tFGz0EF7PGCQaKtjh292etHm36I0znGr)"><g><path d=" M 119.5 138.2 L 152.9 164.5 L 164.2 193.2 L 166 126.7 C 166 126.7 183.7 126.9 190.4 124.3 C 190.4 124.3 198.3 229.3 172.9 242.7 C 172.9 242.7 157.3 247.2 135.9 207.3 C 135.9 207.3 129.8 218.5 129.5 219.7 C 129.2 220.9 130.3 287.9 130.3 287.9 C 130.3 287.9 117.6 290.1 113.2 286.8 L 106.3 273.3 L 99.5 289.7 C 99.5 289.7 81.2 297.7 76.9 293.8 L 71 229.9 L 60.9 214.5 C 60.9 214.5 50.1 252 47.7 255.3 C 45.3 258.6 75.3 296.5 75.3 296.5 C 75.3 296.5 74.8 306.2 68.5 312.7 C 68.5 312.7 28.6 277 23.2 259.8 C 23.2 259.8 30.5 182.5 31.3 181.4 C 32.1 180.4 61.8 146.4 65.2 145.2 C 99.7 243.1 124.4 155.2 119.5 138.2 Z " fill="rgb(58,58,57)"/></g></g><clipPath id="_clipPath_ifIg20bMTvm3CtRHCnYmaLDjWDC556vp"><circle vector-effect="non-scaling-stroke" cx="99.3" cy="158.60000000000002" r="99.2" fill="rgb(255,255,255)"/></clipPath><g clip-path="url(#_clipPath_ifIg20bMTvm3CtRHCnYmaLDjWDC556vp)"><g><path d=" M 81.7 148.4 L 70.6 133.6 L 69.5 140.9 L 72.2 164.7 C 72.2 164.7 97.3 225.1 103.2 226.3 C 103.3 226.3 112.3 191.8 116 165.9 C 116.1 165.1 114.8 128.5 114.8 136.1 L 109.6 126.2 L 103.3 147.5 L 96.2 170.6 L 81.7 148.4 L 81.7 148.4 L 81.7 148.4 Z " fill="rgb(246,237,217)"/></g></g><clipPath id="_clipPath_NeSZlkVkVcHTJnOsHKB95bDjBfN9eGIb"><circle vector-effect="non-scaling-stroke" cx="99.3" cy="158.60000000000002" r="99.2" fill="rgb(255,255,255)"/></clipPath><g clip-path="url(#_clipPath_NeSZlkVkVcHTJnOsHKB95bDjBfN9eGIb)"><g><path d=" M 65.1 145.3 C 65.1 145.3 61.6 160.1 69 182 L 75 181.3 L 70.2 186.6 C 70.2 186.6 90 216 102.4 226.3 L 79.7 190.5 L 77.5 174.8 L 65.1 145.3 L 65.1 145.3 L 65.1 145.3 Z " fill="rgb(45,44,43)"/></g></g><clipPath id="_clipPath_GZjKGOYKef3kErchB0nxW6OkOzenbcft"><circle vector-effect="non-scaling-stroke" cx="99.3" cy="158.60000000000002" r="99.2" fill="rgb(255,255,255)"/></clipPath><g clip-path="url(#_clipPath_GZjKGOYKef3kErchB0nxW6OkOzenbcft)"><g><path d=" M 119.9 138.5 C 119.9 138.5 120 138.8 120.2 139.5 C 121 142.6 125.9 153.7 125.6 172.3 L 118.1 173.8 L 124.2 178.6 C 124.2 178.6 113 216.5 103.5 225.6 L 110.4 206.4 L 116.1 167.6 L 119.9 138.5 L 119.9 138.5 L 119.9 138.5 Z " fill="rgb(45,44,43)"/></g></g><clipPath id="_clipPath_uRgdn2hvBMYkCSB6xhmJg2TCXGAT7sVm"><circle vector-effect="non-scaling-stroke" cx="99.3" cy="158.60000000000002" r="99.2" fill="rgb(255,255,255)"/></clipPath><g clip-path="url(#_clipPath_uRgdn2hvBMYkCSB6xhmJg2TCXGAT7sVm)"><g><path d=" M 74.8 161.9 C 74.8 161.9 77.7 149.6 78.9 148.9 C 80.1 148.2 81 147.8 81.7 149 C 82.4 150.2 96.4 171.3 96.4 171.3 C 96.4 171.3 84.5 155.9 82.7 155.4 C 80.8 154.8 78.8 152.5 74.8 161.9 Z " fill="rgb(217,211,191)"/></g></g><clipPath id="_clipPath_ZNXnHVTg8yd14WsTjgiqDAeg4V9ium3Z"><circle vector-effect="non-scaling-stroke" cx="99.3" cy="158.60000000000002" r="99.2" fill="rgb(255,255,255)"/></clipPath><g clip-path="url(#_clipPath_ZNXnHVTg8yd14WsTjgiqDAeg4V9ium3Z)"><g><path d=" M 97 170.7 C 96.8 171.1 103.7 148 104.2 147.6 C 104.7 147.2 107.8 146.1 108.1 146.9 C 108.4 147.7 114.6 158.3 114.6 158.3 C 114.6 158.3 110.7 152.7 108.5 152.4 C 106.4 152 99.8 163.8 97 170.7 Z " fill="rgb(217,211,191)"/></g></g><clipPath id="_clipPath_uAbGW1KoCDsBNWj7KxBg8SDBpPBaunyv"><circle vector-effect="non-scaling-stroke" cx="99.3" cy="158.60000000000002" r="99.2" fill="rgb(255,255,255)"/></clipPath><g clip-path="url(#_clipPath_uAbGW1KoCDsBNWj7KxBg8SDBpPBaunyv)"><g><path d=" M 69.5 140.9 C 69.5 140.9 80.3 193.4 102.9 227 C 102.9 227 78.6 201 71.1 186.2 L 77.7 179.9 L 69.1 180.5 C 69.1 180.5 64 159.3 65.2 145.4 L 69.5 140.9 L 69.5 140.9 L 69.5 140.9 Z " fill="rgb(80,79,78)"/></g></g><clipPath id="_clipPath_0y4kLajzcuGn8kpgywEs3Yb1tV8CFbVy"><circle vector-effect="non-scaling-stroke" cx="99.3" cy="158.60000000000002" r="99.2" fill="rgb(255,255,255)"/></clipPath><g clip-path="url(#_clipPath_0y4kLajzcuGn8kpgywEs3Yb1tV8CFbVy)"><g><path d=" M 113.8 134 C 113.7 133.8 108.8 212.3 102.9 226.9 C 102.9 226.9 116.8 209.2 123.5 178.4 L 116 173.1 L 124.4 171.7 C 124.4 171.7 122.3 146.3 120 138.5 L 113.8 134 L 113.8 134 L 113.8 134 Z " fill="rgb(80,79,78)"/></g></g><clipPath id="_clipPath_wrdYCAu9xwEEpwhG3BvK1A5mbyKh0dhf"><circle vector-effect="non-scaling-stroke" cx="99.3" cy="158.60000000000002" r="99.2" fill="rgb(255,255,255)"/></clipPath><g clip-path="url(#_clipPath_wrdYCAu9xwEEpwhG3BvK1A5mbyKh0dhf)"><g><path d=" M 102.3 226.9 C 106.8 263 106.8 263 106.4 273.2 C 106.4 273.2 108.1 272.1 106.6 257.1 C 105.1 242.1 103 226.9 103 226.9 L 102.3 226.9 L 102.3 226.9 L 102.3 226.9 Z " fill="rgb(45,44,43)"/></g></g><clipPath id="_clipPath_rcYHKu0N2IGtDndaFbVwJXwNR5ryVbzA"><circle vector-effect="non-scaling-stroke" cx="99.3" cy="158.60000000000002" r="99.2" fill="rgb(255,255,255)"/></clipPath><g clip-path="url(#_clipPath_rcYHKu0N2IGtDndaFbVwJXwNR5ryVbzA)"><g><path d=" M 79.7 269.8 C 79.7 269.8 94.3 264.9 94.8 264 L 94.8 266.2 C 94.8 266.2 83.5 270.7 79.7 271 L 79.7 269.8 L 79.7 269.8 L 79.7 269.8 Z " fill="rgb(45,44,43)"/></g></g><clipPath id="_clipPath_1D3wWJo4G6AE79lkh6XSIYAbRzOAFVjH"><circle vector-effect="non-scaling-stroke" cx="99.3" cy="158.60000000000002" r="99.2" fill="rgb(255,255,255)"/></clipPath><g clip-path="url(#_clipPath_1D3wWJo4G6AE79lkh6XSIYAbRzOAFVjH)"><g><path d=" M 128.7 268.2 C 128.7 268.2 115.9 262.7 115.5 261.8 L 115.5 264 C 115.5 264 125.4 269 128.7 269.4 L 128.7 268.2 L 128.7 268.2 L 128.7 268.2 Z " fill="rgb(45,44,43)"/></g></g><clipPath id="_clipPath_6pNvNg72Sw14ihCaSkdH5JZbBNM0BwVv"><circle vector-effect="non-scaling-stroke" cx="99.3" cy="158.60000000000002" r="99.2" fill="rgb(255,255,255)"/></clipPath><g clip-path="url(#_clipPath_6pNvNg72Sw14ihCaSkdH5JZbBNM0BwVv)"><g><path d=" M 111 233.3 C 111 234.4 110 235.3 108.9 235.3 C 107.8 235.3 106.9 234.3 106.9 233.2 C 106.9 232.1 107.9 231.2 109 231.2 C 110.1 231.2 111 232.1 111 233.3 Z " fill="rgb(45,44,43)"/></g></g><clipPath id="_clipPath_O9XTr1OItSwhzosrpg60v7E1XfzC5lRC"><circle vector-effect="non-scaling-stroke" cx="99.3" cy="158.60000000000002" r="99.2" fill="rgb(255,255,255)"/></clipPath><g clip-path="url(#_clipPath_O9XTr1OItSwhzosrpg60v7E1XfzC5lRC)"><g><path d=" M 188.4 131.2 C 188.4 132.3 187.4 133.2 186.3 133.2 C 185.2 133.2 184.3 132.2 184.3 131.1 C 184.3 130 185.3 129.1 186.4 129.1 C 187.6 129.1 188.5 130.1 188.4 131.2 Z " fill="rgb(45,44,43)"/></g></g><clipPath id="_clipPath_0Ub7kmyhCZWdSYIRtHiQeTzuAxMVoq85"><circle vector-effect="non-scaling-stroke" cx="99.3" cy="158.60000000000002" r="99.2" fill="rgb(255,255,255)"/></clipPath><g clip-path="url(#_clipPath_0Ub7kmyhCZWdSYIRtHiQeTzuAxMVoq85)"><g><path d=" M 112.5 259 C 112.5 260.1 111.5 261 110.4 261 C 109.3 261 108.4 260 108.4 258.9 C 108.4 257.8 109.4 256.9 110.5 256.9 C 111.7 256.9 112.6 257.9 112.5 259 Z " fill="rgb(45,44,43)"/></g></g><clipPath id="_clipPath_MPdVQW5vPKZAVy10pzNKgc68bgAFktgL"><circle vector-effect="non-scaling-stroke" cx="99.3" cy="158.60000000000002" r="99.2" fill="rgb(255,255,255)"/></clipPath><g clip-path="url(#_clipPath_MPdVQW5vPKZAVy10pzNKgc68bgAFktgL)"><g><path d=" M 77.2 315.2 C 77.2 315.1 84.4 303.8 84.2 298.4 C 84.2 298.4 86.3 300.8 78 316.5 L 77.2 315.2 L 77.2 315.2 L 77.2 315.2 Z " fill="rgb(45,44,43)"/></g></g><clipPath id="_clipPath_txb5PyiUU7HS7m8ya96IpHmy2HdDYbOV"><circle vector-effect="non-scaling-stroke" cx="99.3" cy="158.60000000000002" r="99.2" fill="rgb(255,255,255)"/></clipPath><g clip-path="url(#_clipPath_txb5PyiUU7HS7m8ya96IpHmy2HdDYbOV)"><g><line x1="96.4" y1="170.6" x2="102.9" y2="226.1"/></g></g><clipPath id="_clipPath_USzFHbg2U0sDJYLH46ajtnc5a4kscBcm"><circle vector-effect="non-scaling-stroke" cx="99.3" cy="158.60000000000002" r="99.2" fill="rgb(255,255,255)"/></clipPath><g clip-path="url(#_clipPath_USzFHbg2U0sDJYLH46ajtnc5a4kscBcm)"><g><path d=" M 100.6 171.8 C 100.6 172.4 100.2 172.8 99.7 172.8 C 99.2 172.8 98.8 172.3 98.8 171.7 C 98.8 171.1 99.2 170.7 99.7 170.7 C 100.2 170.7 100.6 171.2 100.6 171.8 Z " fill="rgb(217,211,191)"/></g></g><clipPath id="_clipPath_albe2p2BxkWBNskPP8JrCV5KL2Q6mHjw"><circle vector-effect="non-scaling-stroke" cx="99.3" cy="158.60000000000002" r="99.2" fill="rgb(255,255,255)"/></clipPath><g clip-path="url(#_clipPath_albe2p2BxkWBNskPP8JrCV5KL2Q6mHjw)"><g><path d=" M 103.9 193.7 C 103.9 194.3 103.5 194.7 103 194.7 C 102.5 194.7 102.1 194.2 102.1 193.6 C 102.1 193 102.5 192.6 103 192.6 C 103.5 192.7 103.9 193.1 103.9 193.7 Z " fill="rgb(217,211,191)"/></g></g></g></g><g><path d=" M 169.213 52.153 L 180.613 52.653 C 180.613 52.653 179.413 49.453 180.613 47.753 C 181.813 46.053 182.813 45.253 183.713 44.353 C 184.613 43.453 190.913 33.953 189.213 27.353 C 187.513 20.753 185.213 15.953 171.213 13.553 C 171.213 13.553 165.013 14.553 160.613 23.053 C 156.213 31.553 156.913 36.353 162.513 41.853 C 168.213 47.453 169.613 46.553 169.213 52.153 Z " fill="rgb(242,210,49)"/><g><path d=" M 180.013 57.953 C 178.713 57.953 176.513 57.753 174.313 57.553 C 178.013 57.653 181.913 57.353 182.013 56.753 C 182.113 55.853 182.813 53.853 179.813 53.953 C 176.913 54.053 169.513 52.653 167.913 53.653 C 167.913 53.653 165.913 55.653 168.613 56.753 C 169.113 56.953 169.913 57.153 170.913 57.253 C 169.713 57.253 168.713 57.253 168.213 57.553 C 168.213 57.553 166.213 59.553 168.913 60.653 C 169.213 60.753 169.613 60.853 170.113 60.953 C 169.413 60.953 168.813 61.053 168.513 61.353 C 168.513 61.353 166.713 63.353 169.113 64.453 C 169.713 64.753 170.813 64.953 172.113 65.053 L 172.113 65.053 C 172.113 65.053 172.513 67.353 175.813 66.953 C 179.013 66.653 178.613 64.953 178.613 64.953 L 178.613 64.953 C 180.113 64.753 181.313 64.553 181.313 64.253 C 181.413 63.353 182.013 61.353 179.413 61.453 C 178.713 61.453 177.813 61.453 176.713 61.353 C 179.713 61.353 182.313 61.053 182.413 60.553 C 182.213 59.853 182.913 57.853 180.013 57.953 Z " fill="rgb(158,98,33)"/><path d=" M 168.213 52.353 L 168.613 52.553 C 168.913 52.753 169.513 52.853 170.313 52.853 C 173.413 53.153 179.113 53.053 179.913 52.953 L 180.613 52.953 L 180.613 52.253 C 180.513 51.053 180.513 47.553 181.213 46.253 C 181.413 45.953 181.913 45.453 182.513 44.953 C 184.813 43.053 189.113 39.453 190.313 30.653 C 190.913 26.753 189.913 23.353 187.513 20.353 C 183.713 15.753 177.113 13.353 172.613 13.053 C 169.513 12.853 166.013 14.453 162.913 17.453 C 159.013 21.253 156.813 26.553 157.013 31.453 C 157.313 39.553 162.213 42.553 165.213 44.253 C 165.813 44.653 166.313 44.953 166.713 45.253 C 168.113 46.453 168.313 50.253 168.313 51.653 L 168.213 52.353 L 168.213 52.353 Z  M 174.113 51.853 C 174.113 48.153 173.813 42.353 172.413 41.453 C 172.113 41.253 171.713 41.253 171.413 41.453 C 170.713 41.853 170.213 42.553 169.913 43.153 C 169.413 41.153 169.113 37.053 169.013 34.853 L 169.313 35.553 C 170.613 39.053 171.213 40.653 172.313 40.553 C 173.113 40.453 173.513 39.553 173.813 37.153 C 174.113 34.553 174.613 32.453 175.013 31.253 C 175.013 31.753 175.113 32.453 175.113 33.553 C 175.213 41.153 175.813 41.853 176.613 41.953 C 176.613 41.953 176.613 41.953 176.613 41.953 C 177.413 42.053 178.013 41.353 179.013 37.453 C 179.913 33.753 181.313 31.953 181.913 31.553 C 181.913 31.853 181.913 32.553 181.513 33.853 C 181.013 35.453 180.313 36.653 179.613 38.053 C 177.913 41.053 176.213 44.253 176.513 51.853 C 175.713 51.853 174.913 51.853 174.113 51.853 Z  M 167.513 44.553 C 167.113 44.153 166.513 43.853 165.813 43.453 C 163.113 41.853 158.613 39.053 158.313 31.653 C 158.113 27.053 160.113 22.153 163.813 18.553 C 166.513 15.853 169.813 14.353 172.513 14.553 C 176.813 14.853 183.013 17.053 186.513 21.353 C 188.713 24.053 189.513 27.153 189.013 30.653 C 187.813 38.953 183.913 42.153 181.613 44.153 C 180.813 44.753 180.313 45.253 180.013 45.753 C 179.213 47.253 179.113 50.353 179.213 51.753 C 178.813 51.753 178.313 51.753 177.913 51.753 C 177.713 44.453 179.313 41.453 180.913 38.553 C 181.613 37.253 182.413 35.853 182.913 34.153 C 183.513 32.253 183.513 31.053 183.013 30.453 C 182.713 30.153 182.313 30.053 181.913 30.153 C 180.513 30.553 178.913 33.353 177.913 37.053 C 177.513 38.753 177.113 39.653 176.913 40.153 C 176.713 39.353 176.513 37.553 176.513 33.553 C 176.513 29.753 176.113 29.053 175.313 28.953 C 174.213 28.853 173.313 31.553 172.613 36.953 C 172.513 38.053 172.313 38.653 172.213 38.953 C 171.813 38.253 171.113 36.553 170.613 35.053 L 170.113 33.853 C 169.813 33.153 169.413 31.953 168.513 32.253 C 166.713 32.753 168.613 43.353 168.613 43.453 C 168.813 44.553 169.113 45.153 169.713 45.253 C 170.313 45.353 170.613 44.753 170.813 44.153 C 171.013 43.653 171.313 42.953 171.713 42.653 C 172.213 43.653 172.613 47.853 172.713 51.753 C 171.313 51.753 170.113 51.653 169.513 51.453 C 169.513 50.053 169.313 46.153 167.513 44.553 Z " fill="rgb(158,98,33)"/></g></g></g></g></g></svg>