<?xml version="1.0" standalone="no"?><!-- Generator: Gravit.io --><svg xmlns="http://www.w3.org/2000/svg" xmlns:xlink="http://www.w3.org/1999/xlink" style="isolation:isolate" viewBox="0 0 308.5 392.2" width="308.5" height="392.2"><defs><clipPath id="_clipPath_ibroot9jSM7FaYuDhvKiwiNQMEbpVz3v"><rect width="308.5" height="392.2"/></clipPath></defs><g clip-path="url(#_clipPath_ibroot9jSM7FaYuDhvKiwiNQMEbpVz3v)"><g><path d=" M 33.6 375.6 C 42.2 313.6 65.8 258.6 94.8 202.9 C 99.6 192.7 102.9 181.8 106.4 171.4 C 106.5 171.2 104.9 171 104.7 170.9 L 104.5 170.8 C 104.3 170.7 104 170.7 103.8 170.9 C 97.6 179.1 -10.5 324.3 37.8 416.6 C 37.8 416.6 37.2 414.2 36.7 410.8 C 36.7 410.8 36.7 410.8 36.7 410.7 C 33.1 399.3 31.8 387.3 33.6 375.6 Z " fill="rgb(162,22,22)"/><path d=" M 260.8 358.7 C 213.3 315.3 223.6 241.8 223.6 241.8 L 223 241.5 C 190.3 298.5 234 353.1 269.9 397.5 C 280 409.8 287.9 424 291.3 439.1 C 293.5 443.9 294.6 448.4 294.3 452.3 C 294.4 452.3 308.3 402.2 260.8 358.7 Z " fill="rgb(162,22,22)"/><path d=" M 223.1 241.5 L 105.1 171 C 101.5 181.5 99.7 192.4 94.9 202.8 C 65.8 258.6 42.3 313.5 33.7 375.5 C 31.9 387.2 33.2 399.2 36.7 410.6 C 35.4 402.7 34.3 389.1 40.5 386 C 49.5 381.5 84.8 358.2 117.5 390.9 C 150.2 423.6 209.2 416.5 230.3 401.7 C 247.7 389.5 281.1 416.8 291.4 439.1 C 287.9 424 280 409.8 270 397.5 C 234.1 353.1 190.4 298.5 223.1 241.5 Z " fill="rgb(88,17,17)"/><path d=" M 152.5 294.8 L 163.5 272.6 L 170.6 300.8 L 152.5 294.8 Z " fill="rgb(214,208,189)"/><path d=" M 134.3 295.7 C 134.3 295.7 124.2 334.7 124.5 343.4 C 124.5 343.4 139.8 386.1 152.6 403.6 L 154.6 401.8 C 154.6 401.8 152.3 367.3 149.9 361 C 147.5 354.7 141.5 353.7 141.8 349.7 C 142.1 345.8 159.1 313.9 159.1 313.9 L 162.2 315.2 C 162.2 315.2 161.7 349.2 167 364.7 C 167 364.7 169.8 368.9 165 374.9 C 160.2 380.9 156.3 433.5 156.3 433.5 L 157.9 435.6 C 157.9 435.6 176.8 381.9 179.3 373.8 C 181.8 365.7 186.8 307.4 186.8 307.4 L 146.9 293.9 L 134.3 295.7 L 134.3 295.7 Z " fill="rgb(48,48,48)"/><path d=" M 159 313.8 C 158.9 312.6 158.7 311.5 158.6 310.3 C 158.5 309.1 158.4 308 158.3 306.8 L 158 303.3 L 157.7 299.8 L 157.7 299.4 L 158.1 299.4 C 160.4 299.5 162.7 299.6 165 299.7 L 165.4 299.7 L 165.3 300.1 L 164.6 303.5 C 164.4 304.6 164.2 305.8 163.9 306.9 C 163.4 309.2 163 311.5 162.4 313.7 L 162.4 313.8 L 162.3 313.8 C 161.2 313.9 160.1 313.9 159 313.8 Z  M 159 313.8 C 160.1 313.7 161.2 313.7 162.3 313.7 L 162.2 313.8 C 162.5 311.5 162.9 309.2 163.3 306.9 C 163.5 305.8 163.7 304.6 163.9 303.5 L 164.5 300.1 L 164.9 300.5 C 162.6 300.4 160.3 300.2 158 300.1 L 158.4 299.7 L 158.6 303.2 L 158.8 306.7 C 158.9 307.9 158.9 309.1 158.9 310.2 C 158.9 311.5 159 312.6 159 313.8 Z " fill="rgb(34,34,30)"/><g><path d=" M 155.1 294.9 C 155.1 294.9 170.6 298.5 172.8 296.5 L 171.2 301.7 C 171.2 301.7 151.5 299 150.5 296.4 C 149.4 293.7 155.1 294.9 155.1 294.9 Z " fill="rgb(35,33,34)"/><path d=" M 159.1 295.2 L 157.6 300.2 L 163.9 301.2 L 164.9 295.8 L 159.1 295.2 Z " fill="rgb(207,209,210)"/><path d=" M 159.4 295.8 L 158.1 299.7 L 163.5 300.6 L 164.2 296.5 L 159.4 295.8 Z " fill="rgb(35,33,34)"/><path d=" M 158.8 297.4 L 159.6 297.5 L 159.4 298 L 158.5 297.7 L 158.8 297.4 Z " fill="rgb(207,209,210)"/></g><path d=" M 116.5 18.7 C 116.5 18.7 132.1 1.2 144.2 0 C 144.2 0 149.3 8.6 149.8 16.4 C 149.8 16.4 143.9 21.3 139.4 21.5 L 137.6 18.7 C 137.6 18.7 131.6 24.8 127.3 23.4 L 124.6 30.9 L 116.5 18.7 L 116.5 18.7 Z " fill="rgb(236,181,132)"/><path d=" M 144.5 14.5 L 144.2 13.9 L 142 9.9 C 142 9.9 136.7 11.1 135.7 13 C 135.7 13 135.9 16.3 139.4 21.4 C 139.4 21.4 143.9 21.2 147 18.4 C 147 18.4 140.6 21.3 139.4 19.5 C 138.2 17.8 135.5 12.3 140.8 10.9 C 140.8 11 143.5 12.1 144.5 14.5 Z " fill="rgb(219,151,105)"/><path d=" M 114 20.5 L 116.5 18.7 L 128.8 30.9 L 127.5 33.8 L 114 20.5 Z " fill="rgb(246,237,217)"/><path d=" M 114 20.5 C 114 20.5 127.2 29.8 128.9 32.7 C 128.9 32.7 93 113.4 139.2 147.2 L 178.9 144.7 C 178.9 144.7 216.3 173.9 220.9 179.9 C 220.9 179.9 248.5 262.4 208.6 279.7 C 208.6 279.7 197.8 278.5 191.5 246.3 C 191.5 246.3 184.8 288 186.5 307.3 C 186.5 307.3 171.2 304.9 167.5 301 L 162 276.5 L 152.9 297.4 C 152.9 297.4 136.6 298.4 134.2 295.7 C 134.2 295.7 128.7 221.4 122.9 207.7 C 117.1 194 76.8 147.8 78.7 119.1 C 80.7 90.6 93.9 41.1 114 20.5 Z " fill="rgb(58,58,57)"/><path d=" M 153.8 150.4 C 162.4 153.8 173 149.4 178.2 141.6 L 177.5 137.4 L 141.3 137.4 L 141 139 C 143.2 143.9 148.7 148.5 153.8 150.4 Z " fill="rgb(198,137,96)"/><path d=" M 140.4 144.7 C 140.2 144.4 140.1 144.1 139.9 143.9 L 139.1 148 L 156.9 203.5 L 172.4 180.3 L 176.8 159.3 C 169 168.6 161.2 177.7 160 191.1 C 156.1 173.8 151.4 158.9 140.4 144.7 Z " fill="rgb(198,137,96)"/><path d=" M 178.2 141.7 C 172.3 148.8 162.4 152.9 153.8 149.5 C 148.7 147.6 144.2 144.1 140.9 139.2 L 140 144 C 140.2 144.3 140.3 144.5 140.5 144.8 C 151.5 158.9 156.2 173.9 160.1 191.1 C 161.3 177.7 169.1 168.6 176.9 159.3 L 177.1 158.2 C 176.8 158.6 176.5 159 176.5 159.7 C 176.5 159.1 176.7 158.6 177.1 158.2 L 179.2 148 L 178.2 141.7 L 178.2 141.7 Z " fill="rgb(219,151,105)"/><path d=" M 177.8 103.7 C 177.8 103.7 180.6 99.8 183.2 101.4 C 185.8 103 187.3 112.6 181.4 110 C 175.6 107.5 177.8 103.7 177.8 103.7 Z " fill="rgb(236,181,132)"/><path d=" M 179 104.5 C 179 104.5 181.4 101.9 182.8 103.4 C 184.2 104.9 184.8 109.6 181.6 108.9 C 178.5 108.1 179 104.5 179 104.5 Z " fill="rgb(219,151,105)"/><path d=" M 140.7 104 C 140.7 104 137.7 99.8 134.8 103.1 C 131.9 106.4 133.2 109.2 135.9 110 C 138.6 110.8 140.7 104 140.7 104 Z " fill="rgb(219,151,105)"/><path d=" M 138.9 105 C 138.9 105 136.9 102 135.2 105.1 C 133.5 108.2 136.9 108.3 136.9 108.3 L 138.9 105 L 138.9 105 Z " fill="rgb(181,103,59)"/><path d=" M 137.5 109.6 C 137.7 109.4 144.2 93.5 145.1 86 C 145.1 86 146 82.7 148 81.6 C 150 80.5 159.9 75.6 164.7 77.6 C 169.5 79.6 174.5 82.1 174.5 82.1 L 175.6 85 C 175.6 85 174.6 97.6 181.9 108.1 C 189.2 118.6 137.6 109.9 137.6 109.9 L 137.6 109.6 L 137.5 109.6 Z " fill="rgb(219,151,105)"/><path d=" M 181.8 108.1 C 174.5 97.6 175.5 85 175.5 85 L 174.4 82.1 C 174.4 82.1 169.4 79.5 164.6 77.6 C 163.6 77.2 162.4 77.1 161.2 77.2 L 161.8 82.4 C 161.8 82.4 156.6 80.4 156.1 83 C 155.6 85.7 156.9 87.1 156.9 87.1 C 156.9 87.1 158.4 90.8 157.5 97 C 157.5 97 161.6 94.4 165.3 100.4 C 168.9 106.4 167.1 106.3 167.1 106.3 L 155 112.2 C 169.2 113.7 186.2 114.4 181.8 108.1 Z " fill="rgb(236,181,132)"/><path d=" M 164.9 140.5 C 177.9 137.4 184.7 125.9 185.1 113.9 C 183.8 110.8 181.9 107.5 179.2 103.8 C 179.2 103.8 180.4 109 176.4 109.1 C 172.4 109.2 159.6 103.2 159.6 103.2 L 147.2 109.8 C 147.2 109.8 139.2 107.4 139.8 103.8 C 139.8 103.8 133 109.1 132.3 118.4 C 132.6 134 149.7 144 164.9 140.5 Z " fill="rgb(91,54,23)"/><path d=" M 185.1 113.9 C 184 125.8 177.9 136.4 164.9 139.5 C 149.6 143 133.2 133.6 132.2 118.4 C 131.9 122.6 132.8 127.7 136.2 133.4 C 147.1 151.7 175.4 143.2 178.1 140.3 C 180.5 137.7 191.8 130 185.1 113.9 Z " fill="rgb(76,47,20)"/><g><g opacity="0.69"><path d=" M 156 92.5 L 155.6 90.8 L 154.6 90 L 153.2 89.5 L 152 89.4 C 152 89.5 150.8 89.1 150 89.5 C 152 90.9 153.7 92.8 155.9 93.9 L 156 92.5 L 156 92.5 Z " fill="rgb(229,243,255)"/></g><g opacity="0.69"><path d=" M 155.8 94.1 L 155.8 93.9 C 153.6 92.8 151.9 90.9 149.9 89.5 C 149.8 89.6 149.6 89.6 149.5 89.7 C 151.9 91 153.7 92.7 155.6 94.4 L 155.8 94.1 L 155.8 94.1 Z " fill="rgb(255,255,255)"/></g><g opacity="0.69"><path d=" M 154.5 95.8 C 152.1 94.2 149.8 92.3 147.4 90.8 L 146.6 91.3 C 146.6 91.3 146.5 91.4 146.4 91.6 C 148.6 93.3 151.2 95.1 153.6 96.9 L 154.5 95.8 L 154.5 95.8 Z " fill="rgb(255,255,255)"/></g><g opacity="0.69"><path d=" M 146.4 91.7 C 146 92.4 145.3 93.8 145.2 93.8 C 145.1 93.8 144.7 96.2 144.7 96.2 L 145.6 98.3 L 147.2 99.2 C 147.2 99.2 149.3 99.3 149.4 99.2 C 149.5 99.2 152.7 98 152.7 98 L 153.6 97 C 151.2 95.2 148.6 93.4 146.4 91.7 Z " fill="rgb(229,243,255)"/></g><g opacity="0.69"><path d=" M 154.6 95.7 L 155.5 94.4 C 153.7 92.7 151.9 91 149.4 89.7 C 149.1 89.8 148.8 89.9 148.8 89.9 L 147.2 90.8 C 149.6 92.3 152 94.1 154.3 95.8 L 154.6 95.7 L 154.6 95.7 Z " fill="rgb(229,243,255)"/></g></g><g><g opacity="0.69"><path d=" M 163.2 92.7 L 163.6 91 L 164.6 90.2 L 166 89.7 L 167.2 89.6 C 167.2 89.7 168.4 89.3 169.2 89.7 C 167.2 91.1 165.5 93 163.3 94.1 L 163.2 92.7 L 163.2 92.7 Z " fill="rgb(229,243,255)"/></g><g opacity="0.69"><path d=" M 163.5 94.3 L 163.5 94.1 C 165.7 93 167.4 91.1 169.4 89.7 C 169.5 89.8 169.7 89.8 169.8 89.9 C 167.4 91.2 165.6 92.9 163.7 94.6 L 163.5 94.3 L 163.5 94.3 Z " fill="rgb(255,255,255)"/></g><g opacity="0.69"><path d=" M 164.8 96 C 167.2 94.4 169.5 92.5 171.9 91 L 172.7 91.5 C 172.7 91.5 172.8 91.6 172.9 91.8 C 170.7 93.5 168.1 95.3 165.7 97.1 L 164.8 96 L 164.8 96 Z " fill="rgb(255,255,255)"/></g><g opacity="0.69"><path d=" M 172.9 91.9 C 173.3 92.6 174 94 174.1 94 C 174.2 94 174.6 96.4 174.6 96.4 L 173.7 98.5 L 172.1 99.4 C 172.1 99.4 170 99.5 169.9 99.4 C 169.8 99.4 166.6 98.2 166.6 98.2 L 165.7 97.2 C 168.1 95.4 170.7 93.6 172.9 91.9 Z " fill="rgb(229,243,255)"/></g><g opacity="0.69"><path d=" M 164.6 95.8 L 163.7 94.5 C 165.5 92.8 167.3 91.1 169.8 89.8 C 170.1 89.9 170.4 90 170.4 90 L 172 90.9 C 169.6 92.4 167.2 94.2 164.9 95.9 L 164.6 95.8 L 164.6 95.8 Z " fill="rgb(229,243,255)"/></g></g><path d=" M 134.8 112.3 C 134.8 112.3 148.8 118.6 160.1 106.4 C 160.1 106.4 164.5 117.9 182.6 109.9 L 159.9 102.3 L 134.8 112.3 L 134.8 112.3 Z " fill="rgb(70,42,19)"/><path d=" M 163.6 85.9 C 163.6 85.9 169.5 83.2 172.2 84.5 L 176.4 91.9 C 176.4 91.9 171.3 87.6 163.6 90.7 L 163.6 85.9 L 163.6 85.9 Z " fill="rgb(91,54,23)"/><linearGradient id="_lgradient_0" x1="-0.003118644067800602" y1="0.49799319727891245" x2="1.0048305084745728" y2="0.49799319727891245" gradientTransform="matrix(11.8,0,0,14.7,153.7,86)" gradientUnits="userSpaceOnUse"><stop offset="0%" stop-opacity="1" style="stop-color:rgb(181,103,59)"/><stop offset="100%" stop-opacity="1" style="stop-color:rgb(79,19,6)"/></linearGradient><path d=" M 159.8 95.8 C 159.1 95.8 158.5 96.1 157.9 96.4 L 157.9 96.4 C 157.9 96.4 158.8 91.2 156.9 86 C 156.9 86 158.4 95.1 156.9 97.1 L 156.9 97.1 C 155 98.5 153.7 100.7 153.7 100.7 C 153.7 100.7 157.4 96.7 159.6 96.9 C 161.8 97.1 165.5 100.7 165.5 100.7 C 165.5 100.7 163 95.7 159.8 95.8 Z " fill="url(#_lgradient_0)"/><path d=" M 174.7 93.6 C 174 92.3 172.8 91.1 171.3 90.2 C 168.1 88.4 164.6 88.8 163.3 91.1 C 163 91.7 162.8 92.4 162.9 93.2 C 161.9 92.4 160.8 92 159.7 92.1 C 158.4 92.2 157.3 92.8 156.5 93.4 C 156.6 92.6 156.5 91.8 156.1 91.2 C 155.5 90.1 154.3 89.4 152.8 89.3 C 151.3 89.2 149.7 89.5 148.2 90.4 C 146.7 91.2 145.5 92.4 144.8 93.8 C 144.1 95.2 144.1 96.6 144.7 97.7 C 145.3 98.8 146.5 99.5 148 99.6 C 148.2 99.6 148.4 99.6 148.6 99.6 C 149.9 99.6 151.3 99.2 152.6 98.5 C 154.1 97.7 155.3 96.5 156 95.1 C 156 95.1 156 95 156.1 95 C 156.2 94.9 157.7 93.1 159.7 93 C 160.9 92.9 162.1 93.5 163.2 94.7 C 163.3 94.8 163.3 95 163.4 95.1 C 164.1 96.4 165.3 97.6 166.8 98.5 C 168.1 99.2 169.5 99.6 170.8 99.6 C 172.5 99.6 174 98.9 174.8 97.6 C 175.4 96.3 175.3 94.9 174.7 93.6 Z  M 152.3 97.6 C 150.9 98.4 149.4 98.7 148.1 98.6 C 146.8 98.5 145.9 97.9 145.4 97.1 C 144.9 96.2 145 95.1 145.5 94 C 146.1 92.8 147.2 91.7 148.5 91 C 149.7 90.3 151 90 152.1 90 C 152.3 90 152.5 90 152.6 90 C 153.9 90.1 154.8 90.7 155.3 91.5 C 155.8 92.4 155.7 93.5 155.2 94.6 C 154.7 95.7 153.6 96.8 152.3 97.6 Z  M 174.1 97 C 173.1 98.9 170 99.1 167.2 97.6 C 165.8 96.8 164.7 95.8 164.2 94.6 C 163.6 93.5 163.6 92.3 164.1 91.5 C 164.7 90.5 165.9 89.9 167.3 89.9 C 168.4 89.9 169.7 90.2 171 90.9 C 172.4 91.7 173.5 92.7 174 93.9 C 174.5 95.1 174.6 96.2 174.1 97 Z " fill="rgb(72,43,19)"/><path d=" M 143.2 93.3 L 145.9 92.6 L 144.4 95.5 L 143.2 93.3 Z " fill="rgb(72,43,19)"/><path d=" M 173.7 92.1 L 176.1 93 C 176.1 93 174.9 95.5 174.9 95.5 C 174.9 95.5 173.7 92.1 173.7 92.1 Z " fill="rgb(72,43,19)"/><path d=" M 145 85.9 C 145 85.9 156.5 75.8 161.7 82.3 C 161.7 82.3 170.5 79.2 175.4 85 C 175.4 85 176.8 84 176.6 82.2 C 176.3 80.4 164.1 77.3 163.6 75.7 C 163.6 75.7 161.9 74.8 158 75.3 C 154.1 75.8 143.3 79.7 145 85.9 Z " fill="rgb(120,70,27)"/><path d=" M 149.6 95 C 149.6 95 151.7 95.3 152.4 93 C 153.1 90.8 150.7 92.2 150 93.5 C 149.3 94.9 149.6 95 149.6 95 Z " fill="rgb(91,54,23)"/><path d=" M 169.7 94.6 C 169.7 94.6 167.8 94.9 167.2 92.6 C 166.5 90.4 168.7 91.8 169.4 93.1 C 170 94.5 169.7 94.6 169.7 94.6 Z " fill="rgb(91,54,23)"/><path d=" M 141.2 111.2 C 141.2 111.2 140.5 112.6 139.7 114.9 C 139.5 115.5 139.3 116.1 139.1 116.7 C 138.9 117.4 138.7 118 138.6 118.8 C 138.5 119.2 138.4 119.5 138.4 119.9 C 138.3 120.3 138.3 120.7 138.2 121 C 138 121.8 138 122.5 137.9 123.3 C 137.8 124.1 137.8 124.9 137.7 125.6 C 137.7 126.4 137.6 127.1 137.6 127.9 C 137.6 128.6 137.6 129.4 137.6 130 C 137.6 130.7 137.7 131.3 137.7 131.9 C 137.8 132.5 137.7 133 137.8 133.5 C 137.9 134 137.9 134.4 137.9 134.8 C 138 135.5 138 135.9 138 135.9 C 138 135.9 137.9 135.5 137.7 134.8 C 137.6 134.5 137.5 134 137.3 133.6 C 137.1 133.1 137.1 132.6 137 132 C 136.9 131.4 136.7 130.8 136.7 130.1 C 136.6 129.4 136.5 128.7 136.5 127.9 C 136.5 127.1 136.5 126.4 136.5 125.6 C 136.6 124.8 136.6 124 136.7 123.2 C 136.8 122.4 136.9 121.6 137.1 120.8 C 137.2 120 137.4 119.2 137.7 118.5 C 137.9 117.8 138.2 117.1 138.4 116.4 C 138.7 115.8 138.9 115.1 139.2 114.6 C 139.5 114 139.7 113.6 140 113.1 C 140.2 112.7 140.5 112.3 140.7 112 C 140.9 111.5 141.2 111.2 141.2 111.2 Z " fill="rgb(70,42,19)"/><path d=" M 155.9 109 C 155.9 109 155.8 109.6 155.6 110.5 C 155.5 111 155.4 111.6 155.3 112.2 C 155.2 112.9 155.1 113.6 154.9 114.5 C 154.6 116.2 154.3 118.1 154 120.2 C 153.9 121.2 153.7 122.3 153.6 123.4 C 153.5 124.5 153.4 125.6 153.3 126.7 C 153.2 127.8 153.1 128.9 153.1 130 C 153 131.1 153 132.2 153 133.2 C 153 134.2 153.1 135.2 153.1 136.2 C 153.2 137.2 153.3 138.1 153.3 138.9 C 153.4 139.7 153.5 140.5 153.6 141.2 C 153.7 141.9 153.9 142.4 154 142.9 C 154.3 143.8 154.4 144.4 154.4 144.4 C 154.4 144.4 154.2 143.9 153.8 143 C 153.6 142.5 153.4 142 153.2 141.3 C 153 140.6 152.8 139.9 152.6 139 C 152.5 138.2 152.3 137.3 152.2 136.3 C 152.1 135.3 152 134.3 152 133.2 C 152 132.1 151.9 131 152 129.9 C 152.1 128.8 152.1 127.6 152.2 126.5 C 152.3 125.4 152.4 124.2 152.6 123.1 C 152.7 122 152.9 120.9 153.1 119.9 C 153.3 118.9 153.5 117.9 153.7 116.9 C 153.9 116 154.1 115.1 154.3 114.2 C 154.7 112.6 155.1 111.2 155.4 110.3 C 155.7 109.5 155.9 109 155.9 109 Z " fill="rgb(70,42,19)"/><path d=" M 169 110.5 C 169 110.5 169.1 111 169.4 111.9 C 169.6 112.8 169.9 114.1 170.2 115.7 C 170.5 117.3 170.8 119.1 171 121.1 C 171.2 123.1 171.4 125.2 171.5 127.3 C 171.5 128.4 171.5 129.4 171.5 130.5 C 171.5 131.5 171.4 132.6 171.3 133.6 C 171.1 135.6 170.8 137.5 170.4 139 C 170.2 139.8 170 140.5 169.7 141.1 C 169.5 141.7 169.2 142.2 169 142.6 C 168.8 143 168.6 143.3 168.5 143.5 C 168.4 143.7 168.3 143.8 168.3 143.8 C 168.3 143.8 168.4 143.7 168.4 143.4 C 168.5 143.2 168.6 142.8 168.8 142.4 C 169 142 169.1 141.4 169.3 140.8 C 169.4 140.2 169.6 139.5 169.7 138.7 C 169.8 137.9 169.9 137.1 170 136.2 C 170.1 135.3 170.1 134.4 170.2 133.4 C 170.2 132.4 170.2 131.4 170.3 130.4 C 170.3 129.4 170.3 128.3 170.2 127.3 C 170.1 125.2 170 123.1 169.9 121.1 C 169.8 119.1 169.6 117.3 169.5 115.7 C 169.4 114.1 169.2 112.8 169.2 111.9 C 169.1 111 169 110.5 169 110.5 Z " fill="rgb(70,42,19)"/><path d=" M 179.2 111.2 C 179.2 111.2 179.4 111.5 179.7 112.1 C 180 112.7 180.4 113.6 180.8 114.7 C 181.2 115.8 181.6 117.1 182 118.5 C 182.2 119.2 182.4 119.9 182.6 120.7 C 182.8 121.4 182.9 122.2 183.1 123 C 183.2 123.8 183.4 124.5 183.4 125.3 C 183.5 126.1 183.5 126.8 183.6 127.5 C 183.7 128.2 183.6 128.9 183.6 129.6 C 183.6 130.3 183.5 130.9 183.5 131.5 C 183.5 132.1 183.3 132.6 183.2 133.1 C 183.1 133.3 183.1 133.6 183.1 133.7 C 183 133.9 183 134.1 182.9 134.2 C 182.7 134.8 182.5 135.2 182.5 135.2 C 182.5 135.2 182.6 134.8 182.6 134.1 C 182.6 133.9 182.7 133.8 182.7 133.6 C 182.7 133.4 182.7 133.2 182.7 132.9 C 182.7 132.4 182.8 131.9 182.7 131.3 C 182.7 130.7 182.7 130.1 182.6 129.5 C 182.5 128.8 182.5 128.2 182.4 127.5 C 182.3 126.8 182.2 126.1 182.1 125.3 C 182 124.6 181.9 123.8 181.7 123.1 C 181.5 121.6 181.1 120.1 180.8 118.7 C 180.5 117.3 180.2 116 179.9 114.9 C 179.6 113.8 179.4 112.8 179.2 112.2 C 179.1 111.9 179 111.6 179 111.4 C 179.3 111.3 179.2 111.2 179.2 111.2 Z " fill="rgb(70,42,19)"/><path d=" M 139.3 147.2 L 140.7 140 C 140.7 140 143.4 153.6 151.1 165.5 C 153 173 154.6 187.3 158.7 194.8 L 166.6 175.4 L 178.3 142.2 L 180.6 145.9 C 180.6 145.9 186.1 156.9 177.4 184.4 C 168.7 211.9 160.8 229.3 160.8 229.3 C 160.8 229.3 151.7 218.5 149.2 210.3 C 146.7 202.1 135.7 153.5 135.7 153.5 L 139.3 147.2 L 139.3 147.2 Z " fill="rgb(246,237,217)"/><path d=" M 136.9 145.4 C 136.9 145.4 130.8 161.5 133.8 187.7 L 141.2 192.6 L 135.7 198.4 L 160.8 231.7 L 183.7 197.3 L 179.7 191.3 L 188 188.5 C 188 188.5 188.2 165.4 185.5 149.7 L 183.7 148.3 C 183.7 148.3 182.4 179.7 175.9 195.8 C 169.4 211.8 161.6 229.4 161.6 229.4 C 161.6 229.4 147.3 213 144.4 200.1 C 141.6 187.3 136.9 145.4 136.9 145.4 Z " fill="rgb(45,44,43)"/><path d=" M 139.3 147.2 C 139.3 147.2 141.7 196.6 160.8 229.5 C 160.8 229.5 181.5 172.3 180.6 146 L 184.6 149.2 C 184.6 149.2 188.2 182.2 187.1 187.7 L 178.9 190.4 L 183.2 196.3 L 160.8 231.8 L 136.8 198.2 L 142.2 192.2 L 134.7 187.2 C 134.7 187.2 132.8 159.1 136.9 145.4 L 139.3 147.2 L 139.3 147.2 Z " fill="rgb(80,79,78)"/><path d=" M 208.3 199 C 208.3 197.1 205.5 195.1 205.5 195.1 L 203.9 189.9 C 199.2 188 183.7 193.7 183.7 193.7 C 183.7 193.8 183.7 194 183.7 194.1 C 190.5 193.4 198.9 189.1 203.3 194.2 C 205.7 197.3 208 206 202.5 210.7 C 201.4 211.8 201.3 213.6 201.7 215.8 L 205.1 215 L 204.2 210.8 C 207.3 209.6 208.3 200.9 208.3 199 Z " fill="rgb(219,151,105)"/><path d=" M 202.4 210.7 C 207.9 206 205.5 197.4 203.2 194.2 C 198.8 189.1 190.5 193.4 183.6 194.1 C 183.9 215 190.2 213.3 190.2 213.3 L 191.3 218.1 L 201.6 215.8 C 201.3 213.6 201.4 211.8 202.4 210.7 Z " fill="rgb(236,181,132)"/><path d=" M 207.2 216 L 207.2 213.3 L 188.8 216.9 L 189.1 219.8 L 207.2 216 Z " fill="rgb(246,237,217)"/><path d=" M 191.5 246.4 C 191.5 246.4 187.5 221.8 187.9 218.8 L 207.6 215 C 207.6 215 217 246.7 217 251 L 206.7 217 L 189 219.9 L 191.5 246.4 L 191.5 246.4 Z " fill="rgb(80,79,78)"/><line x1="160.8" y1="231.8" x2="162" y2="276.5"/><path d=" M 137.8 281.6 C 138.2 281.7 152.6 276.5 152.6 276.5 L 152.6 279 L 137.8 283.4 L 137.8 281.6 L 137.8 281.6 Z " fill="rgb(45,44,43)"/><path d=" M 174.4 281 L 183.6 290.2 L 183.6 292.2 L 174.4 284.2 L 174.4 281 Z " fill="rgb(45,44,43)"/><path d=" M 167.6 236.5 C 167.6 237.6 166.7 238.5 165.6 238.5 C 164.5 238.5 163.6 237.6 163.6 236.5 C 163.6 235.4 164.5 234.5 165.6 234.5 C 166.7 234.5 167.6 235.4 167.6 236.5 Z " fill="rgb(45,44,43)"/><path d=" M 168.8 272.6 C 168.8 273.7 167.9 274.6 166.8 274.6 C 165.7 274.6 164.8 273.7 164.8 272.6 C 164.8 271.5 165.7 270.6 166.8 270.6 C 167.9 270.6 168.8 271.5 168.8 272.6 Z " fill="rgb(45,44,43)"/><path d=" M 152.5 403.6 C 152.3 404 152.8 409.3 146.8 417.5 C 146.8 417.5 147.2 420.9 151.7 415.8 C 156.2 410.7 155 406.4 155 406.4 L 155.5 406.6 L 156.1 405.4 C 156.1 405.4 156.1 402.7 154.5 401.6 L 152.5 403.6 L 152.5 403.6 Z " fill="rgb(0,0,0)"/><path d=" M 156 433.4 C 156 433.4 154.2 434.4 154.6 436.9 L 156 439.3 L 156.7 439 C 156.7 439 159.4 449.7 163 452 C 166.6 454.2 161.3 444.3 160 441.4 C 158.7 438.5 157.7 434.7 157.7 434.7 L 156 433.4 L 156 433.4 Z " fill="rgb(0,0,0)"/><path d=" M 134.8 112.3 C 134.8 112.3 143.9 100.7 160 101.1 C 176 101.5 182.6 109.8 182.6 109.8 C 182.6 109.8 164.8 116.3 160.3 104.4 C 160.2 104.5 154.1 115.8 134.8 112.3 Z " fill="rgb(104,61,25)"/><path d=" M 143 176.6 C 143 176.6 145.2 167.6 147.2 167.1 C 149.2 166.6 150.5 165.8 150.6 166.6 C 150.7 167.4 153.2 179.7 153.9 181.8 C 153.9 181.8 150.8 173.4 148.6 173.3 C 146.5 173.1 143 176.6 143 176.6 Z " fill="rgb(217,211,191)"/><path d=" M 163.6 183 C 163.9 182.2 169.7 167.7 170.8 167.4 C 171.9 167.1 175.9 167.3 174.7 179.6 C 174.7 179.6 172.4 172.5 171.1 172.6 C 169.7 172.7 163.6 183 163.6 183 Z " fill="rgb(217,211,191)"/><line x1="158.7" y1="194.9" x2="160.8" y2="229.5"/><path d=" M 162.7 195.1 C 162.7 195.6 162.3 196 161.8 196 C 161.3 196 160.9 195.6 160.9 195.1 C 160.9 194.6 161.3 194.2 161.8 194.2 C 162.3 194.2 162.7 194.6 162.7 195.1 Z " fill="rgb(217,211,191)"/><path d=" M 163.6 215 C 163.6 215.5 163.2 215.9 162.7 215.9 C 162.2 215.9 161.8 215.5 161.8 215 C 161.8 214.5 162.2 214.1 162.7 214.1 C 163.2 214.1 163.6 214.5 163.6 215 Z " fill="rgb(217,211,191)"/><path d=" M 128.8 146.2 C 128.7 146.4 125.5 155 129.5 156 C 133.5 156.9 139.3 147.3 139.3 147.3 L 128.8 146.2 L 128.8 146.2 Z " fill="rgb(45,44,43)"/><path d=" M 131.3 140.1 C 131.3 140.1 124.8 153 129.5 154.9 C 134.2 156.8 139.3 147.2 139.3 147.2 L 131.3 140.1 L 131.3 140.1 Z " fill="rgb(162,22,22)"/><path d=" M 183.7 148.4 C 183.7 148.4 182.9 165.8 191.1 165.6 C 191.1 165.6 195.7 165 194.7 157.2 L 183.7 148.4 L 183.7 148.4 Z " fill="rgb(45,44,43)"/><path d=" M 183.7 148.4 C 183.7 148.4 184 162.5 189.8 163.9 C 195.6 165.3 194.7 157.2 194.7 157.2 L 183.7 148.4 L 183.7 148.4 Z " fill="rgb(162,22,22)"/><path d=" M 132.2 151.7 C 132.2 152.3 131.7 152.7 131.2 152.7 C 130.6 152.7 130.2 152.2 130.2 151.7 C 130.2 151.1 130.7 150.7 131.2 150.7 C 131.8 150.7 132.2 151.1 132.2 151.7 Z " fill="rgb(45,44,43)"/><path d=" M 191.3 161.2 C 191.3 161.8 190.8 162.2 190.3 162.2 C 189.8 162.2 189.3 161.7 189.3 161.2 C 189.3 160.6 189.8 160.2 190.3 160.2 C 190.8 160.2 191.3 160.6 191.3 161.2 Z " fill="rgb(45,44,43)"/><path d=" M 143.2 92 C 143.5 92 152.6 87.1 156.9 87 L 156.9 79.9 C 156.9 79.9 147.9 83.1 143.2 90 L 143.2 92 L 143.2 92 Z " fill="rgb(91,54,23)"/><path d=" M 149.1 83 C 149.1 83 149.3 82.2 149.8 81.1 C 149.9 80.8 150.1 80.5 150.3 80.2 C 150.5 79.9 150.7 79.6 150.9 79.3 C 151.2 79 151.4 78.7 151.7 78.4 C 152 78.1 152.3 77.8 152.6 77.5 C 152.9 77.2 153.3 77 153.6 76.8 C 153.9 76.6 154.3 76.4 154.6 76.2 C 154.9 76 155.3 75.9 155.6 75.8 C 155.8 75.7 155.9 75.7 156.1 75.6 C 156.3 75.6 156.4 75.5 156.6 75.5 C 156.9 75.4 157.2 75.4 157.4 75.3 C 157.6 75.3 157.9 75.3 158 75.2 C 158.4 75.2 158.6 75.2 158.6 75.2 C 158.6 75.2 158.4 75.3 158.1 75.4 C 157.9 75.5 157.7 75.5 157.5 75.6 C 157.3 75.7 157 75.8 156.7 75.9 C 156.4 76 156.1 76.1 155.8 76.3 C 155.5 76.5 155.2 76.6 154.9 76.8 C 154.6 77 154.3 77.2 154 77.4 C 153.7 77.6 153.4 77.9 153.1 78.1 C 152.5 78.6 151.9 79.2 151.4 79.7 C 151.2 80 150.9 80.2 150.7 80.5 C 150.5 80.8 150.3 81 150.1 81.3 C 149.7 81.8 149.5 82.2 149.3 82.5 C 149.2 82.8 149.1 83 149.1 83 Z " fill="rgb(87,52,22)"/><path d=" M 161.4 75.2 C 161.4 75.2 161.7 75.6 162 76.2 C 162.3 76.8 162.6 77.7 162.7 78.7 C 162.7 78.9 162.7 79.2 162.7 79.4 C 162.7 79.6 162.7 79.9 162.7 80.1 C 162.7 80.3 162.6 80.5 162.6 80.7 C 162.6 80.9 162.5 81.1 162.4 81.3 C 162.3 81.5 162.2 81.6 162.2 81.7 C 162.1 81.8 162 81.9 162 82 C 161.9 82.2 161.8 82.2 161.8 82.2 C 161.8 82.2 161.8 82.1 161.9 81.9 C 161.9 81.8 162 81.7 162 81.6 C 162 81.5 162.1 81.3 162.1 81.2 C 162.1 80.9 162.1 80.5 162.1 80.1 C 162.1 79.7 162.1 79.2 162 78.8 C 162 78.4 161.9 77.9 161.8 77.5 C 161.7 77.1 161.7 76.7 161.6 76.3 C 161.4 75.6 161.4 75.2 161.4 75.2 Z " fill="rgb(87,52,22)"/><path d=" M 169 78.4 C 169 78.4 169.3 78.5 169.6 78.7 C 169.9 78.9 170.2 79.3 170.4 79.8 C 170.5 80 170.6 80.3 170.6 80.5 C 170.6 80.8 170.6 81 170.5 81.2 C 170.4 81.4 170.3 81.5 170.2 81.6 C 170.1 81.7 170.1 81.7 170.1 81.7 C 170.1 81.7 170.1 81.6 170.1 81.5 C 170.1 81.4 170.1 81.2 170 81.1 C 170 80.9 169.9 80.8 169.8 80.6 C 169.7 80.4 169.7 80.2 169.6 80 C 169.5 79.8 169.4 79.6 169.3 79.4 C 169.2 79.2 169.1 79 169.1 78.8 C 169.1 78.7 169 78.4 169 78.4 Z " fill="rgb(87,52,22)"/></g></g></svg>